<svg width="375" height="145" viewBox="0 0 375 145" fill="none" xmlns="http://www.w3.org/2000/svg">
<path opacity="0.54" d="M-20.9666 11.7301C-34.0951 23.9111 -27.5358 42.6038 -12.0776 53.1283C-10.6978 54.0708 -9.25795 54.9562 -7.77812 55.7915C7.34012 64.3239 27.0378 67.7369 46.2456 69.8075C49.9452 70.2074 53.6647 70.5644 57.3843 70.9142C74.8623 72.5564 92.5602 74.1058 108.828 79.0396C114.098 80.6319 119.067 82.5383 123.767 84.7303C155.513 99.5959 173.151 127.185 185.699 153.325C186.609 155.224 187.519 157.131 188.419 159.044C201.808 187.312 217.156 215.265 245.013 234.265C254.521 240.748 264.3 247.238 277.749 250.637C293.727 254.693 312.085 254.093 328.713 252.558C340.051 251.515 351.05 250.08 362.129 249.416C367.338 249.109 372.568 248.973 377.867 249.102C411.613 249.93 445.779 262.283 470.486 280.326C495.223 298.397 511.432 321.581 520.321 346" stroke="url(#paint0_linear_979_6308)" stroke-width="0.8669" stroke-miterlimit="10"/>
<path opacity="0.54" d="M-20.9666 11.7301C-34.0951 23.9111 -27.5358 42.6038 -12.0776 53.1283C-10.6978 54.0708 -9.25795 54.9562 -7.77812 55.7915C7.34012 64.3239 27.0378 67.7369 46.2456 69.8075C49.9452 70.2074 53.6647 70.5644 57.3843 70.9142C74.8623 72.5564 92.5602 74.1058 108.828 79.0396C114.098 80.6319 119.067 82.5383 123.767 84.7303C155.513 99.5959 173.151 127.185 185.699 153.325C186.609 155.224 187.519 157.131 188.419 159.044C201.808 187.312 217.156 215.265 245.013 234.265C254.521 240.748 264.3 247.238 277.749 250.637C293.727 254.693 312.085 254.093 328.713 252.558C340.051 251.515 351.05 250.08 362.129 249.416C367.338 249.109 372.568 248.973 377.867 249.102C411.613 249.93 445.779 262.283 470.486 280.326C495.223 298.397 511.432 321.581 520.321 346" stroke="url(#paint1_linear_979_6308)" stroke-width="0.8669" stroke-miterlimit="10"/>
<path opacity="0.54" d="M-23.9666 15.0001C-37.0951 27.1811 -30.5358 45.8738 -15.0776 56.3983C-13.6978 57.3408 -12.2579 58.2262 -10.7781 59.0616C4.34012 67.594 24.0378 71.0069 43.2456 73.0775C46.9452 73.4774 50.6647 73.8344 54.3843 74.1842C71.8623 75.8265 89.5602 77.3759 105.828 82.3097C111.098 83.9019 116.067 85.8083 120.767 88.0003C152.513 102.866 170.151 130.455 182.699 156.595C183.609 158.494 184.519 160.401 185.419 162.314C198.808 190.582 214.156 218.535 242.013 237.535C251.521 244.018 261.3 250.508 274.749 253.907C290.727 257.963 309.085 257.363 325.713 255.828C337.051 254.785 348.05 253.35 359.129 252.686C364.338 252.379 369.568 252.244 374.867 252.372C408.613 253.2 442.779 265.553 467.486 283.596C492.223 301.667 508.432 324.851 517.321 349.27" stroke="url(#paint2_linear_979_6308)" stroke-width="0.8669" stroke-miterlimit="10"/>
<path opacity="0.54" d="M-26.9666 18.0001C-40.0951 30.1811 -33.5358 48.8738 -18.0776 59.3983C-16.6978 60.3408 -15.2579 61.2262 -13.7781 62.0616C1.34012 70.594 21.0378 74.0069 40.2456 76.0775C43.9452 76.4774 47.6647 76.8344 51.3843 77.1842C68.8623 78.8265 86.5602 80.3759 102.828 85.3097C108.098 86.9019 113.067 88.8083 117.767 91.0003C149.513 105.866 167.151 133.455 179.699 159.595C180.609 161.494 181.519 163.401 182.419 165.314C195.808 193.582 211.156 221.535 239.013 240.535C248.521 247.018 258.3 253.508 271.749 256.907C287.727 260.963 306.085 260.363 322.713 258.828C334.051 257.785 345.05 256.35 356.129 255.686C361.338 255.379 366.568 255.244 371.867 255.372C405.613 256.2 439.779 268.553 464.486 286.596C489.223 304.667 505.432 327.851 514.321 352.27" stroke="url(#paint3_linear_979_6308)" stroke-width="0.8669" stroke-miterlimit="10"/>
<path opacity="0.54" d="M-29.9666 20.0001C-43.0951 32.1811 -36.5358 50.8738 -21.0776 61.3983C-19.6978 62.3408 -18.2579 63.2262 -16.7781 64.0616C-1.65988 72.594 18.0378 76.0069 37.2456 78.0775C40.9452 78.4774 44.6647 78.8344 48.3843 79.1842C65.8623 80.8265 83.5602 82.3759 99.8283 87.3097C105.098 88.9019 110.067 90.8083 114.767 93.0003C146.513 107.866 164.151 135.455 176.699 161.595C177.609 163.494 178.519 165.401 179.419 167.314C192.808 195.582 208.156 223.535 236.013 242.535C245.521 249.018 255.3 255.508 268.749 258.907C284.727 262.963 303.085 262.363 319.713 260.828C331.051 259.785 342.05 258.35 353.129 257.686C358.338 257.379 363.568 257.244 368.867 257.372C402.613 258.2 436.779 270.553 461.486 288.596C486.223 306.667 502.432 329.851 511.321 354.27" stroke="url(#paint4_linear_979_6308)" stroke-width="0.8669" stroke-miterlimit="10"/>
<path opacity="0.54" d="M-18.5756 7.91728C-31.7141 20.084 -25.3248 38.7267 -10.0566 49.3583C-8.68675 50.3079 -7.26692 51.2076 -5.80709 52.0501C9.16118 60.6824 28.7489 64.2596 47.8967 66.4873C51.5862 66.9157 55.2958 67.3013 59.0054 67.6797C76.4234 69.4576 94.0713 71.1212 110.289 76.1122C115.539 77.7258 120.498 79.6394 125.178 81.8456C156.854 96.797 174.342 124.379 186.601 150.569C187.49 152.468 188.37 154.382 189.25 156.295C202.269 184.598 217.087 212.53 243.804 232.051C253.183 238.906 262.792 245.889 276.49 249.523C292.768 253.864 311.666 253.1 328.634 251.244C340.203 249.98 351.381 248.274 362.69 247.36C367.999 246.931 373.349 246.689 378.778 246.724C413.334 246.953 448.63 259.526 473.857 278.076C499.114 296.648 515.362 320.546 524.251 345.6" stroke="url(#paint5_linear_979_6308)" stroke-width="0.8669" stroke-miterlimit="10"/>
<path opacity="0.54" d="M-16.1891 4.10444C-29.3275 16.2497 -23.1283 34.8567 -8.04002 45.5811C-6.69017 46.5379 -5.29034 47.4447 -3.83051 48.3015C10.9978 57.0409 30.4655 60.7824 49.5533 63.1671C53.2229 63.6241 56.9224 64.0382 60.622 64.4452C77.98 66.3516 95.5879 68.1438 111.746 73.1847C116.975 74.8126 121.915 76.7404 126.584 78.961C158.191 93.998 175.529 121.573 187.487 147.813C188.357 149.719 189.217 151.633 190.067 153.546C202.715 181.885 216.984 209.824 242.581 229.845C251.83 237.078 261.269 244.539 275.217 248.409C291.795 253.036 311.233 252.101 328.531 249.923C340.33 248.445 351.688 246.46 363.217 245.296C368.636 244.754 374.086 244.397 379.645 244.339C415.011 243.975 451.437 256.77 477.184 275.827C502.961 294.905 519.239 319.51 528.138 345.2" stroke="url(#paint6_linear_979_6308)" stroke-width="0.8669" stroke-miterlimit="10"/>
<path opacity="0.54" d="M-13.8091 0.291886C-26.9576 12.4229 -20.9383 30.98 -6.02005 41.8115C-4.6902 42.7825 -3.30037 43.6964 -1.86054 44.5604C12.8178 53.4069 32.1755 57.3054 51.1933 59.8473C54.8529 60.3328 58.5424 60.7826 62.222 61.2182C79.52 63.2602 97.088 65.1666 113.196 70.2647C118.405 71.914 123.335 73.849 127.994 76.0838C159.531 91.2137 176.709 118.781 188.377 145.064C189.227 146.971 190.057 148.891 190.887 150.812C203.166 179.187 216.854 207.147 241.361 227.646C250.47 235.265 259.749 243.204 273.937 247.31C290.815 252.215 310.793 251.116 328.421 248.624C340.44 246.932 351.988 244.668 363.737 243.254C369.256 242.59 374.826 242.126 380.515 241.976C416.691 241.02 454.246 254.036 480.513 273.593C506.81 293.171 523.119 318.489 532.027 344.815" stroke="url(#paint7_linear_979_6308)" stroke-width="0.8669" stroke-miterlimit="10"/>
<path opacity="0.54" d="M-11.4189 -3.52839C-24.5673 8.58118 -18.728 27.0954 -3.99972 38.034C-2.67987 39.0122 -1.31003 39.9404 0.119805 40.8186C14.6481 49.7723 33.8959 53.835 52.8537 56.5339C56.5032 57.0551 60.1728 57.5264 63.8424 57.9905C81.0804 60.1682 98.5984 62.1889 114.656 67.344C119.846 69.0076 124.765 70.964 129.405 73.206C160.871 88.4215 177.899 115.982 189.268 142.315C190.098 144.228 190.908 146.149 191.708 148.07C203.616 176.487 216.695 204.491 240.142 225.447C249.111 233.458 258.24 241.862 272.668 246.203C289.846 251.394 310.364 250.123 328.332 247.317C340.58 245.41 352.319 242.861 364.287 241.205C369.917 240.427 375.596 239.848 381.406 239.606C418.391 238.049 457.077 251.287 483.864 271.35C510.68 291.435 527.019 317.461 535.928 344.422" stroke="url(#paint8_linear_979_6308)" stroke-width="0.8669" stroke-miterlimit="10"/>
<path opacity="0.54" d="M-9.02856 -7.34096C-22.187 4.75434 -16.5277 23.2186 -1.96938 34.2643C-0.669529 35.2496 0.690312 36.185 2.10015 37.0775C16.4885 46.1311 35.6163 50.358 54.5141 53.214C58.1536 53.7638 61.8032 54.2708 65.4628 54.7563C82.6408 57.0697 100.119 59.2117 116.117 64.4168C121.286 66.0947 126.186 68.0654 130.815 70.3217C162.202 85.6229 179.09 113.184 190.158 139.559C190.958 141.473 191.748 143.4 192.528 145.321C204.067 173.774 216.515 201.835 238.933 223.234C247.742 231.645 256.731 240.513 271.409 245.089C288.887 250.566 309.944 249.124 328.242 245.996C340.711 243.868 352.639 241.048 364.828 239.142C370.557 238.249 376.347 237.564 382.286 237.221C420.082 235.072 459.897 248.531 487.204 269.094C514.541 289.679 530.909 316.419 539.828 344.015" stroke="url(#paint9_linear_979_6308)" stroke-width="0.8669" stroke-miterlimit="10"/>
<path opacity="0.54" d="M-6.64847 -11.1538C-19.8069 0.920107 -14.3376 19.3415 0.0407531 30.4872C1.3206 31.4796 2.67044 32.4292 4.06028 33.3289C18.2986 42.4896 37.3164 46.8808 56.1542 49.8939C59.7738 50.4722 63.4234 51.0077 67.073 51.529C84.201 53.9709 101.629 56.2343 117.567 61.4965C122.716 63.1958 127.606 65.1736 132.225 67.4371C163.542 82.8239 180.28 110.377 191.059 136.803C191.838 138.724 192.608 140.651 193.358 142.572C204.527 171.061 216.326 199.2 237.723 221.027C246.372 229.845 255.221 239.163 270.139 243.975C287.917 249.73 309.505 248.124 328.143 244.682C340.841 242.34 352.95 239.242 365.368 237.085C371.198 236.071 377.107 235.279 383.176 234.843C421.782 232.102 462.727 245.775 490.554 266.845C518.41 287.937 534.809 315.383 543.738 343.615" stroke="url(#paint10_linear_979_6308)" stroke-width="0.8669" stroke-miterlimit="10"/>
<path opacity="0.54" d="M-4.25768 -14.9668C-17.4261 -2.90719 -12.1268 15.4642 2.06159 26.717C3.33144 27.7237 4.66129 28.6805 6.04113 29.5873C20.1395 38.8551 39.0373 43.4034 57.8051 46.5807C61.4147 47.1876 65.0443 47.7516 68.6838 48.3014C85.7519 50.879 103.13 53.2567 119.018 58.576C124.147 60.2896 129.017 62.2817 133.626 64.5594C164.873 80.0391 181.461 107.585 191.94 134.054C192.699 135.974 193.439 137.902 194.169 139.837C204.968 168.362 216.077 196.594 236.494 218.828C244.963 228.053 253.692 237.828 268.861 242.876C286.939 248.916 309.066 247.138 328.034 243.383C340.952 240.826 353.251 237.449 365.889 235.043C371.829 233.915 377.838 233.008 384.037 232.48C423.453 229.138 465.528 243.04 493.874 264.61C522.251 286.202 538.679 314.362 547.618 343.229" stroke="url(#paint11_linear_979_6308)" stroke-width="0.8669" stroke-miterlimit="10"/>
<path opacity="0.54" d="M-1.86759 -18.7868C-15.0361 -6.7486 -9.92666 11.5871 4.09171 22.9398C5.34157 23.9537 6.65142 24.9176 8.02126 25.8387C21.9696 35.2136 40.7575 39.9189 59.4653 43.2533C63.0649 43.8959 66.6845 44.4886 70.304 45.0669C87.3121 47.7801 104.65 50.2792 120.478 55.6485C125.588 57.3835 130.447 59.3828 135.036 61.6747C166.213 77.2401 182.651 104.779 192.83 131.298C193.57 133.225 194.29 135.153 194.99 137.088C205.418 165.649 215.827 193.973 235.275 216.622C243.554 226.261 252.183 236.478 267.591 241.762C285.969 248.088 308.636 246.139 327.944 242.069C341.093 239.298 353.571 235.636 366.43 232.987C372.469 231.737 378.598 230.723 384.917 230.102C425.143 226.168 468.348 240.284 497.214 262.361C526.111 284.459 542.569 313.327 551.518 342.83" stroke="url(#paint12_linear_979_6308)" stroke-width="0.8669" stroke-miterlimit="10"/>
<path opacity="0.54" d="M0.520704 -22.5995C-12.6478 -10.5756 -7.72833 7.71008 6.11006 19.1628C7.34991 20.1838 8.63976 21.162 9.99961 22.0902C23.798 31.5651 42.4758 36.4418 61.1237 39.9333C64.7132 40.6044 68.3128 41.2256 71.9224 41.8325C88.8704 44.6814 106.168 47.2947 121.937 52.7211C127.026 54.4705 131.875 56.484 136.455 58.7902C167.561 74.4413 183.849 101.973 193.728 128.542C194.448 130.469 195.138 132.404 195.818 134.339C205.877 162.935 215.546 191.36 234.064 214.408C242.143 224.469 250.672 235.129 266.32 240.641C284.998 247.245 308.205 245.132 327.843 240.741C341.211 237.756 353.88 233.815 366.968 230.916C373.117 229.552 379.357 228.424 385.806 227.71C426.841 223.176 471.176 237.521 500.563 260.098C529.979 282.696 546.467 312.277 555.416 342.416" stroke="url(#paint13_linear_979_6308)" stroke-width="0.8669" stroke-miterlimit="10"/>
<path opacity="0.54" d="M2.89944 -26.4122C-10.279 -14.4097 -5.52958 3.83318 8.12883 15.393C9.34869 16.4283 10.6285 17.4136 11.9684 18.3489C25.6268 27.9309 44.1846 32.9647 62.7725 36.6133C66.3421 37.313 69.9417 37.9699 73.5312 38.5982C90.4193 41.5827 107.667 44.3103 123.395 49.7939C128.465 51.5575 133.294 53.5924 137.864 55.9058C168.89 71.6496 185.038 99.1746 194.617 125.786C195.317 127.721 195.987 129.656 196.637 131.591C206.326 160.222 215.245 188.761 232.843 212.202C240.712 222.684 249.151 233.779 265.049 239.534C284.027 246.424 307.774 244.147 327.742 239.434C341.34 236.228 354.199 232.016 367.497 228.86C373.746 227.382 380.096 226.139 386.675 225.333C428.53 220.206 473.985 234.765 503.891 257.856C533.828 280.954 550.346 311.249 559.305 342.023" stroke="url(#paint14_linear_979_6308)" stroke-width="0.8669" stroke-miterlimit="10"/>
<path opacity="0.54" d="M5.29077 -30.2252C-7.8877 -18.237 -3.32823 -0.0440919 10.1502 11.6228C11.3501 12.6652 12.6199 13.6577 13.9398 14.6073C27.4482 24.2964 45.896 29.4944 64.4239 33.3001C67.9835 34.0284 71.5631 34.7138 75.1526 35.3778C91.9807 38.4909 109.189 41.347 124.857 46.8877C129.906 48.6727 134.726 50.7147 139.275 53.0352C170.232 68.8648 186.22 96.3827 195.519 123.044C196.189 124.979 196.848 126.921 197.478 128.863C206.797 157.53 214.936 186.176 231.644 210.01C239.284 220.913 247.653 232.451 263.801 238.435C283.078 245.61 307.366 243.161 327.663 238.135C341.492 234.715 354.53 230.223 368.049 226.818C374.408 225.218 380.867 223.869 387.576 222.969C430.241 217.25 476.826 232.03 507.252 255.621C537.709 279.226 554.267 310.228 563.226 341.637" stroke="url(#paint15_linear_979_6308)" stroke-width="0.8669" stroke-miterlimit="10"/>
<path opacity="0.54" d="M7.68014 -34.0449C-5.50832 -22.0781 -1.12884 -3.928 12.1696 7.84599C13.3595 8.89558 14.6093 9.90231 15.9192 10.8591C29.2876 20.6481 47.6155 26.0103 66.0733 29.9802C69.6229 30.7442 73.1925 31.4511 76.7621 32.1437C93.5302 35.3924 110.698 38.3627 126.306 43.9605C131.336 45.7598 136.135 47.8161 140.675 50.1509C171.561 66.0662 187.399 93.584 196.398 120.288C197.048 122.23 197.678 124.172 198.288 126.114C207.227 154.817 214.576 183.57 230.414 207.797C237.823 219.121 246.132 231.095 262.511 237.321C282.088 244.775 306.915 242.162 327.553 236.814C341.601 233.18 354.83 228.41 368.578 224.754C375.037 223.041 381.617 221.577 388.446 220.585C431.921 214.266 479.635 229.267 510.582 253.365C541.558 277.47 558.146 309.193 567.115 341.23" stroke="url(#paint16_linear_979_6308)" stroke-width="0.8669" stroke-miterlimit="10"/>
<path opacity="0.54" d="M10.0709 -37.8577C-3.1176 -25.9052 1.08191 -7.79801 14.2004 4.0688C15.3702 5.12553 16.6101 6.14657 17.9 7.11048C31.1184 17.0066 49.3363 22.533 67.7342 26.6529C71.2737 27.4454 74.8233 28.188 78.3829 28.9092C95.101 32.2936 112.209 35.3781 127.767 41.033C132.777 42.8537 137.566 44.9172 142.095 47.2663C172.912 63.2743 188.6 90.7779 197.299 117.532C197.929 119.474 198.539 121.423 199.119 123.365C207.688 152.111 214.217 180.971 229.205 205.59C236.365 217.343 244.624 229.752 261.252 236.207C281.129 243.947 306.496 241.162 327.464 235.5C341.742 231.652 355.151 226.596 369.119 222.698C375.678 220.87 382.368 219.292 389.327 218.207C433.612 211.295 482.446 226.518 513.922 251.115C545.419 275.727 562.037 308.158 571.016 340.831" stroke="url(#paint17_linear_979_6308)" stroke-width="0.8669" stroke-miterlimit="10"/>
<path opacity="0.54" d="M12.4478 -41.6704C-0.750633 -29.7394 3.2689 -11.675 16.2074 0.298951C17.3673 1.36996 18.5871 2.39099 19.857 3.36918C32.9255 13.3724 51.0333 19.056 69.3712 23.34C72.8908 24.1611 76.4404 24.9322 79.98 25.6819C96.638 29.202 113.706 32.4008 129.204 38.1128C134.194 39.9478 138.973 42.0256 143.483 44.3889C174.229 60.4827 189.767 87.9863 198.166 114.783C198.776 116.732 199.356 118.681 199.916 120.624C208.115 149.405 213.794 178.373 227.963 203.384C234.862 215.558 243.081 228.403 259.959 235.1C280.147 243.126 306.044 240.17 327.341 234.194C341.84 230.124 355.438 224.797 369.636 220.649C376.306 218.7 383.105 217.015 390.194 215.836C435.289 208.332 485.253 223.769 517.249 248.874C549.265 273.985 565.913 307.13 574.892 340.438" stroke="url(#paint18_linear_979_6308)" stroke-width="0.8669" stroke-miterlimit="10"/>
<path opacity="0.54" d="M14.841 -45.4831C1.64257 -33.5663 5.47213 -15.5519 18.2406 -3.47089C19.3805 -2.39274 20.5804 -1.35741 21.8502 -0.372078C34.7787 9.73827 52.7666 15.586 71.0445 20.02C74.5541 20.8697 78.0837 21.6765 81.6133 22.4476C98.2114 26.0962 115.239 29.4235 130.678 35.1855C135.647 37.0419 140.406 39.1268 144.906 41.5045C175.572 57.6839 190.971 85.1803 199.07 112.027C199.66 113.976 200.22 115.933 200.749 117.882C208.579 146.699 213.408 175.767 226.756 201.185C233.376 213.787 241.575 227.068 258.693 233.994C279.18 242.298 305.617 239.178 327.255 232.887C341.983 228.603 355.761 222.998 370.18 218.6C376.949 216.536 383.858 214.744 391.077 213.466C436.982 205.362 488.076 221.027 520.592 246.632C553.119 272.25 569.807 306.101 578.795 340.045" stroke="url(#paint19_linear_979_6308)" stroke-width="0.8669" stroke-miterlimit="10"/>
<path opacity="0.54" d="M17.2299 -49.3033C4.02147 -37.4079 7.68104 -19.4364 20.2596 -7.25538C21.3795 -6.17009 22.5693 -5.1205 23.8192 -4.12803C36.5977 6.08229 54.4756 12.0943 72.6835 16.6925C76.1831 17.5707 79.7027 18.4061 83.2223 19.2129C99.7603 22.9971 116.738 26.4387 132.127 32.2578C137.076 34.1285 141.825 36.2277 146.315 38.6196C176.911 54.8919 192.16 82.374 199.959 109.271C200.529 111.227 201.059 113.183 201.568 115.133C209.028 143.986 212.977 173.153 225.546 198.972C231.885 211.995 240.074 225.718 257.432 232.88C278.22 241.469 305.196 238.178 327.164 231.566C342.112 227.068 356.081 221.184 370.719 216.536C377.598 214.351 384.617 212.452 391.966 211.081C438.681 202.384 490.905 218.264 523.941 244.375C556.987 270.494 573.705 305.059 582.704 339.638" stroke="url(#paint20_linear_979_6308)" stroke-width="0.8669" stroke-miterlimit="10"/>
<path opacity="0.54" d="M19.6188 -53.1162C6.41033 -41.2352 9.87992 -23.3136 22.2885 -11.0255C23.3984 -9.92592 24.5682 -8.87633 25.8081 -7.86244C38.4466 2.45497 56.2045 8.63114 74.3524 13.3864C77.832 14.3004 81.3416 15.1571 84.8512 15.9925C101.329 19.9124 118.267 23.4682 133.606 29.3445C138.535 31.2295 143.264 33.3501 147.744 35.742C178.27 52.0999 193.369 79.5821 200.878 106.522C201.428 108.478 201.938 110.434 202.418 112.391C209.507 141.279 212.566 170.54 224.355 196.772C230.394 210.224 238.583 224.376 256.191 231.773C277.279 240.648 304.796 237.185 327.093 230.259C342.271 225.547 356.43 219.378 371.288 214.487C378.267 212.188 385.406 210.174 392.875 208.71C440.4 199.414 493.754 215.522 527.32 242.14C560.886 268.758 577.634 304.038 586.643 339.252" stroke="url(#paint21_linear_979_6308)" stroke-width="0.8669" stroke-miterlimit="10"/>
<path opacity="0.54" d="M21.9994 -56.9289C8.78097 -45.0692 12.0806 -27.1833 24.2992 -14.7953C25.389 -13.6886 26.5489 -12.6247 27.7688 -11.6037C40.2573 -1.17916 57.9053 5.15407 75.9932 10.0664C79.4627 11.0089 82.9623 11.9015 86.4519 12.7583C102.87 16.8138 119.768 20.491 135.046 26.4172C139.956 28.3236 144.675 30.4514 149.135 32.8576C179.591 49.3012 194.539 76.7762 201.749 103.766C202.268 105.729 202.758 107.686 203.218 109.649C209.938 138.574 212.097 167.919 223.116 194.566C228.855 208.439 237.044 223.034 254.892 230.666C276.28 239.82 304.337 236.193 326.964 228.953C342.362 224.026 356.711 217.579 371.789 212.438C378.868 210.024 386.117 207.897 393.716 206.34C442.051 196.451 496.534 212.78 530.62 239.898C564.706 267.024 581.484 303.01 590.503 338.86" stroke="url(#paint22_linear_979_6308)" stroke-width="0.8669" stroke-miterlimit="10"/>
<path opacity="0.54" d="M24.3889 -60.7416C11.1705 -48.8962 14.2801 -31.0603 26.3187 -18.5652C27.3986 -17.4513 28.5385 -16.3732 29.7383 -15.345C42.0869 -4.82054 59.6148 1.67694 77.6428 6.75353C81.1023 7.72458 84.5819 8.64567 88.0615 9.53818C104.42 13.7294 121.268 17.5208 136.496 23.5042C141.385 25.4249 146.095 27.5669 150.544 29.9874C180.931 46.5167 195.719 73.9917 202.638 101.024C203.138 102.988 203.608 104.951 204.038 106.915C210.387 135.875 211.627 165.299 221.896 192.374C227.315 206.669 235.534 221.698 253.622 229.567C275.31 239.006 303.906 235.215 326.874 227.646C342.502 222.498 357.03 215.779 372.338 210.389C379.528 207.854 386.887 205.619 394.616 203.97C443.76 193.488 499.374 210.032 533.98 237.657C568.586 265.281 585.394 301.981 594.423 338.467" stroke="url(#paint23_linear_979_6308)" stroke-width="0.8669" stroke-miterlimit="10"/>
<path opacity="0.54" d="M26.7796 -64.5615C13.5511 -52.7375 16.4808 -34.9445 28.3494 -22.3494C29.4093 -21.2284 30.5392 -20.143 31.729 -19.1006C43.9276 -8.46901 61.3456 -1.80734 79.3135 3.4192C82.7631 4.41881 86.2327 5.3756 89.6923 6.28953C106 10.6093 122.798 14.522 137.967 20.5625C142.836 22.5046 147.526 24.6538 151.965 27.0886C182.272 43.7107 196.92 71.1714 203.539 98.2537C204.019 100.224 204.459 102.188 204.869 104.151C210.848 133.147 211.158 162.643 220.687 190.147C225.786 204.862 234.026 220.335 252.363 228.439C274.351 238.164 303.487 234.201 326.785 226.318C342.643 220.956 357.351 213.959 372.879 208.318C380.169 205.669 387.648 203.32 395.497 201.578C445.451 190.496 502.194 207.268 537.32 235.393C572.446 263.525 589.284 300.932 598.313 338.053" stroke="url(#paint24_linear_979_6308)" stroke-width="0.8669" stroke-miterlimit="10"/>
<path opacity="0.54" d="M29.1579 -68.3746C15.9294 -56.565 18.6791 -38.8219 30.3578 -26.1197C31.3976 -24.9844 32.5175 -23.892 33.6874 -22.8424C45.736 -12.1037 63.044 -5.28493 80.9419 0.105824C84.3715 1.14114 87.8311 2.11934 91.2907 3.06897C107.539 7.52438 124.297 11.5585 139.405 17.649C144.255 19.6054 148.934 21.7688 153.353 24.2179C183.59 40.9257 198.088 68.3864 204.407 95.5116C204.867 97.4822 205.287 99.4529 205.667 101.416C211.277 130.448 210.647 160.008 219.446 187.954C224.205 203.084 232.484 218.999 251.062 227.339C273.349 237.342 303.026 233.215 326.653 225.018C342.731 219.442 357.63 212.166 373.378 206.268C380.777 203.505 388.356 201.042 396.335 199.207C447.099 187.533 504.973 204.519 540.618 233.151C576.264 261.783 593.132 299.903 602.171 337.66" stroke="url(#paint25_linear_979_6308)" stroke-width="0.8669" stroke-miterlimit="10"/>
<path opacity="0.54" d="M31.5484 -72.187C18.32 -60.3988 20.8797 -42.6985 32.3883 -29.8892C33.4182 -28.7468 34.5081 -27.6401 35.678 -26.5834C47.5866 -15.7376 64.7746 -8.75456 82.6125 -3.21386C86.0321 -2.14999 89.4817 -1.14326 92.9213 -0.165074C109.109 4.426 125.817 8.57441 140.876 14.722C145.715 16.6927 150.365 18.8704 154.784 21.3266C184.951 38.1201 199.299 65.5736 205.328 92.7488C205.768 94.7266 206.158 96.6972 206.518 98.6679C211.757 127.742 210.188 157.352 218.257 185.741C222.676 201.285 230.995 217.65 249.823 226.225C272.41 236.514 302.627 232.216 326.584 223.705C342.892 217.914 357.97 210.353 373.949 204.213C381.448 201.328 389.147 198.758 397.256 196.83C448.83 184.563 507.833 201.771 543.999 230.902C580.165 260.041 597.073 298.869 606.112 337.261" stroke="url(#paint26_linear_979_6308)" stroke-width="0.8669" stroke-miterlimit="10"/>
<path opacity="0.54" d="M33.9375 -76.0001C19.5192 -63.1765 23.6287 -43.3771 37.6471 -30.325C51.6654 -17.2801 73.2229 -9.63302 94.5305 -3.3926C115.838 2.84783 138.085 8.29569 156.193 18.4489C188.47 36.5561 202.468 66.8229 207.327 95.9259C212.197 125.036 209.667 154.696 217.026 183.535C221.096 199.493 229.475 216.3 248.543 225.111C271.43 235.686 302.186 231.216 326.484 222.384C350.781 213.552 372.348 200.778 398.125 194.445C450.509 181.578 510.642 199.007 547.328 228.646C584.014 258.284 600.952 297.826 610.001 336.854" stroke="url(#paint27_linear_979_6308)" stroke-width="0.8669" stroke-miterlimit="10"/>
<defs>
<linearGradient id="paint0_linear_979_6308" x1="510.63" y1="354.084" x2="134.212" y2="-113.623" gradientUnits="userSpaceOnUse">
<stop stop-color="#7ED4EF"/>
<stop offset="0.2294" stop-color="#66BFE6"/>
<stop offset="0.711" stop-color="#298BD0"/>
<stop offset="1" stop-color="#0169C2"/>
</linearGradient>
<linearGradient id="paint1_linear_979_6308" x1="510.63" y1="354.084" x2="134.212" y2="-113.623" gradientUnits="userSpaceOnUse">
<stop stop-color="#7ED4EF"/>
<stop offset="0.2294" stop-color="#66BFE6"/>
<stop offset="0.711" stop-color="#298BD0"/>
<stop offset="1" stop-color="#0169C2"/>
</linearGradient>
<linearGradient id="paint2_linear_979_6308" x1="507.63" y1="357.354" x2="131.212" y2="-110.353" gradientUnits="userSpaceOnUse">
<stop stop-color="#7ED4EF"/>
<stop offset="0.2294" stop-color="#66BFE6"/>
<stop offset="0.711" stop-color="#298BD0"/>
<stop offset="1" stop-color="#0169C2"/>
</linearGradient>
<linearGradient id="paint3_linear_979_6308" x1="504.63" y1="360.354" x2="128.212" y2="-107.353" gradientUnits="userSpaceOnUse">
<stop stop-color="#7ED4EF"/>
<stop offset="0.2294" stop-color="#66BFE6"/>
<stop offset="0.711" stop-color="#298BD0"/>
<stop offset="1" stop-color="#0169C2"/>
</linearGradient>
<linearGradient id="paint4_linear_979_6308" x1="501.63" y1="362.354" x2="125.212" y2="-105.353" gradientUnits="userSpaceOnUse">
<stop stop-color="#7ED4EF"/>
<stop offset="0.2294" stop-color="#66BFE6"/>
<stop offset="0.711" stop-color="#298BD0"/>
<stop offset="1" stop-color="#0169C2"/>
</linearGradient>
<linearGradient id="paint5_linear_979_6308" x1="514.4" y1="353.793" x2="135.717" y2="-116.727" gradientUnits="userSpaceOnUse">
<stop stop-color="#7ED4EF"/>
<stop offset="0.2294" stop-color="#66BFE6"/>
<stop offset="0.711" stop-color="#298BD0"/>
<stop offset="1" stop-color="#0169C2"/>
</linearGradient>
<linearGradient id="paint6_linear_979_6308" x1="518.113" y1="353.544" x2="137.167" y2="-119.789" gradientUnits="userSpaceOnUse">
<stop stop-color="#7ED4EF"/>
<stop offset="0.2294" stop-color="#66BFE6"/>
<stop offset="0.711" stop-color="#298BD0"/>
<stop offset="1" stop-color="#0169C2"/>
</linearGradient>
<linearGradient id="paint7_linear_979_6308" x1="521.795" y1="353.323" x2="138.584" y2="-122.824" gradientUnits="userSpaceOnUse">
<stop stop-color="#7ED4EF"/>
<stop offset="0.2294" stop-color="#66BFE6"/>
<stop offset="0.711" stop-color="#298BD0"/>
<stop offset="1" stop-color="#0169C2"/>
</linearGradient>
<linearGradient id="paint8_linear_979_6308" x1="525.451" y1="353.121" x2="139.977" y2="-125.838" gradientUnits="userSpaceOnUse">
<stop stop-color="#7ED4EF"/>
<stop offset="0.2294" stop-color="#66BFE6"/>
<stop offset="0.711" stop-color="#298BD0"/>
<stop offset="1" stop-color="#0169C2"/>
</linearGradient>
<linearGradient id="paint9_linear_979_6308" x1="529.089" y1="352.936" x2="141.35" y2="-128.836" gradientUnits="userSpaceOnUse">
<stop stop-color="#7ED4EF"/>
<stop offset="0.2294" stop-color="#66BFE6"/>
<stop offset="0.711" stop-color="#298BD0"/>
<stop offset="1" stop-color="#0169C2"/>
</linearGradient>
<linearGradient id="paint10_linear_979_6308" x1="532.711" y1="352.763" x2="142.709" y2="-131.822" gradientUnits="userSpaceOnUse">
<stop stop-color="#7ED4EF"/>
<stop offset="0.2294" stop-color="#66BFE6"/>
<stop offset="0.711" stop-color="#298BD0"/>
<stop offset="1" stop-color="#0169C2"/>
</linearGradient>
<linearGradient id="paint11_linear_979_6308" x1="536.322" y1="352.598" x2="144.056" y2="-134.799" gradientUnits="userSpaceOnUse">
<stop stop-color="#7ED4EF"/>
<stop offset="0.2294" stop-color="#66BFE6"/>
<stop offset="0.711" stop-color="#298BD0"/>
<stop offset="1" stop-color="#0169C2"/>
</linearGradient>
<linearGradient id="paint12_linear_979_6308" x1="539.923" y1="352.441" x2="145.393" y2="-137.769" gradientUnits="userSpaceOnUse">
<stop stop-color="#7ED4EF"/>
<stop offset="0.2294" stop-color="#66BFE6"/>
<stop offset="0.711" stop-color="#298BD0"/>
<stop offset="1" stop-color="#0169C2"/>
</linearGradient>
<linearGradient id="paint13_linear_979_6308" x1="543.515" y1="352.291" x2="146.721" y2="-140.732" gradientUnits="userSpaceOnUse">
<stop stop-color="#7ED4EF"/>
<stop offset="0.2294" stop-color="#66BFE6"/>
<stop offset="0.711" stop-color="#298BD0"/>
<stop offset="1" stop-color="#0169C2"/>
</linearGradient>
<linearGradient id="paint14_linear_979_6308" x1="547.101" y1="352.145" x2="148.044" y2="-143.691" gradientUnits="userSpaceOnUse">
<stop stop-color="#7ED4EF"/>
<stop offset="0.2294" stop-color="#66BFE6"/>
<stop offset="0.711" stop-color="#298BD0"/>
<stop offset="1" stop-color="#0169C2"/>
</linearGradient>
<linearGradient id="paint15_linear_979_6308" x1="550.684" y1="352.004" x2="149.363" y2="-146.645" gradientUnits="userSpaceOnUse">
<stop stop-color="#7ED4EF"/>
<stop offset="0.2294" stop-color="#66BFE6"/>
<stop offset="0.711" stop-color="#298BD0"/>
<stop offset="1" stop-color="#0169C2"/>
</linearGradient>
<linearGradient id="paint16_linear_979_6308" x1="554.261" y1="351.866" x2="150.676" y2="-149.595" gradientUnits="userSpaceOnUse">
<stop stop-color="#7ED4EF"/>
<stop offset="0.2294" stop-color="#66BFE6"/>
<stop offset="0.711" stop-color="#298BD0"/>
<stop offset="1" stop-color="#0169C2"/>
</linearGradient>
<linearGradient id="paint17_linear_979_6308" x1="557.836" y1="351.73" x2="151.987" y2="-152.543" gradientUnits="userSpaceOnUse">
<stop stop-color="#7ED4EF"/>
<stop offset="0.2294" stop-color="#66BFE6"/>
<stop offset="0.711" stop-color="#298BD0"/>
<stop offset="1" stop-color="#0169C2"/>
</linearGradient>
<linearGradient id="paint18_linear_979_6308" x1="561.403" y1="351.598" x2="153.291" y2="-155.488" gradientUnits="userSpaceOnUse">
<stop stop-color="#7ED4EF"/>
<stop offset="0.2294" stop-color="#66BFE6"/>
<stop offset="0.711" stop-color="#298BD0"/>
<stop offset="1" stop-color="#0169C2"/>
</linearGradient>
<linearGradient id="paint19_linear_979_6308" x1="564.974" y1="351.468" x2="154.599" y2="-158.431" gradientUnits="userSpaceOnUse">
<stop stop-color="#7ED4EF"/>
<stop offset="0.2294" stop-color="#66BFE6"/>
<stop offset="0.711" stop-color="#298BD0"/>
<stop offset="1" stop-color="#0169C2"/>
</linearGradient>
<linearGradient id="paint20_linear_979_6308" x1="568.539" y1="351.339" x2="155.9" y2="-161.372" gradientUnits="userSpaceOnUse">
<stop stop-color="#7ED4EF"/>
<stop offset="0.2294" stop-color="#66BFE6"/>
<stop offset="0.711" stop-color="#298BD0"/>
<stop offset="1" stop-color="#0169C2"/>
</linearGradient>
<linearGradient id="paint21_linear_979_6308" x1="572.101" y1="351.212" x2="157.198" y2="-164.312" gradientUnits="userSpaceOnUse">
<stop stop-color="#7ED4EF"/>
<stop offset="0.2294" stop-color="#66BFE6"/>
<stop offset="0.711" stop-color="#298BD0"/>
<stop offset="1" stop-color="#0169C2"/>
</linearGradient>
<linearGradient id="paint22_linear_979_6308" x1="575.663" y1="351.086" x2="158.497" y2="-167.25" gradientUnits="userSpaceOnUse">
<stop stop-color="#7ED4EF"/>
<stop offset="0.2294" stop-color="#66BFE6"/>
<stop offset="0.711" stop-color="#298BD0"/>
<stop offset="1" stop-color="#0169C2"/>
</linearGradient>
<linearGradient id="paint23_linear_979_6308" x1="579.222" y1="350.962" x2="159.793" y2="-170.186" gradientUnits="userSpaceOnUse">
<stop stop-color="#7ED4EF"/>
<stop offset="0.2294" stop-color="#66BFE6"/>
<stop offset="0.711" stop-color="#298BD0"/>
<stop offset="1" stop-color="#0169C2"/>
</linearGradient>
<linearGradient id="paint24_linear_979_6308" x1="582.781" y1="350.839" x2="161.088" y2="-173.121" gradientUnits="userSpaceOnUse">
<stop stop-color="#7ED4EF"/>
<stop offset="0.2294" stop-color="#66BFE6"/>
<stop offset="0.711" stop-color="#298BD0"/>
<stop offset="1" stop-color="#0169C2"/>
</linearGradient>
<linearGradient id="paint25_linear_979_6308" x1="586.336" y1="350.717" x2="162.38" y2="-176.056" gradientUnits="userSpaceOnUse">
<stop stop-color="#7ED4EF"/>
<stop offset="0.2294" stop-color="#66BFE6"/>
<stop offset="0.711" stop-color="#298BD0"/>
<stop offset="1" stop-color="#0169C2"/>
</linearGradient>
<linearGradient id="paint26_linear_979_6308" x1="589.893" y1="350.597" x2="163.673" y2="-178.989" gradientUnits="userSpaceOnUse">
<stop stop-color="#7ED4EF"/>
<stop offset="0.2294" stop-color="#66BFE6"/>
<stop offset="0.711" stop-color="#298BD0"/>
<stop offset="1" stop-color="#0169C2"/>
</linearGradient>
<linearGradient id="paint27_linear_979_6308" x1="593.446" y1="350.476" x2="164.963" y2="-181.922" gradientUnits="userSpaceOnUse">
<stop stop-color="#7ED4EF"/>
<stop offset="0.2294" stop-color="#66BFE6"/>
<stop offset="0.711" stop-color="#298BD0"/>
<stop offset="1" stop-color="#0169C2"/>
</linearGradient>
</defs>
</svg>
