<svg width="1440" height="250" viewBox="0 0 1440 250" fill="none" xmlns="http://www.w3.org/2000/svg">
<g clip-path="url(#clip0_629_6255)">
<path opacity="0.54" d="M312.033 170.73C298.905 182.911 305.464 201.604 320.922 212.128C322.302 213.071 323.742 213.956 325.222 214.792C340.34 223.324 360.038 226.737 379.246 228.808C382.945 229.207 386.665 229.564 390.384 229.914C407.862 231.556 425.56 233.106 441.828 238.04C447.098 239.632 452.067 241.538 456.767 243.73C488.513 258.596 506.151 286.185 518.699 312.325C519.609 314.224 520.519 316.131 521.419 318.044C534.808 346.312 550.156 374.265 578.013 393.265C587.521 399.748 597.3 406.238 610.749 409.637C626.727 413.693 645.085 413.093 661.713 411.558C673.051 410.515 684.05 409.08 695.129 408.416C700.338 408.109 705.568 407.973 710.867 408.102C744.613 408.93 778.779 421.283 803.486 439.326C828.223 457.397 844.432 480.581 853.321 505" stroke="url(#paint0_linear_629_6255)" stroke-width="0.8669" stroke-miterlimit="10"/>
<path opacity="0.54" d="M312.033 170.73C298.905 182.911 305.464 201.604 320.922 212.128C322.302 213.071 323.742 213.956 325.222 214.792C340.34 223.324 360.038 226.737 379.246 228.808C382.945 229.207 386.665 229.564 390.384 229.914C407.862 231.556 425.56 233.106 441.828 238.04C447.098 239.632 452.067 241.538 456.767 243.73C488.513 258.596 506.151 286.185 518.699 312.325C519.609 314.224 520.519 316.131 521.419 318.044C534.808 346.312 550.156 374.265 578.013 393.265C587.521 399.748 597.3 406.238 610.749 409.637C626.727 413.693 645.085 413.093 661.713 411.558C673.051 410.515 684.05 409.08 695.129 408.416C700.338 408.109 705.568 407.973 710.867 408.102C744.613 408.93 778.779 421.283 803.486 439.326C828.223 457.397 844.432 480.581 853.321 505" stroke="url(#paint1_linear_629_6255)" stroke-width="0.8669" stroke-miterlimit="10"/>
<path opacity="0.54" d="M309.033 174C295.905 186.181 302.464 204.874 317.922 215.398C319.302 216.341 320.742 217.226 322.222 218.062C337.34 226.594 357.038 230.007 376.246 232.078C379.945 232.477 383.665 232.834 387.384 233.184C404.862 234.826 422.56 236.376 438.828 241.31C444.098 242.902 449.067 244.808 453.767 247C485.513 261.866 503.151 289.455 515.699 315.595C516.609 317.494 517.519 319.401 518.419 321.314C531.808 349.582 547.156 377.535 575.013 396.535C584.521 403.018 594.3 409.508 607.749 412.907C623.727 416.963 642.085 416.363 658.713 414.828C670.051 413.785 681.05 412.35 692.129 411.686C697.338 411.379 702.568 411.244 707.867 411.372C741.613 412.2 775.779 424.553 800.486 442.596C825.223 460.667 841.432 483.851 850.321 508.27" stroke="url(#paint2_linear_629_6255)" stroke-width="0.8669" stroke-miterlimit="10"/>
<path opacity="0.54" d="M306.033 177C292.905 189.181 299.464 207.874 314.922 218.398C316.302 219.341 317.742 220.226 319.222 221.062C334.34 229.594 354.038 233.007 373.246 235.078C376.945 235.477 380.665 235.834 384.384 236.184C401.862 237.826 419.56 239.376 435.828 244.31C441.098 245.902 446.067 247.808 450.767 250C482.513 264.866 500.151 292.455 512.699 318.595C513.609 320.494 514.519 322.401 515.419 324.314C528.808 352.582 544.156 380.535 572.013 399.535C581.521 406.018 591.3 412.508 604.749 415.907C620.727 419.963 639.085 419.363 655.713 417.828C667.051 416.785 678.05 415.35 689.129 414.686C694.338 414.379 699.568 414.244 704.867 414.372C738.613 415.2 772.779 427.553 797.486 445.596C822.223 463.667 838.432 486.851 847.321 511.27" stroke="url(#paint3_linear_629_6255)" stroke-width="0.8669" stroke-miterlimit="10"/>
<path opacity="0.54" d="M303.033 179C289.905 191.181 296.464 209.874 311.922 220.398C313.302 221.341 314.742 222.226 316.222 223.062C331.34 231.594 351.038 235.007 370.246 237.078C373.945 237.477 377.665 237.834 381.384 238.184C398.862 239.826 416.56 241.376 432.828 246.31C438.098 247.902 443.067 249.808 447.767 252C479.513 266.866 497.151 294.455 509.699 320.595C510.609 322.494 511.519 324.401 512.419 326.314C525.808 354.582 541.156 382.535 569.013 401.535C578.521 408.018 588.3 414.508 601.749 417.907C617.727 421.963 636.085 421.363 652.713 419.828C664.051 418.785 675.05 417.35 686.129 416.686C691.338 416.379 696.568 416.244 701.867 416.372C735.613 417.2 769.779 429.553 794.486 447.596C819.223 465.667 835.432 488.851 844.321 513.27" stroke="url(#paint4_linear_629_6255)" stroke-width="0.8669" stroke-miterlimit="10"/>
<path opacity="0.54" d="M314.424 166.917C301.286 179.084 307.675 197.727 322.943 208.358C324.313 209.308 325.733 210.208 327.193 211.05C342.161 219.682 361.749 223.26 380.897 225.487C384.586 225.916 388.296 226.301 392.005 226.68C409.423 228.458 427.071 230.121 443.289 235.112C448.539 236.726 453.498 238.639 458.178 240.846C489.854 255.797 507.342 283.379 519.601 309.569C520.49 311.468 521.37 313.382 522.25 315.295C535.269 343.598 550.087 371.53 576.804 391.051C586.183 397.906 595.792 404.889 609.49 408.523C625.768 412.864 644.666 412.1 661.634 410.244C673.203 408.98 684.381 407.274 695.69 406.36C700.999 405.931 706.349 405.689 711.778 405.724C746.334 405.953 781.63 418.526 806.857 437.076C832.114 455.648 848.362 479.546 857.251 504.6" stroke="url(#paint5_linear_629_6255)" stroke-width="0.8669" stroke-miterlimit="10"/>
<path opacity="0.54" d="M316.811 163.104C303.672 175.25 309.872 193.857 324.96 204.581C326.31 205.538 327.71 206.445 329.169 207.301C343.998 216.041 363.466 219.782 382.553 222.167C386.223 222.624 389.922 223.038 393.622 223.445C410.98 225.352 428.588 227.144 444.746 232.185C449.975 233.813 454.915 235.74 459.584 237.961C491.191 252.998 508.529 280.573 520.487 306.813C521.357 308.719 522.217 310.633 523.067 312.546C535.715 340.885 549.984 368.824 575.581 388.845C584.83 396.078 594.269 403.539 608.217 407.409C624.795 412.036 644.233 411.101 661.531 408.923C673.33 407.445 684.688 405.46 696.217 404.296C701.636 403.754 707.086 403.397 712.645 403.339C748.011 402.975 784.437 415.77 810.184 434.827C835.961 453.905 852.239 478.51 861.138 504.2" stroke="url(#paint6_linear_629_6255)" stroke-width="0.8669" stroke-miterlimit="10"/>
<path opacity="0.54" d="M319.191 159.292C306.042 171.423 312.062 189.98 326.98 200.811C328.31 201.783 329.7 202.696 331.139 203.56C345.818 212.407 365.176 216.305 384.193 218.847C387.853 219.333 391.542 219.783 395.222 220.218C412.52 222.26 430.088 224.167 446.196 229.265C451.405 230.914 456.335 232.849 460.994 235.084C492.531 250.214 509.709 277.781 521.377 304.064C522.227 305.971 523.057 307.891 523.887 309.812C536.166 338.187 549.854 366.147 574.361 386.646C583.47 394.265 592.749 402.204 606.937 406.31C623.815 411.215 643.793 410.116 661.421 407.624C673.44 405.932 684.988 403.668 696.737 402.254C702.256 401.59 707.826 401.126 713.515 400.976C749.691 400.02 787.246 413.036 813.513 432.593C839.81 452.171 856.119 477.489 865.027 503.815" stroke="url(#paint7_linear_629_6255)" stroke-width="0.8669" stroke-miterlimit="10"/>
<path opacity="0.54" d="M321.581 155.472C308.433 167.581 314.272 186.095 329 197.034C330.32 198.012 331.69 198.94 333.12 199.819C347.648 208.772 366.896 212.835 385.854 215.534C389.503 216.055 393.173 216.526 396.842 216.991C414.08 219.168 431.598 221.189 447.656 226.344C452.846 228.008 457.765 229.964 462.405 232.206C493.871 247.422 510.899 274.982 522.268 301.315C523.098 303.228 523.908 305.149 524.708 307.07C536.616 335.487 549.695 363.491 573.142 384.447C582.111 392.458 591.24 400.862 605.668 405.203C622.846 410.394 643.364 409.123 661.332 406.317C673.58 404.41 685.319 401.861 697.287 400.205C702.917 399.427 708.596 398.848 714.406 398.606C751.391 397.049 790.077 410.287 816.864 430.35C843.68 450.435 860.019 476.461 868.928 503.422" stroke="url(#paint8_linear_629_6255)" stroke-width="0.8669" stroke-miterlimit="10"/>
<path opacity="0.54" d="M323.971 151.659C310.813 163.754 316.472 182.219 331.031 193.264C332.33 194.25 333.69 195.185 335.1 196.077C349.488 205.131 368.616 209.358 387.514 212.214C391.154 212.764 394.803 213.271 398.463 213.756C415.641 216.07 433.119 218.212 449.117 223.417C454.286 225.095 459.186 227.065 463.815 229.322C495.202 244.623 512.09 272.184 523.158 298.559C523.958 300.473 524.748 302.4 525.528 304.321C537.067 332.774 549.515 360.835 571.933 382.234C580.742 390.645 589.731 399.513 604.409 404.089C621.887 409.566 642.944 408.124 661.242 404.996C673.711 402.868 685.639 400.048 697.828 398.142C703.557 397.249 709.347 396.564 715.286 396.221C753.082 394.072 792.897 407.531 820.204 428.094C847.541 448.679 863.909 475.419 872.828 503.015" stroke="url(#paint9_linear_629_6255)" stroke-width="0.8669" stroke-miterlimit="10"/>
<path opacity="0.54" d="M326.352 147.846C313.193 159.92 318.662 178.341 333.041 189.487C334.321 190.48 335.67 191.429 337.06 192.329C351.299 201.49 370.316 205.881 389.154 208.894C392.774 209.472 396.423 210.008 400.073 210.529C417.201 212.971 434.629 215.234 450.567 220.497C455.716 222.196 460.606 224.174 465.225 226.437C496.542 241.824 513.28 269.377 524.059 295.803C524.838 297.724 525.608 299.651 526.358 301.572C537.527 330.061 549.326 358.2 570.723 380.027C579.372 388.845 588.221 398.163 603.139 402.975C620.917 408.73 642.505 407.124 661.143 403.682C673.841 401.34 685.95 398.242 698.368 396.085C704.198 395.071 710.107 394.279 716.176 393.843C754.782 391.102 795.727 404.775 823.554 425.845C851.41 446.937 867.809 474.383 876.738 502.615" stroke="url(#paint10_linear_629_6255)" stroke-width="0.8669" stroke-miterlimit="10"/>
<path opacity="0.54" d="M328.742 144.033C315.574 156.093 320.873 174.464 335.062 185.717C336.331 186.724 337.661 187.681 339.041 188.587C353.139 197.855 372.037 202.403 390.805 205.581C394.415 206.188 398.044 206.752 401.684 207.301C418.752 209.879 436.13 212.257 452.018 217.576C457.147 219.29 462.017 221.282 466.626 223.559C497.873 239.039 514.461 266.585 524.94 293.054C525.699 294.974 526.439 296.902 527.169 298.837C537.968 327.362 549.077 355.594 569.494 377.828C577.963 387.053 586.692 396.828 601.861 401.876C619.939 407.916 642.066 406.138 661.034 402.383C673.952 399.826 686.251 396.449 698.889 394.043C704.829 392.915 710.838 392.008 717.037 391.48C756.453 388.138 798.528 402.04 826.874 423.61C855.251 445.202 871.679 473.362 880.618 502.229" stroke="url(#paint11_linear_629_6255)" stroke-width="0.8669" stroke-miterlimit="10"/>
<path opacity="0.54" d="M331.132 140.213C317.964 152.251 323.073 170.587 337.092 181.94C338.342 182.954 339.651 183.918 341.021 184.839C354.97 194.214 373.757 198.919 392.465 202.253C396.065 202.896 399.684 203.489 403.304 204.067C420.312 206.78 437.65 209.279 453.478 214.648C458.588 216.384 463.447 218.383 468.036 220.675C499.213 236.24 515.651 263.779 525.83 290.298C526.57 292.225 527.29 294.153 527.99 296.088C538.418 324.649 548.827 352.973 568.275 375.622C576.554 385.261 585.183 395.478 600.591 400.762C618.969 407.088 641.636 405.139 660.944 401.069C674.093 398.298 686.571 394.636 699.43 391.987C705.469 390.737 711.598 389.723 717.917 389.102C758.143 385.168 801.348 399.284 830.214 421.361C859.111 443.459 875.569 472.327 884.518 501.83" stroke="url(#paint12_linear_629_6255)" stroke-width="0.8669" stroke-miterlimit="10"/>
<path opacity="0.54" d="M333.521 136.4C320.352 148.424 325.272 166.71 339.11 178.163C340.35 179.184 341.64 180.162 343 181.09C356.798 190.565 375.476 195.442 394.124 198.933C397.713 199.604 401.313 200.226 404.922 200.833C421.87 203.681 439.168 206.295 454.937 211.721C460.026 213.47 464.875 215.484 469.455 217.79C500.561 233.441 516.849 260.973 526.728 287.542C527.448 289.469 528.138 291.404 528.818 293.339C538.877 321.935 548.546 350.36 567.064 373.408C575.143 383.469 583.672 394.129 599.32 399.641C617.998 406.245 641.205 404.132 660.843 399.741C674.211 396.756 686.88 392.815 699.968 389.916C706.117 388.552 712.357 387.424 718.806 386.71C759.841 382.176 804.176 396.521 833.563 419.098C862.979 441.696 879.467 471.277 888.416 501.416" stroke="url(#paint13_linear_629_6255)" stroke-width="0.8669" stroke-miterlimit="10"/>
<path opacity="0.54" d="M335.899 132.588C322.721 144.59 327.47 162.833 341.129 174.393C342.349 175.428 343.629 176.414 344.968 177.349C358.627 186.931 377.185 191.965 395.772 195.613C399.342 196.313 402.942 196.97 406.531 197.598C423.419 200.583 440.667 203.31 456.395 208.794C461.465 210.557 466.294 212.592 470.864 214.906C501.89 230.65 518.038 258.175 527.617 284.786C528.317 286.721 528.987 288.656 529.637 290.591C539.326 319.222 548.245 347.761 565.843 371.202C573.712 381.684 582.151 392.779 598.049 398.534C617.027 405.424 640.774 403.147 660.742 398.434C674.34 395.228 687.199 391.016 700.497 387.86C706.746 386.382 713.096 385.139 719.675 384.333C761.53 379.206 806.985 393.765 836.891 416.856C866.828 439.954 883.346 470.249 892.305 501.023" stroke="url(#paint14_linear_629_6255)" stroke-width="0.8669" stroke-miterlimit="10"/>
<path opacity="0.54" d="M338.291 128.775C325.112 140.763 329.672 158.956 343.15 170.623C344.35 171.665 345.62 172.658 346.94 173.607C360.448 183.296 378.896 188.494 397.424 192.3C400.983 193.028 404.563 193.714 408.153 194.378C424.981 197.491 442.189 200.347 457.857 205.888C462.906 207.673 467.726 209.715 472.275 212.035C503.232 227.865 519.22 255.383 528.519 282.044C529.189 283.979 529.848 285.921 530.478 287.863C539.797 316.53 547.936 345.176 564.644 369.01C572.284 379.913 580.653 391.451 596.801 397.435C616.078 404.61 640.366 402.161 660.663 397.135C674.492 393.715 687.53 389.223 701.049 385.818C707.408 384.218 713.867 382.869 720.576 381.969C763.241 376.25 809.826 391.03 840.252 414.621C870.709 438.226 887.267 469.228 896.226 500.637" stroke="url(#paint15_linear_629_6255)" stroke-width="0.8669" stroke-miterlimit="10"/>
<path opacity="0.54" d="M340.68 124.955C327.492 136.922 331.871 155.072 345.17 166.846C346.359 167.896 347.609 168.902 348.919 169.859C362.288 179.648 380.615 185.01 399.073 188.98C402.623 189.744 406.193 190.451 409.762 191.144C426.53 194.392 443.698 197.363 459.306 202.96C464.336 204.76 469.135 206.816 473.675 209.151C504.561 225.066 520.399 252.584 529.398 279.288C530.048 281.23 530.678 283.172 531.288 285.114C540.227 313.817 547.576 342.57 563.414 366.797C570.823 378.121 579.132 390.095 595.511 396.321C615.088 403.775 639.915 401.162 660.553 395.814C674.601 392.18 687.83 387.41 701.578 383.754C708.037 382.041 714.617 380.577 721.446 379.585C764.921 373.266 812.635 388.267 843.582 412.365C874.558 436.47 891.146 468.193 900.115 500.23" stroke="url(#paint16_linear_629_6255)" stroke-width="0.8669" stroke-miterlimit="10"/>
<path opacity="0.54" d="M343.071 121.142C329.882 133.095 334.082 151.202 347.2 163.069C348.37 164.126 349.61 165.147 350.9 166.11C364.118 176.007 382.336 181.533 400.734 185.653C404.274 186.445 407.823 187.188 411.383 187.909C428.101 191.294 445.209 194.378 460.767 200.033C465.777 201.854 470.566 203.917 475.095 206.266C505.912 222.274 521.6 249.778 530.299 276.532C530.929 278.474 531.539 280.423 532.119 282.365C540.688 311.111 547.217 339.971 562.205 364.59C569.365 376.343 577.624 388.752 594.252 395.207C614.129 402.947 639.496 400.162 660.464 394.5C674.742 390.652 688.151 385.596 702.119 381.698C708.678 379.87 715.368 378.292 722.327 377.207C766.612 370.295 815.446 385.518 846.922 410.115C878.419 434.727 895.037 467.158 904.016 499.831" stroke="url(#paint17_linear_629_6255)" stroke-width="0.8669" stroke-miterlimit="10"/>
<path opacity="0.54" d="M345.448 117.33C332.249 129.261 336.269 147.325 349.207 159.299C350.367 160.37 351.587 161.391 352.857 162.369C365.925 172.372 384.033 178.056 402.371 182.34C405.891 183.161 409.44 183.932 412.98 184.682C429.638 188.202 446.706 191.401 462.204 197.113C467.194 198.948 471.973 201.026 476.483 203.389C507.229 219.483 522.767 246.986 531.166 273.783C531.776 275.732 532.356 277.681 532.916 279.624C541.115 308.405 546.794 337.373 560.963 362.384C567.862 374.558 576.081 387.403 592.959 394.1C613.147 402.126 639.044 399.17 660.341 393.194C674.84 389.124 688.438 383.797 702.636 379.649C709.306 377.7 716.105 376.015 723.194 374.836C768.289 367.332 818.253 382.769 850.249 407.874C882.265 432.985 898.913 466.13 907.892 499.438" stroke="url(#paint18_linear_629_6255)" stroke-width="0.8669" stroke-miterlimit="10"/>
<path opacity="0.54" d="M347.841 113.517C334.643 125.434 338.472 143.448 351.241 155.529C352.381 156.607 353.58 157.643 354.85 158.628C367.779 168.738 385.767 174.586 404.045 179.02C407.554 179.87 411.084 180.676 414.613 181.448C431.211 185.096 448.239 188.423 463.678 194.186C468.647 196.042 473.406 198.127 477.906 200.504C508.572 216.684 523.971 244.18 532.07 271.027C532.66 272.976 533.22 274.933 533.749 276.882C541.579 305.699 546.408 334.767 559.756 360.185C566.376 372.787 574.575 386.068 591.693 392.994C612.18 401.298 638.617 398.178 660.255 391.887C674.983 387.603 688.761 381.998 703.18 377.6C709.949 375.536 716.858 373.744 724.077 372.466C769.982 364.362 821.076 380.027 853.592 405.632C886.119 431.25 902.807 465.101 911.795 499.045" stroke="url(#paint19_linear_629_6255)" stroke-width="0.8669" stroke-miterlimit="10"/>
<path opacity="0.54" d="M350.23 109.697C337.021 121.592 340.681 139.564 353.26 151.745C354.379 152.83 355.569 153.88 356.819 154.872C369.598 165.082 387.476 171.094 405.683 175.692C409.183 176.571 412.703 177.406 416.222 178.213C432.76 181.997 449.738 185.439 465.127 191.258C470.076 193.129 474.825 195.228 479.315 197.62C509.911 213.892 525.16 241.374 532.959 268.271C533.529 270.227 534.059 272.183 534.568 274.133C542.028 302.986 545.977 332.153 558.546 357.972C564.885 370.995 573.074 384.718 590.432 391.88C611.22 400.469 638.196 397.178 660.164 390.566C675.112 386.068 689.081 380.184 703.719 375.536C710.598 373.351 717.617 371.452 724.966 370.081C771.681 361.384 823.905 377.264 856.941 403.375C889.987 429.494 906.705 464.059 915.704 498.638" stroke="url(#paint20_linear_629_6255)" stroke-width="0.8669" stroke-miterlimit="10"/>
<path opacity="0.54" d="M352.619 105.884C339.41 117.765 342.88 135.686 355.288 147.975C356.398 149.074 357.568 150.124 358.808 151.138C371.447 161.455 389.205 167.631 407.352 172.386C410.832 173.3 414.342 174.157 417.851 174.993C434.329 178.912 451.267 182.468 466.606 188.344C471.535 190.229 476.264 192.35 480.744 194.742C511.27 211.1 526.369 238.582 533.878 265.522C534.428 267.478 534.938 269.434 535.418 271.391C542.507 300.279 545.566 329.54 557.355 355.772C563.394 369.224 571.583 383.376 589.191 390.773C610.279 399.648 637.796 396.185 660.093 389.259C675.271 384.547 689.43 378.378 704.288 373.487C711.267 371.188 718.406 369.174 725.875 367.71C773.4 358.414 826.754 374.522 860.32 401.14C893.886 427.758 910.634 463.038 919.643 498.252" stroke="url(#paint21_linear_629_6255)" stroke-width="0.8669" stroke-miterlimit="10"/>
<path opacity="0.54" d="M354.999 102.071C341.781 113.931 345.081 131.817 357.299 144.205C358.389 145.311 359.549 146.375 360.769 147.396C373.257 157.821 390.905 164.154 408.993 169.066C412.463 170.009 415.962 170.901 419.452 171.758C435.87 175.814 452.768 179.491 468.046 185.417C472.956 187.324 477.675 189.451 482.135 191.858C512.591 208.301 527.539 235.776 534.749 262.766C535.268 264.729 535.758 266.686 536.218 268.649C542.938 297.574 545.097 326.919 556.116 353.566C561.855 367.439 570.044 382.034 587.892 389.666C609.28 398.82 637.337 395.193 659.964 387.953C675.362 383.026 689.711 376.579 704.789 371.438C711.868 369.024 719.117 366.897 726.716 365.34C775.051 355.451 829.534 371.78 863.62 398.898C897.706 426.024 914.484 462.01 923.503 497.86" stroke="url(#paint22_linear_629_6255)" stroke-width="0.8669" stroke-miterlimit="10"/>
<path opacity="0.54" d="M357.389 98.2584C344.17 110.104 347.28 127.94 359.319 140.435C360.399 141.549 361.538 142.627 362.738 143.655C375.087 154.179 392.615 160.677 410.643 165.754C414.102 166.725 417.582 167.646 421.062 168.538C437.42 172.729 454.268 176.521 469.496 182.504C474.385 184.425 479.095 186.567 483.544 188.987C513.931 205.517 528.719 232.992 535.638 260.024C536.138 261.988 536.608 263.951 537.038 265.915C543.387 294.875 544.627 324.299 554.896 351.374C560.315 365.669 568.534 380.698 586.622 388.567C608.31 398.006 636.906 394.215 659.874 386.646C675.502 381.498 690.03 374.779 705.338 369.389C712.528 366.854 719.887 364.619 727.616 362.97C776.76 352.488 832.374 369.032 866.98 396.657C901.586 424.281 918.394 460.981 927.423 497.467" stroke="url(#paint23_linear_629_6255)" stroke-width="0.8669" stroke-miterlimit="10"/>
<path opacity="0.54" d="M359.78 94.4385C346.551 106.262 349.481 124.056 361.349 136.651C362.409 137.772 363.539 138.857 364.729 139.899C376.928 150.531 394.346 157.193 412.314 162.419C415.763 163.419 419.233 164.376 422.692 165.29C439 169.609 455.798 173.522 470.967 179.563C475.836 181.505 480.526 183.654 484.965 186.089C515.272 202.711 529.92 230.171 536.539 257.254C537.019 259.224 537.459 261.188 537.869 263.151C543.848 292.147 544.158 321.643 553.687 349.147C558.786 363.862 567.026 379.335 585.363 387.439C607.351 397.164 636.487 393.201 659.785 385.318C675.643 379.956 690.351 372.959 705.879 367.318C713.169 364.669 720.648 362.32 728.497 360.578C778.451 349.496 835.194 366.268 870.32 394.393C905.446 422.525 922.284 459.932 931.313 497.053" stroke="url(#paint24_linear_629_6255)" stroke-width="0.8669" stroke-miterlimit="10"/>
<path opacity="0.54" d="M362.158 90.6254C348.929 102.435 351.679 120.178 363.358 132.88C364.398 134.016 365.518 135.108 366.687 136.158C378.736 146.896 396.044 153.715 413.942 159.106C417.371 160.141 420.831 161.119 424.291 162.069C440.539 166.524 457.297 170.559 472.405 176.649C477.255 178.605 481.934 180.769 486.353 183.218C516.59 199.926 531.088 227.386 537.407 254.512C537.867 256.482 538.287 258.453 538.667 260.416C544.277 289.448 543.647 319.008 552.446 346.954C557.205 362.084 565.484 377.999 584.062 386.339C606.349 396.342 636.026 392.215 659.653 384.018C675.731 378.442 690.63 371.166 706.378 365.268C713.777 362.505 721.356 360.042 729.335 358.207C780.099 346.533 837.973 363.519 873.618 392.151C909.264 420.783 926.132 458.903 935.171 496.66" stroke="url(#paint25_linear_629_6255)" stroke-width="0.8669" stroke-miterlimit="10"/>
<path opacity="0.54" d="M364.548 86.813C351.32 98.6012 353.88 116.301 365.388 129.111C366.418 130.253 367.508 131.36 368.678 132.417C380.587 143.262 397.775 150.245 415.613 155.786C419.032 156.85 422.482 157.857 425.921 158.835C442.109 163.426 458.817 167.574 473.876 173.722C478.715 175.693 483.365 177.87 487.784 180.327C517.951 197.12 532.299 224.574 538.328 251.749C538.768 253.727 539.158 255.697 539.518 257.668C544.757 286.742 543.188 316.352 551.257 344.741C555.676 360.285 563.995 376.65 582.823 385.225C605.41 395.514 635.627 391.216 659.584 382.705C675.892 376.914 690.97 369.353 706.949 363.213C714.448 360.328 722.147 357.758 730.256 355.83C781.83 343.563 840.833 360.771 876.999 389.902C913.165 419.041 930.073 457.869 939.112 496.261" stroke="url(#paint26_linear_629_6255)" stroke-width="0.8669" stroke-miterlimit="10"/>
<path opacity="0.54" d="M366.938 82.9999C352.519 95.8235 356.629 115.623 370.647 128.675C384.665 141.72 406.223 149.367 427.53 155.607C448.838 161.848 471.085 167.296 489.193 177.449C521.47 195.556 535.468 225.823 540.327 254.926C545.197 284.036 542.667 313.696 550.026 342.535C554.096 358.493 562.475 375.3 581.543 384.111C604.43 394.686 635.186 390.216 659.484 381.384C683.781 372.552 705.348 359.778 731.125 353.445C783.509 340.578 843.642 358.007 880.328 387.646C917.014 417.284 933.952 456.826 943.001 495.854" stroke="url(#paint27_linear_629_6255)" stroke-width="0.8669" stroke-miterlimit="10"/>
<path opacity="0.54" d="M1127.97 170.73C1141.1 182.911 1134.54 201.604 1119.08 212.128C1117.7 213.071 1116.26 213.956 1114.78 214.792C1099.66 223.324 1079.96 226.737 1060.75 228.808C1057.05 229.207 1053.34 229.564 1049.62 229.914C1032.14 231.556 1014.44 233.106 998.172 238.04C992.902 239.632 987.933 241.538 983.233 243.73C951.487 258.596 933.849 286.185 921.301 312.325C920.391 314.224 919.481 316.131 918.581 318.044C905.192 346.312 889.844 374.265 861.987 393.265C852.479 399.748 842.7 406.238 829.251 409.637C813.273 413.693 794.915 413.093 778.287 411.558C766.949 410.515 755.95 409.08 744.871 408.416C739.662 408.109 734.432 407.973 729.133 408.102C695.387 408.93 661.221 421.283 636.514 439.326C611.777 457.397 595.568 480.581 586.679 505" stroke="url(#paint28_linear_629_6255)" stroke-width="0.8669" stroke-miterlimit="10"/>
<path opacity="0.54" d="M1127.97 170.73C1141.1 182.911 1134.54 201.604 1119.08 212.128C1117.7 213.071 1116.26 213.956 1114.78 214.792C1099.66 223.324 1079.96 226.737 1060.75 228.808C1057.05 229.207 1053.34 229.564 1049.62 229.914C1032.14 231.556 1014.44 233.106 998.172 238.04C992.902 239.632 987.933 241.538 983.233 243.73C951.487 258.596 933.849 286.185 921.301 312.325C920.391 314.224 919.481 316.131 918.581 318.044C905.192 346.312 889.844 374.265 861.987 393.265C852.479 399.748 842.7 406.238 829.251 409.637C813.273 413.693 794.915 413.093 778.287 411.558C766.949 410.515 755.95 409.08 744.871 408.416C739.662 408.109 734.432 407.973 729.133 408.102C695.387 408.93 661.221 421.283 636.514 439.326C611.777 457.397 595.568 480.581 586.679 505" stroke="url(#paint29_linear_629_6255)" stroke-width="0.8669" stroke-miterlimit="10"/>
<path opacity="0.54" d="M1130.97 174C1144.1 186.181 1137.54 204.874 1122.08 215.398C1120.7 216.341 1119.26 217.226 1117.78 218.062C1102.66 226.594 1082.96 230.007 1063.75 232.078C1060.05 232.477 1056.34 232.834 1052.62 233.184C1035.14 234.826 1017.44 236.376 1001.17 241.31C995.902 242.902 990.933 244.808 986.233 247C954.487 261.866 936.849 289.455 924.301 315.595C923.391 317.494 922.481 319.401 921.581 321.314C908.192 349.582 892.844 377.535 864.987 396.535C855.479 403.018 845.7 409.508 832.251 412.907C816.273 416.963 797.915 416.363 781.287 414.828C769.949 413.785 758.95 412.35 747.871 411.686C742.662 411.379 737.432 411.244 732.133 411.372C698.387 412.2 664.221 424.553 639.514 442.596C614.777 460.667 598.568 483.851 589.679 508.27" stroke="url(#paint30_linear_629_6255)" stroke-width="0.8669" stroke-miterlimit="10"/>
<path opacity="0.54" d="M1133.97 177C1147.1 189.181 1140.54 207.874 1125.08 218.398C1123.7 219.341 1122.26 220.226 1120.78 221.062C1105.66 229.594 1085.96 233.007 1066.75 235.078C1063.05 235.477 1059.34 235.834 1055.62 236.184C1038.14 237.826 1020.44 239.376 1004.17 244.31C998.902 245.902 993.933 247.808 989.233 250C957.487 264.866 939.849 292.455 927.301 318.595C926.391 320.494 925.481 322.401 924.581 324.314C911.192 352.582 895.844 380.535 867.987 399.535C858.479 406.018 848.7 412.508 835.251 415.907C819.273 419.963 800.915 419.363 784.287 417.828C772.949 416.785 761.95 415.35 750.871 414.686C745.662 414.379 740.432 414.244 735.133 414.372C701.387 415.2 667.221 427.553 642.514 445.596C617.777 463.667 601.568 486.851 592.679 511.27" stroke="url(#paint31_linear_629_6255)" stroke-width="0.8669" stroke-miterlimit="10"/>
<path opacity="0.54" d="M1136.97 179C1150.1 191.181 1143.54 209.874 1128.08 220.398C1126.7 221.341 1125.26 222.226 1123.78 223.062C1108.66 231.594 1088.96 235.007 1069.75 237.078C1066.05 237.477 1062.34 237.834 1058.62 238.184C1041.14 239.826 1023.44 241.376 1007.17 246.31C1001.9 247.902 996.933 249.808 992.233 252C960.487 266.866 942.849 294.455 930.301 320.595C929.391 322.494 928.481 324.401 927.581 326.314C914.192 354.582 898.844 382.535 870.987 401.535C861.479 408.018 851.7 414.508 838.251 417.907C822.273 421.963 803.915 421.363 787.287 419.828C775.949 418.785 764.95 417.35 753.871 416.686C748.662 416.379 743.432 416.244 738.133 416.372C704.387 417.2 670.221 429.553 645.514 447.596C620.777 465.667 604.568 488.851 595.679 513.27" stroke="url(#paint32_linear_629_6255)" stroke-width="0.8669" stroke-miterlimit="10"/>
<path opacity="0.54" d="M1125.58 166.917C1138.71 179.084 1132.32 197.727 1117.06 208.358C1115.69 209.308 1114.27 210.208 1112.81 211.05C1097.84 219.682 1078.25 223.26 1059.1 225.487C1055.41 225.916 1051.7 226.301 1047.99 226.68C1030.58 228.458 1012.93 230.121 996.711 235.112C991.461 236.726 986.502 238.639 981.822 240.846C950.146 255.797 932.658 283.379 920.399 309.569C919.51 311.468 918.63 313.382 917.75 315.295C904.731 343.598 889.913 371.53 863.196 391.051C853.817 397.906 844.208 404.889 830.51 408.523C814.232 412.864 795.334 412.1 778.366 410.244C766.797 408.98 755.619 407.274 744.31 406.36C739.001 405.931 733.651 405.689 728.222 405.724C693.666 405.953 658.37 418.526 633.143 437.076C607.886 455.648 591.638 479.546 582.749 504.6" stroke="url(#paint33_linear_629_6255)" stroke-width="0.8669" stroke-miterlimit="10"/>
<path opacity="0.54" d="M1123.19 163.104C1136.33 175.25 1130.13 193.857 1115.04 204.581C1113.69 205.538 1112.29 206.445 1110.83 207.301C1096 216.041 1076.53 219.782 1057.45 222.167C1053.78 222.624 1050.08 223.038 1046.38 223.445C1029.02 225.352 1011.41 227.144 995.254 232.185C990.025 233.813 985.085 235.74 980.416 237.961C948.809 252.998 931.471 280.573 919.513 306.813C918.643 308.719 917.783 310.633 916.933 312.546C904.285 340.885 890.016 368.824 864.419 388.845C855.17 396.078 845.731 403.539 831.783 407.409C815.205 412.036 795.767 411.101 778.469 408.923C766.67 407.445 755.312 405.46 743.783 404.296C738.364 403.754 732.914 403.397 727.355 403.339C691.989 402.975 655.563 415.77 629.816 434.827C604.039 453.905 587.761 478.51 578.862 504.2" stroke="url(#paint34_linear_629_6255)" stroke-width="0.8669" stroke-miterlimit="10"/>
<path opacity="0.54" d="M1120.81 159.292C1133.96 171.423 1127.94 189.98 1113.02 200.811C1111.69 201.783 1110.3 202.696 1108.86 203.56C1094.18 212.407 1074.82 216.305 1055.81 218.847C1052.15 219.333 1048.46 219.783 1044.78 220.218C1027.48 222.26 1009.91 224.167 993.804 229.265C988.595 230.914 983.665 232.849 979.006 235.084C947.469 250.214 930.291 277.781 918.623 304.064C917.773 305.971 916.943 307.891 916.113 309.812C903.834 338.187 890.146 366.147 865.639 386.646C856.53 394.265 847.251 402.204 833.063 406.31C816.185 411.215 796.207 410.116 778.579 407.624C766.56 405.932 755.012 403.668 743.263 402.254C737.744 401.59 732.174 401.126 726.485 400.976C690.309 400.02 652.754 413.036 626.487 432.593C600.19 452.171 583.881 477.489 574.973 503.815" stroke="url(#paint35_linear_629_6255)" stroke-width="0.8669" stroke-miterlimit="10"/>
<path opacity="0.54" d="M1118.42 155.472C1131.57 167.581 1125.73 186.095 1111 197.034C1109.68 198.012 1108.31 198.94 1106.88 199.819C1092.35 208.772 1073.1 212.835 1054.15 215.534C1050.5 216.055 1046.83 216.526 1043.16 216.991C1025.92 219.168 1008.4 221.189 992.344 226.344C987.154 228.008 982.235 229.964 977.595 232.206C946.129 247.422 929.101 274.982 917.732 301.315C916.902 303.228 916.092 305.149 915.292 307.07C903.384 335.487 890.305 363.491 866.858 384.447C857.889 392.458 848.76 400.862 834.332 405.203C817.154 410.394 796.636 409.123 778.668 406.317C766.42 404.41 754.681 401.861 742.713 400.205C737.083 399.427 731.404 398.848 725.594 398.606C688.609 397.049 649.923 410.287 623.136 430.35C596.32 450.435 579.981 476.461 571.072 503.422" stroke="url(#paint36_linear_629_6255)" stroke-width="0.8669" stroke-miterlimit="10"/>
<path opacity="0.54" d="M1116.03 151.659C1129.19 163.754 1123.53 182.219 1108.97 193.264C1107.67 194.25 1106.31 195.185 1104.9 196.077C1090.51 205.131 1071.38 209.358 1052.49 212.214C1048.85 212.764 1045.2 213.271 1041.54 213.756C1024.36 216.07 1006.88 218.212 990.883 223.417C985.714 225.095 980.814 227.065 976.185 229.322C944.798 244.623 927.91 272.184 916.842 298.559C916.042 300.473 915.252 302.4 914.472 304.321C902.933 332.774 890.485 360.835 868.067 382.234C859.258 390.645 850.269 399.513 835.591 404.089C818.113 409.566 797.056 408.124 778.758 404.996C766.289 402.868 754.361 400.048 742.172 398.142C736.443 397.249 730.653 396.564 724.714 396.221C686.918 394.072 647.103 407.531 619.796 428.094C592.459 448.679 576.091 475.419 567.172 503.015" stroke="url(#paint37_linear_629_6255)" stroke-width="0.8669" stroke-miterlimit="10"/>
<path opacity="0.54" d="M1113.65 147.846C1126.81 159.92 1121.34 178.341 1106.96 189.487C1105.68 190.48 1104.33 191.429 1102.94 192.329C1088.7 201.49 1069.68 205.881 1050.85 208.894C1047.23 209.472 1043.58 210.008 1039.93 210.529C1022.8 212.971 1005.37 215.234 989.433 220.497C984.284 222.196 979.394 224.174 974.775 226.437C943.458 241.824 926.72 269.377 915.941 295.803C915.162 297.724 914.392 299.651 913.642 301.572C902.473 330.061 890.674 358.2 869.277 380.027C860.628 388.845 851.779 398.163 836.861 402.975C819.083 408.73 797.495 407.124 778.857 403.682C766.159 401.34 754.05 398.242 741.632 396.085C735.802 395.071 729.893 394.279 723.824 393.843C685.218 391.102 644.273 404.775 616.446 425.845C588.59 446.937 572.191 474.383 563.262 502.615" stroke="url(#paint38_linear_629_6255)" stroke-width="0.8669" stroke-miterlimit="10"/>
<path opacity="0.54" d="M1111.26 144.033C1124.43 156.093 1119.13 174.464 1104.94 185.717C1103.67 186.724 1102.34 187.681 1100.96 188.587C1086.86 197.855 1067.96 202.403 1049.19 205.581C1045.59 206.188 1041.96 206.752 1038.32 207.301C1021.25 209.879 1003.87 212.257 987.982 217.576C982.853 219.29 977.983 221.282 973.374 223.559C942.127 239.039 925.539 266.585 915.06 293.054C914.301 294.974 913.561 296.902 912.831 298.837C902.032 327.362 890.923 355.594 870.506 377.828C862.037 387.053 853.308 396.828 838.139 401.876C820.061 407.916 797.934 406.138 778.966 402.383C766.048 399.826 753.749 396.449 741.111 394.043C735.171 392.915 729.162 392.008 722.963 391.48C683.547 388.138 641.472 402.04 613.126 423.61C584.749 445.202 568.321 473.362 559.382 502.229" stroke="url(#paint39_linear_629_6255)" stroke-width="0.8669" stroke-miterlimit="10"/>
<path opacity="0.54" d="M1108.87 140.213C1122.04 152.251 1116.93 170.587 1102.91 181.94C1101.66 182.954 1100.35 183.918 1098.98 184.839C1085.03 194.214 1066.24 198.919 1047.53 202.253C1043.94 202.896 1040.32 203.489 1036.7 204.067C1019.69 206.78 1002.35 209.279 986.522 214.648C981.412 216.384 976.553 218.383 971.964 220.675C940.787 236.24 924.349 263.779 914.17 290.298C913.43 292.225 912.71 294.153 912.01 296.088C901.582 324.649 891.173 352.973 871.725 375.622C863.446 385.261 854.817 395.478 839.409 400.762C821.031 407.088 798.364 405.139 779.056 401.069C765.907 398.298 753.429 394.636 740.57 391.987C734.531 390.737 728.402 389.723 722.083 389.102C681.857 385.168 638.652 399.284 609.786 421.361C580.889 443.459 564.431 472.327 555.482 501.83" stroke="url(#paint40_linear_629_6255)" stroke-width="0.8669" stroke-miterlimit="10"/>
<path opacity="0.54" d="M1106.48 136.4C1119.65 148.424 1114.73 166.71 1100.89 178.163C1099.65 179.184 1098.36 180.162 1097 181.09C1083.2 190.565 1064.52 195.442 1045.88 198.933C1042.29 199.604 1038.69 200.226 1035.08 200.833C1018.13 203.681 1000.83 206.295 985.063 211.721C979.974 213.47 975.125 215.484 970.545 217.79C939.439 233.441 923.151 260.973 913.272 287.542C912.552 289.469 911.862 291.404 911.182 293.339C901.123 321.935 891.454 350.36 872.936 373.408C864.857 383.469 856.328 394.129 840.68 399.641C822.002 406.245 798.795 404.132 779.157 399.741C765.789 396.756 753.12 392.815 740.032 389.916C733.883 388.552 727.643 387.424 721.194 386.71C680.159 382.176 635.824 396.521 606.437 419.098C577.021 441.696 560.533 471.277 551.584 501.416" stroke="url(#paint41_linear_629_6255)" stroke-width="0.8669" stroke-miterlimit="10"/>
<path opacity="0.54" d="M1104.1 132.588C1117.28 144.59 1112.53 162.833 1098.87 174.393C1097.65 175.428 1096.37 176.414 1095.03 177.349C1081.37 186.931 1062.82 191.965 1044.23 195.613C1040.66 196.313 1037.06 196.97 1033.47 197.598C1016.58 200.583 999.333 203.31 983.605 208.794C978.535 210.557 973.706 212.592 969.136 214.906C938.11 230.65 921.962 258.175 912.383 284.786C911.683 286.721 911.013 288.656 910.363 290.591C900.674 319.222 891.755 347.761 874.157 371.202C866.288 381.684 857.849 392.779 841.951 398.534C822.973 405.424 799.226 403.147 779.258 398.434C765.66 395.228 752.801 391.016 739.503 387.86C733.254 386.382 726.904 385.139 720.325 384.333C678.47 379.206 633.015 393.765 603.109 416.856C573.172 439.954 556.654 470.249 547.695 501.023" stroke="url(#paint42_linear_629_6255)" stroke-width="0.8669" stroke-miterlimit="10"/>
<path opacity="0.54" d="M1101.71 128.775C1114.89 140.763 1110.33 158.956 1096.85 170.623C1095.65 171.665 1094.38 172.658 1093.06 173.607C1079.55 183.296 1061.1 188.494 1042.58 192.3C1039.02 193.028 1035.44 193.714 1031.85 194.378C1015.02 197.491 997.811 200.347 982.143 205.888C977.094 207.673 972.274 209.715 967.725 212.035C936.768 227.865 920.78 255.383 911.481 282.044C910.811 283.979 910.152 285.921 909.522 287.863C900.203 316.53 892.064 345.176 875.356 369.01C867.716 379.913 859.347 391.451 843.199 397.435C823.922 404.61 799.634 402.161 779.337 397.135C765.508 393.715 752.47 389.223 738.951 385.818C732.592 384.218 726.133 382.869 719.424 381.969C676.759 376.25 630.174 391.03 599.748 414.621C569.291 438.226 552.733 469.228 543.774 500.637" stroke="url(#paint43_linear_629_6255)" stroke-width="0.8669" stroke-miterlimit="10"/>
<path opacity="0.54" d="M1099.32 124.955C1112.51 136.922 1108.13 155.072 1094.83 166.846C1093.64 167.896 1092.39 168.902 1091.08 169.859C1077.71 179.648 1059.38 185.01 1040.93 188.98C1037.38 189.744 1033.81 190.451 1030.24 191.144C1013.47 194.392 996.302 197.363 980.694 202.96C975.664 204.76 970.865 206.816 966.325 209.151C935.439 225.066 919.601 252.584 910.602 279.288C909.952 281.23 909.322 283.172 908.712 285.114C899.773 313.817 892.424 342.57 876.586 366.797C869.177 378.121 860.868 390.095 844.489 396.321C824.912 403.775 800.085 401.162 779.447 395.814C765.399 392.18 752.17 387.41 738.422 383.754C731.963 382.041 725.383 380.577 718.554 379.585C675.079 373.266 627.365 388.267 596.418 412.365C565.442 436.47 548.854 468.193 539.885 500.23" stroke="url(#paint44_linear_629_6255)" stroke-width="0.8669" stroke-miterlimit="10"/>
<path opacity="0.54" d="M1096.93 121.142C1110.12 133.095 1105.92 151.202 1092.8 163.069C1091.63 164.126 1090.39 165.147 1089.1 166.11C1075.88 176.007 1057.66 181.533 1039.27 185.653C1035.73 186.445 1032.18 187.188 1028.62 187.909C1011.9 191.294 994.791 194.378 979.233 200.033C974.223 201.854 969.434 203.917 964.905 206.266C934.088 222.274 918.4 249.778 909.701 276.532C909.071 278.474 908.461 280.423 907.881 282.365C899.312 311.111 892.783 339.971 877.795 364.59C870.635 376.343 862.376 388.752 845.748 395.207C825.871 402.947 800.504 400.162 779.536 394.5C765.258 390.652 751.849 385.596 737.881 381.698C731.322 379.87 724.632 378.292 717.673 377.207C673.388 370.295 624.554 385.518 593.078 410.115C561.581 434.727 544.963 467.158 535.984 499.831" stroke="url(#paint45_linear_629_6255)" stroke-width="0.8669" stroke-miterlimit="10"/>
<path opacity="0.54" d="M1094.55 117.33C1107.75 129.261 1103.73 147.325 1090.79 159.299C1089.63 160.37 1088.41 161.391 1087.14 162.369C1074.07 172.372 1055.97 178.056 1037.63 182.34C1034.11 183.161 1030.56 183.932 1027.02 184.682C1010.36 188.202 993.294 191.401 977.796 197.113C972.806 198.948 968.027 201.026 963.517 203.389C932.771 219.483 917.233 246.986 908.834 273.783C908.224 275.732 907.644 277.681 907.084 279.624C898.885 308.405 893.206 337.373 879.037 362.384C872.138 374.558 863.919 387.403 847.041 394.1C826.853 402.126 800.956 399.17 779.659 393.194C765.16 389.124 751.562 383.797 737.364 379.649C730.694 377.7 723.895 376.015 716.806 374.836C671.711 367.332 621.747 382.769 589.751 407.874C557.735 432.985 541.087 466.13 532.108 499.438" stroke="url(#paint46_linear_629_6255)" stroke-width="0.8669" stroke-miterlimit="10"/>
<path opacity="0.54" d="M1092.16 113.517C1105.36 125.434 1101.53 143.448 1088.76 155.529C1087.62 156.607 1086.42 157.643 1085.15 158.628C1072.22 168.738 1054.23 174.586 1035.96 179.02C1032.45 179.87 1028.92 180.676 1025.39 181.448C1008.79 185.096 991.761 188.423 976.322 194.186C971.353 196.042 966.594 198.127 962.094 200.504C931.428 216.684 916.029 244.18 907.93 271.027C907.34 272.976 906.78 274.933 906.251 276.882C898.421 305.699 893.592 334.767 880.244 360.185C873.624 372.787 865.425 386.068 848.307 392.994C827.82 401.298 801.383 398.178 779.745 391.887C765.017 387.603 751.239 381.998 736.82 377.6C730.051 375.536 723.142 373.744 715.923 372.466C670.018 364.362 618.924 380.027 586.408 405.632C553.881 431.25 537.193 465.101 528.205 499.045" stroke="url(#paint47_linear_629_6255)" stroke-width="0.8669" stroke-miterlimit="10"/>
<path opacity="0.54" d="M1089.77 109.697C1102.98 121.592 1099.32 139.564 1086.74 151.745C1085.62 152.83 1084.43 153.88 1083.18 154.872C1070.4 165.082 1052.52 171.094 1034.32 175.692C1030.82 176.571 1027.3 177.406 1023.78 178.213C1007.24 181.997 990.262 185.439 974.873 191.258C969.924 193.129 965.175 195.228 960.685 197.62C930.089 213.892 914.84 241.374 907.041 268.271C906.471 270.227 905.941 272.183 905.432 274.133C897.972 302.986 894.023 332.153 881.454 357.972C875.115 370.995 866.926 384.718 849.568 391.88C828.78 400.469 801.804 397.178 779.836 390.566C764.888 386.068 750.919 380.184 736.281 375.536C729.402 373.351 722.383 371.452 715.034 370.081C668.319 361.384 616.095 377.264 583.059 403.375C550.013 429.494 533.295 464.059 524.296 498.638" stroke="url(#paint48_linear_629_6255)" stroke-width="0.8669" stroke-miterlimit="10"/>
<path opacity="0.54" d="M1087.38 105.884C1100.59 117.765 1097.12 135.686 1084.71 147.975C1083.6 149.074 1082.43 150.124 1081.19 151.138C1068.55 161.455 1050.8 167.631 1032.65 172.386C1029.17 173.3 1025.66 174.157 1022.15 174.993C1005.67 178.912 988.733 182.468 973.394 188.344C968.465 190.229 963.736 192.35 959.256 194.742C928.73 211.1 913.631 238.582 906.122 265.522C905.572 267.478 905.062 269.434 904.582 271.391C897.493 300.279 894.434 329.54 882.645 355.772C876.606 369.224 868.417 383.376 850.809 390.773C829.721 399.648 802.204 396.185 779.907 389.259C764.729 384.547 750.57 378.378 735.712 373.487C728.733 371.188 721.594 369.174 714.125 367.71C666.6 358.414 613.246 374.522 579.68 401.14C546.114 427.758 529.366 463.038 520.357 498.252" stroke="url(#paint49_linear_629_6255)" stroke-width="0.8669" stroke-miterlimit="10"/>
<path opacity="0.54" d="M1085 102.071C1098.22 113.931 1094.92 131.817 1082.7 144.205C1081.61 145.311 1080.45 146.375 1079.23 147.396C1066.74 157.821 1049.09 164.154 1031.01 169.066C1027.54 170.009 1024.04 170.901 1020.55 171.758C1004.13 175.814 987.232 179.491 971.954 185.417C967.044 187.324 962.325 189.451 957.865 191.858C927.409 208.301 912.461 235.776 905.251 262.766C904.732 264.729 904.242 266.686 903.782 268.649C897.062 297.574 894.903 326.919 883.884 353.566C878.145 367.439 869.956 382.034 852.108 389.666C830.72 398.82 802.663 395.193 780.036 387.953C764.638 383.026 750.289 376.579 735.211 371.438C728.132 369.024 720.883 366.897 713.284 365.34C664.949 355.451 610.466 371.78 576.38 398.898C542.294 426.024 525.516 462.01 516.497 497.86" stroke="url(#paint50_linear_629_6255)" stroke-width="0.8669" stroke-miterlimit="10"/>
<path opacity="0.54" d="M1082.61 98.2584C1095.83 110.104 1092.72 127.94 1080.68 140.435C1079.6 141.549 1078.46 142.627 1077.26 143.655C1064.91 154.179 1047.39 160.677 1029.36 165.754C1025.9 166.725 1022.42 167.646 1018.94 168.538C1002.58 172.729 985.732 176.521 970.504 182.504C965.615 184.425 960.905 186.567 956.456 188.987C926.069 205.517 911.281 232.992 904.362 260.024C903.862 261.988 903.392 263.951 902.962 265.915C896.613 294.875 895.373 324.299 885.104 351.374C879.685 365.669 871.466 380.698 853.378 388.567C831.69 398.006 803.094 394.215 780.126 386.646C764.498 381.498 749.97 374.779 734.662 369.389C727.472 366.854 720.113 364.619 712.384 362.97C663.24 352.488 607.626 369.032 573.02 396.657C538.414 424.281 521.606 460.981 512.577 497.467" stroke="url(#paint51_linear_629_6255)" stroke-width="0.8669" stroke-miterlimit="10"/>
<path opacity="0.54" d="M1080.22 94.4385C1093.45 106.262 1090.52 124.056 1078.65 136.651C1077.59 137.772 1076.46 138.857 1075.27 139.899C1063.07 150.531 1045.65 157.193 1027.69 162.419C1024.24 163.419 1020.77 164.376 1017.31 165.29C1001 169.609 984.202 173.522 969.033 179.563C964.164 181.505 959.474 183.654 955.035 186.089C924.728 202.711 910.08 230.171 903.461 257.254C902.981 259.224 902.541 261.188 902.131 263.151C896.152 292.147 895.842 321.643 886.313 349.147C881.214 363.862 872.974 379.335 854.637 387.439C832.649 397.164 803.513 393.201 780.215 385.318C764.357 379.956 749.649 372.959 734.121 367.318C726.831 364.669 719.352 362.32 711.503 360.578C661.549 349.496 604.806 366.268 569.68 394.393C534.554 422.525 517.716 459.932 508.687 497.053" stroke="url(#paint52_linear_629_6255)" stroke-width="0.8669" stroke-miterlimit="10"/>
<path opacity="0.54" d="M1077.84 90.6254C1091.07 102.435 1088.32 120.178 1076.64 132.88C1075.6 134.016 1074.48 135.108 1073.31 136.158C1061.26 146.896 1043.96 153.715 1026.06 159.106C1022.63 160.141 1019.17 161.119 1015.71 162.069C999.461 166.524 982.703 170.559 967.595 176.649C962.745 178.605 958.066 180.769 953.647 183.218C923.41 199.926 908.912 227.386 902.593 254.512C902.133 256.482 901.713 258.453 901.333 260.416C895.723 289.448 896.353 319.008 887.554 346.954C882.795 362.084 874.516 377.999 855.938 386.339C833.651 396.342 803.974 392.215 780.347 384.018C764.269 378.442 749.37 371.166 733.622 365.268C726.223 362.505 718.644 360.042 710.665 358.207C659.901 346.533 602.027 363.519 566.382 392.151C530.736 420.783 513.868 458.903 504.829 496.66" stroke="url(#paint53_linear_629_6255)" stroke-width="0.8669" stroke-miterlimit="10"/>
<path opacity="0.54" d="M1075.45 86.813C1088.68 98.6012 1086.12 116.301 1074.61 129.111C1073.58 130.253 1072.49 131.36 1071.32 132.417C1059.41 143.262 1042.23 150.245 1024.39 155.786C1020.97 156.85 1017.52 157.857 1014.08 158.835C997.891 163.426 981.183 167.574 966.124 173.722C961.285 175.693 956.635 177.87 952.216 180.327C922.049 197.12 907.701 224.574 901.672 251.749C901.232 253.727 900.842 255.697 900.482 257.668C895.243 286.742 896.812 316.352 888.743 344.741C884.324 360.285 876.005 376.65 857.177 385.225C834.59 395.514 804.373 391.216 780.416 382.705C764.108 376.914 749.03 369.353 733.051 363.213C725.552 360.328 717.853 357.758 709.744 355.83C658.17 343.563 599.167 360.771 563.001 389.902C526.835 419.041 509.927 457.869 500.888 496.261" stroke="url(#paint54_linear_629_6255)" stroke-width="0.8669" stroke-miterlimit="10"/>
<path opacity="0.54" d="M1073.06 82.9999C1087.48 95.8235 1083.37 115.623 1069.35 128.675C1055.33 141.72 1033.78 149.367 1012.47 155.607C991.162 161.848 968.915 167.296 950.807 177.449C918.53 195.556 904.532 225.823 899.673 254.926C894.803 284.036 897.333 313.696 889.974 342.535C885.904 358.493 877.525 375.3 858.457 384.111C835.57 394.686 804.814 390.216 780.516 381.384C756.219 372.552 734.652 359.778 708.875 353.445C656.491 340.578 596.358 358.007 559.672 387.646C522.986 417.284 506.048 456.826 496.999 495.854" stroke="url(#paint55_linear_629_6255)" stroke-width="0.8669" stroke-miterlimit="10"/>
</g>
<defs>
<linearGradient id="paint0_linear_629_6255" x1="843.63" y1="513.084" x2="467.212" y2="45.3772" gradientUnits="userSpaceOnUse">
<stop stop-color="#7ED4EF"/>
<stop offset="0.2294" stop-color="#66BFE6"/>
<stop offset="0.711" stop-color="#298BD0"/>
<stop offset="1" stop-color="#0169C2"/>
</linearGradient>
<linearGradient id="paint1_linear_629_6255" x1="843.63" y1="513.084" x2="467.212" y2="45.3772" gradientUnits="userSpaceOnUse">
<stop stop-color="#7ED4EF"/>
<stop offset="0.2294" stop-color="#66BFE6"/>
<stop offset="0.711" stop-color="#298BD0"/>
<stop offset="1" stop-color="#0169C2"/>
</linearGradient>
<linearGradient id="paint2_linear_629_6255" x1="840.63" y1="516.354" x2="464.212" y2="48.6473" gradientUnits="userSpaceOnUse">
<stop stop-color="#7ED4EF"/>
<stop offset="0.2294" stop-color="#66BFE6"/>
<stop offset="0.711" stop-color="#298BD0"/>
<stop offset="1" stop-color="#0169C2"/>
</linearGradient>
<linearGradient id="paint3_linear_629_6255" x1="837.63" y1="519.354" x2="461.212" y2="51.6473" gradientUnits="userSpaceOnUse">
<stop stop-color="#7ED4EF"/>
<stop offset="0.2294" stop-color="#66BFE6"/>
<stop offset="0.711" stop-color="#298BD0"/>
<stop offset="1" stop-color="#0169C2"/>
</linearGradient>
<linearGradient id="paint4_linear_629_6255" x1="834.63" y1="521.354" x2="458.212" y2="53.6473" gradientUnits="userSpaceOnUse">
<stop stop-color="#7ED4EF"/>
<stop offset="0.2294" stop-color="#66BFE6"/>
<stop offset="0.711" stop-color="#298BD0"/>
<stop offset="1" stop-color="#0169C2"/>
</linearGradient>
<linearGradient id="paint5_linear_629_6255" x1="847.4" y1="512.793" x2="468.717" y2="42.2734" gradientUnits="userSpaceOnUse">
<stop stop-color="#7ED4EF"/>
<stop offset="0.2294" stop-color="#66BFE6"/>
<stop offset="0.711" stop-color="#298BD0"/>
<stop offset="1" stop-color="#0169C2"/>
</linearGradient>
<linearGradient id="paint6_linear_629_6255" x1="851.113" y1="512.544" x2="470.167" y2="39.2106" gradientUnits="userSpaceOnUse">
<stop stop-color="#7ED4EF"/>
<stop offset="0.2294" stop-color="#66BFE6"/>
<stop offset="0.711" stop-color="#298BD0"/>
<stop offset="1" stop-color="#0169C2"/>
</linearGradient>
<linearGradient id="paint7_linear_629_6255" x1="854.795" y1="512.323" x2="471.584" y2="36.1765" gradientUnits="userSpaceOnUse">
<stop stop-color="#7ED4EF"/>
<stop offset="0.2294" stop-color="#66BFE6"/>
<stop offset="0.711" stop-color="#298BD0"/>
<stop offset="1" stop-color="#0169C2"/>
</linearGradient>
<linearGradient id="paint8_linear_629_6255" x1="858.451" y1="512.121" x2="472.977" y2="33.1624" gradientUnits="userSpaceOnUse">
<stop stop-color="#7ED4EF"/>
<stop offset="0.2294" stop-color="#66BFE6"/>
<stop offset="0.711" stop-color="#298BD0"/>
<stop offset="1" stop-color="#0169C2"/>
</linearGradient>
<linearGradient id="paint9_linear_629_6255" x1="862.089" y1="511.936" x2="474.35" y2="30.1643" gradientUnits="userSpaceOnUse">
<stop stop-color="#7ED4EF"/>
<stop offset="0.2294" stop-color="#66BFE6"/>
<stop offset="0.711" stop-color="#298BD0"/>
<stop offset="1" stop-color="#0169C2"/>
</linearGradient>
<linearGradient id="paint10_linear_629_6255" x1="865.711" y1="511.763" x2="475.709" y2="27.1779" gradientUnits="userSpaceOnUse">
<stop stop-color="#7ED4EF"/>
<stop offset="0.2294" stop-color="#66BFE6"/>
<stop offset="0.711" stop-color="#298BD0"/>
<stop offset="1" stop-color="#0169C2"/>
</linearGradient>
<linearGradient id="paint11_linear_629_6255" x1="869.322" y1="511.598" x2="477.056" y2="24.2008" gradientUnits="userSpaceOnUse">
<stop stop-color="#7ED4EF"/>
<stop offset="0.2294" stop-color="#66BFE6"/>
<stop offset="0.711" stop-color="#298BD0"/>
<stop offset="1" stop-color="#0169C2"/>
</linearGradient>
<linearGradient id="paint12_linear_629_6255" x1="872.923" y1="511.441" x2="478.393" y2="21.2311" gradientUnits="userSpaceOnUse">
<stop stop-color="#7ED4EF"/>
<stop offset="0.2294" stop-color="#66BFE6"/>
<stop offset="0.711" stop-color="#298BD0"/>
<stop offset="1" stop-color="#0169C2"/>
</linearGradient>
<linearGradient id="paint13_linear_629_6255" x1="876.515" y1="511.291" x2="479.721" y2="18.2678" gradientUnits="userSpaceOnUse">
<stop stop-color="#7ED4EF"/>
<stop offset="0.2294" stop-color="#66BFE6"/>
<stop offset="0.711" stop-color="#298BD0"/>
<stop offset="1" stop-color="#0169C2"/>
</linearGradient>
<linearGradient id="paint14_linear_629_6255" x1="880.101" y1="511.145" x2="481.044" y2="15.3094" gradientUnits="userSpaceOnUse">
<stop stop-color="#7ED4EF"/>
<stop offset="0.2294" stop-color="#66BFE6"/>
<stop offset="0.711" stop-color="#298BD0"/>
<stop offset="1" stop-color="#0169C2"/>
</linearGradient>
<linearGradient id="paint15_linear_629_6255" x1="883.684" y1="511.004" x2="482.363" y2="12.3551" gradientUnits="userSpaceOnUse">
<stop stop-color="#7ED4EF"/>
<stop offset="0.2294" stop-color="#66BFE6"/>
<stop offset="0.711" stop-color="#298BD0"/>
<stop offset="1" stop-color="#0169C2"/>
</linearGradient>
<linearGradient id="paint16_linear_629_6255" x1="887.261" y1="510.866" x2="483.676" y2="9.40462" gradientUnits="userSpaceOnUse">
<stop stop-color="#7ED4EF"/>
<stop offset="0.2294" stop-color="#66BFE6"/>
<stop offset="0.711" stop-color="#298BD0"/>
<stop offset="1" stop-color="#0169C2"/>
</linearGradient>
<linearGradient id="paint17_linear_629_6255" x1="890.836" y1="510.73" x2="484.987" y2="6.4568" gradientUnits="userSpaceOnUse">
<stop stop-color="#7ED4EF"/>
<stop offset="0.2294" stop-color="#66BFE6"/>
<stop offset="0.711" stop-color="#298BD0"/>
<stop offset="1" stop-color="#0169C2"/>
</linearGradient>
<linearGradient id="paint18_linear_629_6255" x1="894.403" y1="510.598" x2="486.291" y2="3.51178" gradientUnits="userSpaceOnUse">
<stop stop-color="#7ED4EF"/>
<stop offset="0.2294" stop-color="#66BFE6"/>
<stop offset="0.711" stop-color="#298BD0"/>
<stop offset="1" stop-color="#0169C2"/>
</linearGradient>
<linearGradient id="paint19_linear_629_6255" x1="897.974" y1="510.468" x2="487.599" y2="0.568977" gradientUnits="userSpaceOnUse">
<stop stop-color="#7ED4EF"/>
<stop offset="0.2294" stop-color="#66BFE6"/>
<stop offset="0.711" stop-color="#298BD0"/>
<stop offset="1" stop-color="#0169C2"/>
</linearGradient>
<linearGradient id="paint20_linear_629_6255" x1="901.539" y1="510.339" x2="488.9" y2="-2.37236" gradientUnits="userSpaceOnUse">
<stop stop-color="#7ED4EF"/>
<stop offset="0.2294" stop-color="#66BFE6"/>
<stop offset="0.711" stop-color="#298BD0"/>
<stop offset="1" stop-color="#0169C2"/>
</linearGradient>
<linearGradient id="paint21_linear_629_6255" x1="905.101" y1="510.212" x2="490.198" y2="-5.31186" gradientUnits="userSpaceOnUse">
<stop stop-color="#7ED4EF"/>
<stop offset="0.2294" stop-color="#66BFE6"/>
<stop offset="0.711" stop-color="#298BD0"/>
<stop offset="1" stop-color="#0169C2"/>
</linearGradient>
<linearGradient id="paint22_linear_629_6255" x1="908.663" y1="510.086" x2="491.497" y2="-8.24963" gradientUnits="userSpaceOnUse">
<stop stop-color="#7ED4EF"/>
<stop offset="0.2294" stop-color="#66BFE6"/>
<stop offset="0.711" stop-color="#298BD0"/>
<stop offset="1" stop-color="#0169C2"/>
</linearGradient>
<linearGradient id="paint23_linear_629_6255" x1="912.222" y1="509.962" x2="492.793" y2="-11.186" gradientUnits="userSpaceOnUse">
<stop stop-color="#7ED4EF"/>
<stop offset="0.2294" stop-color="#66BFE6"/>
<stop offset="0.711" stop-color="#298BD0"/>
<stop offset="1" stop-color="#0169C2"/>
</linearGradient>
<linearGradient id="paint24_linear_629_6255" x1="915.781" y1="509.839" x2="494.088" y2="-14.1213" gradientUnits="userSpaceOnUse">
<stop stop-color="#7ED4EF"/>
<stop offset="0.2294" stop-color="#66BFE6"/>
<stop offset="0.711" stop-color="#298BD0"/>
<stop offset="1" stop-color="#0169C2"/>
</linearGradient>
<linearGradient id="paint25_linear_629_6255" x1="919.336" y1="509.717" x2="495.38" y2="-17.056" gradientUnits="userSpaceOnUse">
<stop stop-color="#7ED4EF"/>
<stop offset="0.2294" stop-color="#66BFE6"/>
<stop offset="0.711" stop-color="#298BD0"/>
<stop offset="1" stop-color="#0169C2"/>
</linearGradient>
<linearGradient id="paint26_linear_629_6255" x1="922.893" y1="509.597" x2="496.673" y2="-19.9889" gradientUnits="userSpaceOnUse">
<stop stop-color="#7ED4EF"/>
<stop offset="0.2294" stop-color="#66BFE6"/>
<stop offset="0.711" stop-color="#298BD0"/>
<stop offset="1" stop-color="#0169C2"/>
</linearGradient>
<linearGradient id="paint27_linear_629_6255" x1="926.446" y1="509.476" x2="497.963" y2="-22.9215" gradientUnits="userSpaceOnUse">
<stop stop-color="#7ED4EF"/>
<stop offset="0.2294" stop-color="#66BFE6"/>
<stop offset="0.711" stop-color="#298BD0"/>
<stop offset="1" stop-color="#0169C2"/>
</linearGradient>
<linearGradient id="paint28_linear_629_6255" x1="596.37" y1="513.084" x2="972.788" y2="45.3772" gradientUnits="userSpaceOnUse">
<stop stop-color="#7ED4EF"/>
<stop offset="0.2294" stop-color="#66BFE6"/>
<stop offset="0.711" stop-color="#298BD0"/>
<stop offset="1" stop-color="#0169C2"/>
</linearGradient>
<linearGradient id="paint29_linear_629_6255" x1="596.37" y1="513.084" x2="972.788" y2="45.3772" gradientUnits="userSpaceOnUse">
<stop stop-color="#7ED4EF"/>
<stop offset="0.2294" stop-color="#66BFE6"/>
<stop offset="0.711" stop-color="#298BD0"/>
<stop offset="1" stop-color="#0169C2"/>
</linearGradient>
<linearGradient id="paint30_linear_629_6255" x1="599.37" y1="516.354" x2="975.788" y2="48.6473" gradientUnits="userSpaceOnUse">
<stop stop-color="#7ED4EF"/>
<stop offset="0.2294" stop-color="#66BFE6"/>
<stop offset="0.711" stop-color="#298BD0"/>
<stop offset="1" stop-color="#0169C2"/>
</linearGradient>
<linearGradient id="paint31_linear_629_6255" x1="602.37" y1="519.354" x2="978.788" y2="51.6473" gradientUnits="userSpaceOnUse">
<stop stop-color="#7ED4EF"/>
<stop offset="0.2294" stop-color="#66BFE6"/>
<stop offset="0.711" stop-color="#298BD0"/>
<stop offset="1" stop-color="#0169C2"/>
</linearGradient>
<linearGradient id="paint32_linear_629_6255" x1="605.37" y1="521.354" x2="981.788" y2="53.6473" gradientUnits="userSpaceOnUse">
<stop stop-color="#7ED4EF"/>
<stop offset="0.2294" stop-color="#66BFE6"/>
<stop offset="0.711" stop-color="#298BD0"/>
<stop offset="1" stop-color="#0169C2"/>
</linearGradient>
<linearGradient id="paint33_linear_629_6255" x1="592.6" y1="512.793" x2="971.283" y2="42.2734" gradientUnits="userSpaceOnUse">
<stop stop-color="#7ED4EF"/>
<stop offset="0.2294" stop-color="#66BFE6"/>
<stop offset="0.711" stop-color="#298BD0"/>
<stop offset="1" stop-color="#0169C2"/>
</linearGradient>
<linearGradient id="paint34_linear_629_6255" x1="588.887" y1="512.544" x2="969.833" y2="39.2106" gradientUnits="userSpaceOnUse">
<stop stop-color="#7ED4EF"/>
<stop offset="0.2294" stop-color="#66BFE6"/>
<stop offset="0.711" stop-color="#298BD0"/>
<stop offset="1" stop-color="#0169C2"/>
</linearGradient>
<linearGradient id="paint35_linear_629_6255" x1="585.205" y1="512.323" x2="968.416" y2="36.1765" gradientUnits="userSpaceOnUse">
<stop stop-color="#7ED4EF"/>
<stop offset="0.2294" stop-color="#66BFE6"/>
<stop offset="0.711" stop-color="#298BD0"/>
<stop offset="1" stop-color="#0169C2"/>
</linearGradient>
<linearGradient id="paint36_linear_629_6255" x1="581.549" y1="512.121" x2="967.023" y2="33.1624" gradientUnits="userSpaceOnUse">
<stop stop-color="#7ED4EF"/>
<stop offset="0.2294" stop-color="#66BFE6"/>
<stop offset="0.711" stop-color="#298BD0"/>
<stop offset="1" stop-color="#0169C2"/>
</linearGradient>
<linearGradient id="paint37_linear_629_6255" x1="577.911" y1="511.936" x2="965.65" y2="30.1643" gradientUnits="userSpaceOnUse">
<stop stop-color="#7ED4EF"/>
<stop offset="0.2294" stop-color="#66BFE6"/>
<stop offset="0.711" stop-color="#298BD0"/>
<stop offset="1" stop-color="#0169C2"/>
</linearGradient>
<linearGradient id="paint38_linear_629_6255" x1="574.289" y1="511.763" x2="964.291" y2="27.1779" gradientUnits="userSpaceOnUse">
<stop stop-color="#7ED4EF"/>
<stop offset="0.2294" stop-color="#66BFE6"/>
<stop offset="0.711" stop-color="#298BD0"/>
<stop offset="1" stop-color="#0169C2"/>
</linearGradient>
<linearGradient id="paint39_linear_629_6255" x1="570.678" y1="511.598" x2="962.944" y2="24.2008" gradientUnits="userSpaceOnUse">
<stop stop-color="#7ED4EF"/>
<stop offset="0.2294" stop-color="#66BFE6"/>
<stop offset="0.711" stop-color="#298BD0"/>
<stop offset="1" stop-color="#0169C2"/>
</linearGradient>
<linearGradient id="paint40_linear_629_6255" x1="567.077" y1="511.441" x2="961.607" y2="21.2311" gradientUnits="userSpaceOnUse">
<stop stop-color="#7ED4EF"/>
<stop offset="0.2294" stop-color="#66BFE6"/>
<stop offset="0.711" stop-color="#298BD0"/>
<stop offset="1" stop-color="#0169C2"/>
</linearGradient>
<linearGradient id="paint41_linear_629_6255" x1="563.485" y1="511.291" x2="960.279" y2="18.2678" gradientUnits="userSpaceOnUse">
<stop stop-color="#7ED4EF"/>
<stop offset="0.2294" stop-color="#66BFE6"/>
<stop offset="0.711" stop-color="#298BD0"/>
<stop offset="1" stop-color="#0169C2"/>
</linearGradient>
<linearGradient id="paint42_linear_629_6255" x1="559.899" y1="511.145" x2="958.956" y2="15.3094" gradientUnits="userSpaceOnUse">
<stop stop-color="#7ED4EF"/>
<stop offset="0.2294" stop-color="#66BFE6"/>
<stop offset="0.711" stop-color="#298BD0"/>
<stop offset="1" stop-color="#0169C2"/>
</linearGradient>
<linearGradient id="paint43_linear_629_6255" x1="556.316" y1="511.004" x2="957.637" y2="12.3551" gradientUnits="userSpaceOnUse">
<stop stop-color="#7ED4EF"/>
<stop offset="0.2294" stop-color="#66BFE6"/>
<stop offset="0.711" stop-color="#298BD0"/>
<stop offset="1" stop-color="#0169C2"/>
</linearGradient>
<linearGradient id="paint44_linear_629_6255" x1="552.739" y1="510.866" x2="956.324" y2="9.40462" gradientUnits="userSpaceOnUse">
<stop stop-color="#7ED4EF"/>
<stop offset="0.2294" stop-color="#66BFE6"/>
<stop offset="0.711" stop-color="#298BD0"/>
<stop offset="1" stop-color="#0169C2"/>
</linearGradient>
<linearGradient id="paint45_linear_629_6255" x1="549.164" y1="510.73" x2="955.013" y2="6.4568" gradientUnits="userSpaceOnUse">
<stop stop-color="#7ED4EF"/>
<stop offset="0.2294" stop-color="#66BFE6"/>
<stop offset="0.711" stop-color="#298BD0"/>
<stop offset="1" stop-color="#0169C2"/>
</linearGradient>
<linearGradient id="paint46_linear_629_6255" x1="545.597" y1="510.598" x2="953.709" y2="3.51178" gradientUnits="userSpaceOnUse">
<stop stop-color="#7ED4EF"/>
<stop offset="0.2294" stop-color="#66BFE6"/>
<stop offset="0.711" stop-color="#298BD0"/>
<stop offset="1" stop-color="#0169C2"/>
</linearGradient>
<linearGradient id="paint47_linear_629_6255" x1="542.026" y1="510.468" x2="952.401" y2="0.568977" gradientUnits="userSpaceOnUse">
<stop stop-color="#7ED4EF"/>
<stop offset="0.2294" stop-color="#66BFE6"/>
<stop offset="0.711" stop-color="#298BD0"/>
<stop offset="1" stop-color="#0169C2"/>
</linearGradient>
<linearGradient id="paint48_linear_629_6255" x1="538.461" y1="510.339" x2="951.1" y2="-2.37236" gradientUnits="userSpaceOnUse">
<stop stop-color="#7ED4EF"/>
<stop offset="0.2294" stop-color="#66BFE6"/>
<stop offset="0.711" stop-color="#298BD0"/>
<stop offset="1" stop-color="#0169C2"/>
</linearGradient>
<linearGradient id="paint49_linear_629_6255" x1="534.899" y1="510.212" x2="949.802" y2="-5.31186" gradientUnits="userSpaceOnUse">
<stop stop-color="#7ED4EF"/>
<stop offset="0.2294" stop-color="#66BFE6"/>
<stop offset="0.711" stop-color="#298BD0"/>
<stop offset="1" stop-color="#0169C2"/>
</linearGradient>
<linearGradient id="paint50_linear_629_6255" x1="531.337" y1="510.086" x2="948.503" y2="-8.24963" gradientUnits="userSpaceOnUse">
<stop stop-color="#7ED4EF"/>
<stop offset="0.2294" stop-color="#66BFE6"/>
<stop offset="0.711" stop-color="#298BD0"/>
<stop offset="1" stop-color="#0169C2"/>
</linearGradient>
<linearGradient id="paint51_linear_629_6255" x1="527.778" y1="509.962" x2="947.207" y2="-11.186" gradientUnits="userSpaceOnUse">
<stop stop-color="#7ED4EF"/>
<stop offset="0.2294" stop-color="#66BFE6"/>
<stop offset="0.711" stop-color="#298BD0"/>
<stop offset="1" stop-color="#0169C2"/>
</linearGradient>
<linearGradient id="paint52_linear_629_6255" x1="524.219" y1="509.839" x2="945.912" y2="-14.1213" gradientUnits="userSpaceOnUse">
<stop stop-color="#7ED4EF"/>
<stop offset="0.2294" stop-color="#66BFE6"/>
<stop offset="0.711" stop-color="#298BD0"/>
<stop offset="1" stop-color="#0169C2"/>
</linearGradient>
<linearGradient id="paint53_linear_629_6255" x1="520.664" y1="509.717" x2="944.62" y2="-17.056" gradientUnits="userSpaceOnUse">
<stop stop-color="#7ED4EF"/>
<stop offset="0.2294" stop-color="#66BFE6"/>
<stop offset="0.711" stop-color="#298BD0"/>
<stop offset="1" stop-color="#0169C2"/>
</linearGradient>
<linearGradient id="paint54_linear_629_6255" x1="517.107" y1="509.597" x2="943.327" y2="-19.9889" gradientUnits="userSpaceOnUse">
<stop stop-color="#7ED4EF"/>
<stop offset="0.2294" stop-color="#66BFE6"/>
<stop offset="0.711" stop-color="#298BD0"/>
<stop offset="1" stop-color="#0169C2"/>
</linearGradient>
<linearGradient id="paint55_linear_629_6255" x1="513.554" y1="509.476" x2="942.037" y2="-22.9215" gradientUnits="userSpaceOnUse">
<stop stop-color="#7ED4EF"/>
<stop offset="0.2294" stop-color="#66BFE6"/>
<stop offset="0.711" stop-color="#298BD0"/>
<stop offset="1" stop-color="#0169C2"/>
</linearGradient>
<clipPath id="clip0_629_6255">
<rect width="1440" height="250" fill="white"/>
</clipPath>
</defs>
</svg>
