<svg width="1440" height="750" viewBox="0 0 1440 750" fill="none" xmlns="http://www.w3.org/2000/svg">
<path opacity="0.54" d="M1018.03 739.16C1004.9 722.1 1011.46 695.92 1026.92 681.18C1028.3 679.86 1029.74 678.62 1031.22 677.45C1046.34 665.5 1066.04 660.72 1085.25 657.82C1088.95 657.26 1092.67 656.76 1096.39 656.27C1113.87 653.97 1131.57 651.8 1147.84 644.89C1153.11 642.66 1158.08 639.99 1162.78 636.92C1194.53 616.1 1212.17 577.46 1224.72 540.85C1225.63 538.19 1226.54 535.52 1227.44 532.84C1240.83 493.25 1256.18 454.1 1284.04 427.49C1293.55 418.41 1303.33 409.32 1316.78 404.56C1332.76 398.88 1351.12 399.72 1367.75 401.87C1379.09 403.33 1390.09 405.34 1401.17 406.27C1406.38 406.7 1411.61 406.89 1416.91 406.71C1450.66 405.55 1484.83 388.25 1509.54 362.98C1534.28 337.67 1550.49 305.2 1559.38 271" stroke="url(#paint0_linear_970_6281)" stroke-width="0.8669" stroke-miterlimit="10"/>
<path opacity="0.54" d="M1020.43 744.5C1007.29 727.46 1013.68 701.35 1028.95 686.46C1030.32 685.13 1031.74 683.87 1033.2 682.69C1048.17 670.6 1067.76 665.59 1086.91 662.47C1090.6 661.87 1094.31 661.33 1098.02 660.8C1115.44 658.31 1133.09 655.98 1149.31 648.99C1154.56 646.73 1159.52 644.05 1164.2 640.96C1195.88 620.02 1213.37 581.39 1225.63 544.71C1226.52 542.05 1227.4 539.37 1228.28 536.69C1241.3 497.05 1256.12 457.93 1282.84 430.59C1292.22 420.99 1301.83 411.21 1315.53 406.12C1331.81 400.04 1350.71 401.11 1367.68 403.71C1379.25 405.48 1390.43 407.87 1401.74 409.15C1407.05 409.75 1412.4 410.09 1417.83 410.04C1452.39 409.72 1487.69 392.11 1512.92 366.13C1538.18 340.12 1554.43 306.65 1563.32 271.56" stroke="url(#paint1_linear_970_6281)" stroke-width="0.8669" stroke-miterlimit="10"/>
<path opacity="0.54" d="M1022.82 749.84C1009.68 732.83 1015.88 706.77 1030.97 691.75C1032.32 690.41 1033.72 689.14 1035.18 687.94C1050.01 675.7 1069.48 670.46 1088.57 667.12C1092.24 666.48 1095.94 665.9 1099.64 665.33C1117 662.66 1134.61 660.15 1150.77 653.09C1156 650.81 1160.94 648.11 1165.61 645C1197.22 623.94 1214.56 585.32 1226.52 548.57C1227.39 545.9 1228.25 543.22 1229.1 540.54C1241.75 500.85 1256.02 461.72 1281.62 433.68C1290.87 423.55 1300.31 413.1 1314.26 407.68C1330.84 401.2 1350.28 402.51 1367.58 405.56C1379.38 407.63 1390.74 410.41 1402.27 412.04C1407.69 412.8 1413.14 413.3 1418.7 413.38C1454.07 413.89 1490.5 395.97 1516.25 369.28C1542.03 342.56 1558.31 308.1 1567.21 272.12" stroke="url(#paint2_linear_970_6281)" stroke-width="0.8669" stroke-miterlimit="10"/>
<path opacity="0.54" d="M1025.2 755.18C1012.05 738.19 1018.07 712.2 1032.99 697.03C1034.32 695.67 1035.71 694.39 1037.15 693.18C1051.83 680.79 1071.19 675.33 1090.21 671.77C1093.87 671.09 1097.56 670.46 1101.24 669.85C1118.54 666.99 1136.11 664.32 1152.22 657.18C1157.43 654.87 1162.36 652.16 1167.02 649.03C1198.56 627.84 1215.74 589.23 1227.41 552.42C1228.26 549.75 1229.09 547.06 1229.92 544.37C1242.2 504.63 1255.89 465.47 1280.4 436.76C1289.51 426.09 1298.79 414.97 1312.98 409.22C1329.86 402.35 1349.84 403.89 1367.47 407.38C1379.49 409.75 1391.04 412.92 1402.79 414.9C1408.31 415.83 1413.88 416.48 1419.57 416.69C1455.75 418.03 1493.31 399.8 1519.58 372.41C1545.88 344.99 1562.19 309.53 1571.1 272.66" stroke="url(#paint3_linear_970_6281)" stroke-width="0.8669" stroke-miterlimit="10"/>
<path opacity="0.54" d="M1027.59 760.53C1014.44 743.57 1020.28 717.64 1035.01 702.32C1036.33 700.95 1037.7 699.65 1039.13 698.42C1053.66 685.88 1072.91 680.19 1091.87 676.41C1095.52 675.68 1099.19 675.02 1102.86 674.37C1120.1 671.32 1137.62 668.49 1153.68 661.27C1158.87 658.94 1163.79 656.2 1168.43 653.06C1199.9 631.75 1216.93 593.15 1228.3 556.27C1229.13 553.59 1229.94 550.9 1230.74 548.21C1242.65 508.41 1255.73 469.19 1279.18 439.84C1288.15 428.62 1297.28 416.85 1311.71 410.77C1328.89 403.5 1349.41 405.28 1367.38 409.21C1379.63 411.88 1391.37 415.45 1403.34 417.77C1408.97 418.86 1414.65 419.67 1420.46 420.01C1457.45 422.19 1496.14 403.65 1522.93 375.55C1549.75 347.42 1566.09 310.97 1575 273.21" stroke="url(#paint4_linear_970_6281)" stroke-width="0.8669" stroke-miterlimit="10"/>
<path opacity="0.54" d="M1029.98 765.87C1016.82 748.93 1022.48 723.07 1037.04 707.6C1038.34 706.22 1039.7 704.91 1041.11 703.66C1055.5 690.98 1074.63 685.06 1093.53 681.06C1097.17 680.29 1100.82 679.58 1104.48 678.9C1121.66 675.66 1139.14 672.66 1155.14 665.37C1160.31 663.02 1165.21 660.26 1169.84 657.1C1201.23 635.67 1218.12 597.07 1229.19 560.13C1229.99 557.45 1230.78 554.75 1231.56 552.06C1243.1 512.21 1255.55 472.91 1277.97 442.94C1286.78 431.16 1295.77 418.74 1310.45 412.33C1327.93 404.66 1348.99 406.68 1367.29 411.06C1379.76 414.04 1391.69 417.99 1403.88 420.66C1409.61 421.91 1415.4 422.87 1421.34 423.35C1459.14 426.36 1498.96 407.51 1526.27 378.71C1553.61 349.88 1569.98 312.43 1578.9 273.78" stroke="url(#paint5_linear_970_6281)" stroke-width="0.8669" stroke-miterlimit="10"/>
<path opacity="0.54" d="M1032.35 771.21C1019.19 754.3 1024.66 728.5 1039.04 712.89C1040.32 711.5 1041.67 710.17 1043.06 708.91C1057.3 696.08 1076.32 689.93 1095.16 685.71C1098.78 684.9 1102.43 684.15 1106.08 683.42C1123.21 680 1140.64 676.83 1156.58 669.46C1161.73 667.08 1166.62 664.31 1171.24 661.14C1202.56 639.59 1219.3 601 1230.08 563.99C1230.86 561.3 1231.63 558.6 1232.38 555.91C1243.55 516.01 1255.35 476.6 1276.75 446.03C1285.4 433.68 1294.25 420.63 1309.17 413.89C1326.95 405.83 1348.54 408.08 1367.18 412.9C1379.88 416.18 1391.99 420.52 1404.41 423.54C1410.24 424.96 1416.15 426.07 1422.22 426.68C1460.83 430.52 1501.78 411.37 1529.61 381.86C1557.47 352.32 1573.87 313.88 1582.8 274.34" stroke="url(#paint6_linear_970_6281)" stroke-width="0.8669" stroke-miterlimit="10"/>
<path opacity="0.54" d="M1034.74 776.55C1021.57 759.66 1026.87 733.93 1041.06 718.17C1042.33 716.76 1043.66 715.42 1045.04 714.15C1059.14 701.17 1078.04 694.8 1096.81 690.35C1100.42 689.5 1104.05 688.71 1107.69 687.94C1124.76 684.33 1142.14 681 1158.03 673.55C1163.16 671.15 1168.03 668.36 1172.64 665.17C1203.89 643.49 1220.48 604.91 1230.96 567.84C1231.72 565.15 1232.46 562.45 1233.19 559.74C1243.99 519.79 1255.1 480.25 1275.52 449.11C1283.99 436.19 1292.72 422.5 1307.89 415.43C1325.97 406.97 1348.1 409.46 1367.07 414.72C1379.99 418.3 1392.29 423.03 1404.93 426.4C1410.87 427.98 1416.88 429.25 1423.08 429.99C1462.5 434.67 1504.58 415.2 1532.93 384.99C1561.31 354.75 1577.74 315.31 1586.68 274.88" stroke="url(#paint7_linear_970_6281)" stroke-width="0.8669" stroke-miterlimit="10"/>
<path opacity="0.54" d="M1037.13 781.9C1023.96 765.04 1029.07 739.36 1043.09 723.46C1044.34 722.04 1045.65 720.69 1047.02 719.4C1060.97 706.27 1079.76 699.68 1098.47 695.01C1102.07 694.11 1105.69 693.28 1109.31 692.47C1126.32 688.67 1143.66 685.17 1159.49 677.65C1164.6 675.22 1169.46 672.42 1174.05 669.21C1205.23 647.41 1221.67 608.84 1231.85 571.7C1232.59 569 1233.31 566.3 1234.01 563.59C1244.44 523.59 1254.85 483.92 1274.3 452.2C1282.58 438.7 1291.21 424.39 1306.62 416.99C1325 408.13 1347.67 410.86 1366.98 416.56C1380.13 420.44 1392.61 425.57 1405.47 429.28C1411.51 431.03 1417.64 432.45 1423.96 433.32C1464.19 438.83 1507.4 419.06 1536.27 388.14C1565.17 357.19 1581.63 316.76 1590.58 275.44" stroke="url(#paint8_linear_970_6281)" stroke-width="0.8669" stroke-miterlimit="10"/>
<path opacity="0.54" d="M1039.53 787.24C1026.36 770.4 1031.28 744.79 1045.12 728.75C1046.36 727.32 1047.65 725.95 1049.01 724.65C1062.81 711.38 1081.49 704.55 1100.14 699.66C1103.73 698.72 1107.33 697.85 1110.94 697C1127.89 693.01 1145.19 689.35 1160.96 681.75C1166.05 679.3 1170.9 676.48 1175.48 673.25C1206.59 651.33 1222.88 612.77 1232.76 575.56C1233.48 572.86 1234.17 570.15 1234.85 567.44C1244.91 527.39 1254.58 487.58 1273.1 455.3C1281.18 441.21 1289.71 426.28 1305.36 418.56C1324.04 409.31 1347.25 412.27 1366.89 418.42C1380.26 422.6 1392.93 428.12 1406.02 432.18C1412.17 434.09 1418.41 435.67 1424.86 436.67C1465.9 443.02 1510.24 422.93 1539.63 391.31C1569.05 359.66 1585.54 318.23 1594.49 276.02" stroke="url(#paint9_linear_970_6281)" stroke-width="0.8669" stroke-miterlimit="10"/>
<path opacity="0.54" d="M1041.9 792.58C1028.72 775.77 1033.47 750.22 1047.13 734.03C1048.35 732.58 1049.63 731.2 1050.97 729.89C1064.63 716.47 1083.19 709.42 1101.78 704.31C1105.35 703.33 1108.95 702.41 1112.54 701.53C1129.43 697.35 1146.68 693.53 1162.41 685.85C1167.48 683.38 1172.31 680.53 1176.88 677.29C1207.91 655.24 1224.06 616.69 1233.64 579.42C1234.34 576.71 1235.01 574 1235.66 571.29C1245.35 531.19 1254.27 491.22 1271.87 458.39C1279.74 443.71 1288.18 428.17 1304.08 420.11C1323.06 410.46 1346.81 413.65 1366.78 420.25C1380.38 424.74 1393.24 430.64 1406.54 435.06C1412.79 437.13 1419.14 438.87 1425.72 440C1467.58 447.18 1513.04 426.79 1542.95 394.45C1572.89 362.1 1589.41 319.67 1598.37 276.57" stroke="url(#paint10_linear_970_6281)" stroke-width="0.8669" stroke-miterlimit="10"/>
<path opacity="0.54" d="M1044.3 797.92C1031.12 781.13 1035.68 755.65 1049.16 739.31C1050.36 737.85 1051.63 736.46 1052.95 735.13C1066.46 721.56 1084.91 714.28 1103.44 708.95C1107 707.93 1110.58 706.97 1114.17 706.04C1131 701.68 1148.21 697.68 1163.88 689.92C1168.93 687.42 1173.75 684.56 1178.3 681.31C1209.26 659.14 1225.25 620.6 1234.55 583.26C1235.22 580.55 1235.88 577.83 1236.51 575.11C1245.83 534.96 1253.97 494.84 1270.68 461.46C1278.32 446.19 1286.69 430.03 1302.84 421.65C1322.12 411.6 1346.41 415.03 1366.71 422.07C1380.54 426.86 1393.58 433.15 1407.1 437.92C1413.46 440.16 1419.92 442.05 1426.63 443.31C1469.3 451.32 1515.89 430.62 1546.32 397.58C1576.78 364.52 1593.34 321.1 1602.3 277.11" stroke="url(#paint11_linear_970_6281)" stroke-width="0.8669" stroke-miterlimit="10"/>
<path opacity="0.54" d="M1046.68 803.27C1033.49 786.51 1037.87 761.09 1051.17 744.6C1052.36 743.13 1053.61 741.72 1054.92 740.38C1068.29 726.67 1086.62 719.16 1105.08 713.6C1108.63 712.53 1112.2 711.54 1115.77 710.57C1132.54 706.02 1149.71 701.86 1165.32 694.02C1170.35 691.5 1175.15 688.62 1179.69 685.35C1210.58 663.06 1226.42 624.52 1235.42 587.12C1236.07 584.4 1236.7 581.68 1237.31 578.96C1246.25 538.76 1253.6 498.49 1269.44 464.56C1276.85 448.7 1285.16 431.93 1301.54 423.21C1321.12 412.77 1345.95 416.43 1366.59 423.92C1380.64 429.01 1393.87 435.69 1407.62 440.81C1414.08 443.21 1420.66 445.26 1427.49 446.65C1470.97 455.5 1518.69 434.49 1549.64 400.74C1580.62 366.98 1597.21 322.55 1606.18 277.68" stroke="url(#paint12_linear_970_6281)" stroke-width="0.8669" stroke-miterlimit="10"/>
<path opacity="0.54" d="M1049.08 808.61C1035.89 791.87 1040.09 766.51 1053.21 749.89C1054.38 748.41 1055.62 746.98 1056.91 745.63C1070.13 731.77 1088.35 724.03 1106.75 718.26C1110.29 717.15 1113.84 716.11 1117.4 715.1C1134.12 710.36 1151.23 706.04 1166.79 698.12C1171.8 695.57 1176.59 692.68 1181.12 689.39C1211.94 666.97 1227.63 628.45 1236.33 590.98C1236.96 588.26 1237.57 585.53 1238.15 582.81C1246.72 542.55 1253.25 502.13 1268.24 467.65C1275.4 451.19 1283.66 433.81 1300.29 424.77C1320.17 413.93 1345.54 417.83 1366.51 425.76C1380.79 431.15 1394.2 438.23 1408.17 443.69C1414.73 446.25 1421.42 448.46 1428.38 449.98C1472.67 459.66 1521.51 438.34 1552.99 403.89C1584.49 369.42 1601.11 324 1610.09 278.24" stroke="url(#paint13_linear_970_6281)" stroke-width="0.8669" stroke-miterlimit="10"/>
<path opacity="0.54" d="M1051.45 813.95C1038.25 797.24 1042.27 771.94 1055.21 755.17C1056.37 753.67 1057.59 752.24 1058.86 750.87C1071.93 736.86 1090.04 728.9 1108.38 722.9C1111.9 721.75 1115.45 720.67 1118.99 719.62C1135.65 714.69 1152.72 710.21 1168.22 702.21C1173.21 699.64 1177.99 696.73 1182.5 693.42C1213.25 670.88 1228.79 632.36 1237.19 594.83C1237.8 592.1 1238.38 589.37 1238.94 586.65C1247.14 546.34 1252.82 505.77 1266.99 470.74C1273.89 453.69 1282.11 435.7 1298.99 426.32C1319.18 415.08 1345.08 419.22 1366.38 427.59C1380.88 433.29 1394.48 440.75 1408.68 446.56C1415.35 449.29 1422.15 451.65 1429.24 453.3C1474.34 463.81 1524.31 442.19 1556.31 407.03C1588.33 371.86 1604.98 325.44 1613.96 278.79" stroke="url(#paint14_linear_970_6281)" stroke-width="0.8669" stroke-miterlimit="10"/>
<path opacity="0.54" d="M1053.85 819.29C1040.65 802.6 1044.48 777.37 1057.25 760.45C1058.39 758.94 1059.59 757.49 1060.86 756.11C1073.79 741.95 1091.78 733.76 1110.06 727.55C1113.57 726.36 1117.1 725.23 1120.63 724.15C1137.23 719.04 1154.26 714.38 1169.7 706.31C1174.67 703.71 1179.43 700.79 1183.93 697.46C1214.6 674.8 1230 636.29 1238.1 598.69C1238.69 595.96 1239.25 593.22 1239.78 590.49C1247.61 550.13 1252.44 509.42 1265.79 473.82C1272.41 456.17 1280.61 437.57 1297.73 427.87C1318.22 416.24 1344.66 420.61 1366.3 429.42C1381.03 435.42 1394.81 443.27 1409.23 449.43C1416 452.32 1422.91 454.83 1430.13 456.62C1476.04 467.97 1527.14 446.03 1559.66 410.17C1592.19 374.29 1608.88 326.88 1617.87 279.34" stroke="url(#paint15_linear_970_6281)" stroke-width="0.8669" stroke-miterlimit="10"/>
<path opacity="0.54" d="M1056.23 824.64C1043.02 807.98 1046.68 782.81 1059.26 765.75C1060.38 764.23 1061.57 762.76 1062.82 761.37C1075.6 747.07 1093.48 738.65 1111.69 732.21C1115.19 730.98 1118.71 729.81 1122.23 728.68C1138.77 723.38 1155.75 718.56 1171.14 710.41C1176.09 707.79 1180.84 704.85 1185.33 701.5C1215.93 678.71 1231.18 640.22 1238.98 602.55C1239.55 599.81 1240.08 597.07 1240.59 594.34C1248.05 553.93 1252 513.08 1264.57 476.92C1270.91 458.68 1279.1 439.46 1296.46 429.43C1317.25 417.4 1344.23 422.01 1366.2 431.27C1381.15 437.57 1395.12 445.81 1409.76 452.32C1416.64 455.38 1423.66 458.04 1431.01 459.96C1477.73 472.14 1529.96 449.9 1563 413.33C1596.05 376.75 1612.77 328.34 1621.77 279.91" stroke="url(#paint16_linear_970_6281)" stroke-width="0.8669" stroke-miterlimit="10"/>
<path opacity="0.54" d="M1058.62 829.98C1045.41 813.34 1048.88 788.24 1061.29 771.03C1062.4 769.49 1063.57 768.02 1064.81 766.6C1077.45 752.15 1095.21 743.5 1113.36 736.84C1116.84 735.56 1120.35 734.36 1123.86 733.19C1140.34 727.7 1157.28 722.72 1172.62 714.49C1177.55 711.85 1182.28 708.88 1186.76 705.53C1217.29 682.62 1232.39 644.13 1239.9 606.4C1240.45 603.66 1240.96 600.92 1241.44 598.18C1248.53 557.72 1251.59 516.74 1263.38 480C1269.42 461.16 1277.61 441.34 1295.22 430.98C1316.31 418.55 1343.83 423.4 1366.13 433.1C1381.31 439.7 1395.47 448.34 1410.33 455.19C1417.31 458.41 1424.45 461.23 1431.92 463.28C1479.45 476.3 1532.81 453.74 1566.38 416.46C1599.95 379.18 1616.7 329.77 1625.71 280.45" stroke="url(#paint17_linear_970_6281)" stroke-width="0.8669" stroke-miterlimit="10"/>
<path opacity="0.54" d="M1061 835.32C1047.78 818.71 1051.08 793.66 1063.3 776.31C1064.39 774.76 1065.55 773.27 1066.77 771.84C1079.26 757.24 1096.91 748.37 1115 741.49C1118.47 740.17 1121.97 738.92 1125.46 737.72C1141.88 732.04 1158.78 726.89 1174.06 718.59C1178.97 715.92 1183.69 712.94 1188.15 709.57C1218.61 686.54 1233.56 648.06 1240.77 610.26C1241.29 607.51 1241.78 604.77 1242.24 602.02C1248.96 561.51 1251.12 520.41 1262.14 483.09C1267.88 463.66 1276.07 443.22 1293.92 432.53C1315.31 419.71 1343.37 424.79 1366 434.93C1381.4 441.83 1395.75 450.86 1410.83 458.06C1417.91 461.44 1425.16 464.42 1432.76 466.6C1481.1 480.45 1535.59 457.58 1569.68 419.6C1603.77 381.61 1620.55 331.21 1629.57 281" stroke="url(#paint18_linear_970_6281)" stroke-width="0.8669" stroke-miterlimit="10"/>
<path opacity="0.54" d="M1063.39 840.66C1050.17 824.07 1053.28 799.09 1065.32 781.59C1066.4 780.03 1067.54 778.52 1068.74 777.08C1081.09 762.34 1098.62 753.24 1116.65 746.13C1120.11 744.77 1123.59 743.48 1127.07 742.23C1143.43 736.36 1160.28 731.05 1175.51 722.67C1180.4 719.98 1185.11 716.98 1189.56 713.59C1219.95 690.44 1234.74 651.96 1241.66 614.1C1242.16 611.35 1242.63 608.6 1243.06 605.85C1249.41 565.29 1250.65 524.08 1260.92 486.16C1266.34 466.14 1274.56 445.09 1292.65 434.07C1314.34 420.85 1342.94 426.16 1365.91 436.76C1381.54 443.97 1396.07 453.38 1411.38 460.93C1418.57 464.48 1425.93 467.61 1433.66 469.92C1482.81 484.6 1538.43 461.43 1573.04 422.74C1607.65 384.05 1624.46 332.65 1633.49 281.55" stroke="url(#paint19_linear_970_6281)" stroke-width="0.8669" stroke-miterlimit="10"/>
<path opacity="0.54" d="M1065.78 846.01C1052.55 829.45 1055.48 804.53 1067.35 786.89C1068.41 785.32 1069.54 783.8 1070.73 782.34C1082.93 767.45 1100.35 758.12 1118.32 750.8C1121.77 749.4 1125.24 748.06 1128.7 746.78C1145.01 740.73 1161.81 735.25 1176.98 726.79C1181.85 724.07 1186.54 721.06 1190.98 717.65C1221.29 694.37 1235.94 655.91 1242.56 617.98C1243.04 615.22 1243.48 612.47 1243.89 609.72C1249.87 569.11 1250.18 527.8 1259.71 489.28C1264.81 468.67 1273.05 447 1291.39 435.65C1313.38 422.03 1342.52 427.58 1365.82 438.62C1381.68 446.13 1396.39 455.93 1411.92 463.83C1419.21 467.54 1426.69 470.83 1434.54 473.27C1484.5 488.79 1541.25 465.3 1576.38 425.91C1611.51 386.51 1628.35 334.12 1637.38 282.13" stroke="url(#paint20_linear_970_6281)" stroke-width="0.8669" stroke-miterlimit="10"/>
<path opacity="0.54" d="M1068.16 851.35C1054.93 834.81 1057.68 809.96 1069.36 792.17C1070.4 790.58 1071.52 789.05 1072.69 787.58C1084.74 772.54 1102.05 762.99 1119.95 755.44C1123.38 753.99 1126.84 752.62 1130.3 751.29C1146.55 745.05 1163.31 739.4 1178.42 730.87C1183.27 728.13 1187.95 725.1 1192.37 721.67C1222.61 698.27 1237.11 659.81 1243.43 621.82C1243.89 619.06 1244.31 616.3 1244.69 613.55C1250.3 572.89 1249.67 531.49 1258.47 492.35C1263.23 471.16 1271.51 448.87 1290.09 437.19C1312.38 423.18 1342.06 428.96 1365.69 440.44C1381.77 448.25 1396.67 458.44 1412.42 466.7C1419.82 470.57 1427.4 474.02 1435.38 476.59C1486.15 492.94 1544.03 469.15 1579.68 429.05C1615.33 388.95 1632.2 335.56 1641.24 282.68" stroke="url(#paint21_linear_970_6281)" stroke-width="0.8669" stroke-miterlimit="10"/>
<path opacity="0.54" d="M1070.55 856.69C1057.32 840.18 1059.88 815.39 1071.39 797.45C1072.42 795.85 1073.51 794.3 1074.68 792.82C1086.59 777.63 1103.78 767.85 1121.62 760.09C1125.04 758.6 1128.49 757.19 1131.93 755.82C1148.12 749.39 1164.83 743.58 1179.89 734.97C1184.73 732.21 1189.38 729.16 1193.8 725.72C1223.97 702.2 1238.32 663.75 1244.35 625.69C1244.79 622.92 1245.18 620.16 1245.54 617.4C1250.78 576.68 1249.21 535.21 1257.28 495.45C1261.7 473.68 1270.02 450.76 1288.85 438.75C1311.44 424.34 1341.66 430.36 1365.62 442.28C1381.93 450.39 1397.01 460.98 1412.99 469.58C1420.49 473.62 1428.19 477.22 1436.3 479.92C1487.88 497.1 1546.89 473 1583.06 432.2C1619.23 391.39 1636.14 337.01 1645.18 283.24" stroke="url(#paint22_linear_970_6281)" stroke-width="0.8669" stroke-miterlimit="10"/>
<path opacity="0.54" d="M1072.94 862.03C1058.52 844.07 1062.63 816.34 1076.65 798.06C1090.67 779.79 1112.23 769.08 1133.54 760.34C1154.85 751.6 1177.1 743.97 1195.21 729.75C1227.49 704.39 1241.49 662 1246.35 621.24C1251.22 580.47 1248.69 538.93 1256.05 498.54C1260.12 476.19 1268.5 452.65 1287.57 440.31C1310.46 425.5 1341.22 431.76 1365.52 444.13C1389.82 456.5 1411.39 474.39 1437.17 483.26C1489.56 501.28 1549.7 476.87 1586.39 435.36C1623.08 393.85 1640.02 338.47 1649.07 283.81" stroke="url(#paint23_linear_970_6281)" stroke-width="0.8669" stroke-miterlimit="10"/>
<path opacity="0.54" d="M-84.9658 416.16C-98.0958 399.1 -91.5358 372.92 -76.0758 358.18C-74.6958 356.86 -73.2558 355.62 -71.7758 354.45C-56.6558 342.5 -36.9558 337.72 -17.7458 334.82C-14.0458 334.26 -10.3258 333.76 -6.60577 333.27C10.8742 330.97 28.5742 328.8 44.8442 321.89C50.1142 319.66 55.0842 316.99 59.7842 313.92C91.5342 293.1 109.174 254.46 121.724 217.85C122.634 215.19 123.544 212.52 124.444 209.84C137.834 170.25 153.184 131.1 181.044 104.49C190.554 95.41 200.334 86.32 213.784 81.56C229.764 75.88 248.124 76.72 264.754 78.87C276.094 80.33 287.094 82.34 298.174 83.27C303.384 83.7 308.614 83.89 313.914 83.71C347.664 82.55 381.834 65.25 406.544 39.98C431.284 14.67 447.494 -17.8 456.384 -52" stroke="url(#paint24_linear_970_6281)" stroke-width="0.8669" stroke-miterlimit="10"/>
<path opacity="0.54" d="M-82.5748 421.5C-95.7148 404.46 -89.3248 378.35 -74.0548 363.46C-72.6848 362.13 -71.2648 360.87 -69.8048 359.69C-54.8348 347.6 -35.2448 342.59 -16.0948 339.47C-12.4048 338.87 -8.69478 338.33 -4.98478 337.8C12.4352 335.31 30.0852 332.98 46.3052 325.99C51.5552 323.73 56.5152 321.05 61.1952 317.96C92.8752 297.02 110.365 258.39 122.625 221.71C123.515 219.05 124.395 216.37 125.275 213.69C138.295 174.05 153.115 134.93 179.835 107.59C189.215 97.9901 198.825 88.2101 212.525 83.1201C228.805 77.0401 247.705 78.1101 264.675 80.7101C276.245 82.4801 287.425 84.8701 298.735 86.1501C304.045 86.7501 309.395 87.0901 314.825 87.0401C349.385 86.7201 384.685 69.1101 409.915 43.1301C435.175 17.1201 451.425 -16.3499 460.315 -51.4399" stroke="url(#paint25_linear_970_6281)" stroke-width="0.8669" stroke-miterlimit="10"/>
<path opacity="0.54" d="M-80.1843 426.84C-93.3243 409.83 -87.1243 383.77 -72.0343 368.75C-70.6843 367.41 -69.2843 366.14 -67.8243 364.94C-52.9943 352.7 -33.5243 347.46 -14.4343 344.12C-10.7643 343.48 -7.06433 342.9 -3.36433 342.33C13.9957 339.66 31.6057 337.15 47.7657 330.09C52.9957 327.81 57.9357 325.11 62.6057 322C94.2157 300.94 111.556 262.32 123.516 225.57C124.386 222.9 125.246 220.22 126.096 217.54C138.746 177.85 153.016 138.72 178.616 110.68C187.866 100.55 197.306 90.1001 211.256 84.6801C227.836 78.2001 247.276 79.5101 264.576 82.5601C276.376 84.6301 287.736 87.4101 299.266 89.0401C304.686 89.8001 310.136 90.3001 315.696 90.3801C351.066 90.8901 387.496 72.9701 413.246 46.2801C439.026 19.5601 455.306 -14.8999 464.206 -50.8799" stroke="url(#paint26_linear_970_6281)" stroke-width="0.8669" stroke-miterlimit="10"/>
<path opacity="0.54" d="M-77.8044 432.18C-90.9544 415.19 -84.9344 389.2 -70.0144 374.03C-68.6844 372.67 -67.2944 371.39 -65.8544 370.18C-51.1744 357.79 -31.8144 352.33 -12.7944 348.77C-9.1344 348.09 -5.4444 347.46 -1.7644 346.85C15.5356 343.99 33.1056 341.32 49.2156 334.18C54.4256 331.87 59.3556 329.16 64.0156 326.03C95.5556 304.84 112.736 266.23 124.406 229.42C125.256 226.75 126.086 224.06 126.916 221.37C139.196 181.63 152.886 142.47 177.396 113.76C186.506 103.09 195.786 91.9702 209.976 86.2202C226.856 79.3502 246.836 80.8902 264.466 84.3802C276.486 86.7502 288.036 89.9202 299.786 91.9002C305.306 92.8302 310.876 93.4802 316.566 93.6902C352.746 95.0302 390.306 76.8002 416.576 49.4102C442.876 21.9902 459.186 -13.4698 468.096 -50.3398" stroke="url(#paint27_linear_970_6281)" stroke-width="0.8669" stroke-miterlimit="10"/>
<path opacity="0.54" d="M-75.4141 437.53C-88.5641 420.57 -82.7241 394.64 -67.9941 379.32C-66.6741 377.95 -65.3041 376.65 -63.8741 375.42C-49.3441 362.88 -30.0941 357.19 -11.1341 353.41C-7.48411 352.68 -3.8141 352.02 -0.144104 351.37C17.0959 348.32 34.6159 345.49 50.6759 338.27C55.8659 335.94 60.7859 333.2 65.4259 330.06C96.8959 308.75 113.926 270.15 125.296 233.27C126.126 230.59 126.936 227.9 127.736 225.21C139.646 185.41 152.726 146.19 176.176 116.84C185.146 105.62 194.276 93.85 208.706 87.77C225.886 80.5 246.406 82.28 264.376 86.21C276.626 88.88 288.366 92.45 300.336 94.77C305.966 95.86 311.646 96.67 317.456 97.01C354.446 99.19 393.136 80.65 419.926 52.55C446.746 24.42 463.086 -12.03 471.996 -49.79" stroke="url(#paint28_linear_970_6281)" stroke-width="0.8669" stroke-miterlimit="10"/>
<path opacity="0.54" d="M-73.0238 442.87C-86.1838 425.93 -80.5238 400.07 -65.9638 384.6C-64.6638 383.22 -63.3038 381.91 -61.8938 380.66C-47.5038 367.98 -28.3738 362.06 -9.47379 358.06C-5.83379 357.29 -2.1838 356.58 1.4762 355.9C18.6562 352.66 36.1362 349.66 52.1362 342.37C57.3062 340.02 62.2062 337.26 66.8362 334.1C98.2262 312.67 115.116 274.07 126.186 237.13C126.986 234.45 127.776 231.75 128.556 229.06C140.096 189.21 152.546 149.91 174.966 119.94C183.776 108.16 192.766 95.7398 207.446 89.3298C224.926 81.6598 245.986 83.6798 264.286 88.0598C276.756 91.0398 288.686 94.9898 300.876 97.6598C306.606 98.9098 312.396 99.8698 318.336 100.35C356.136 103.36 395.956 84.5098 423.266 55.7098C450.606 26.8798 466.976 -10.5702 475.896 -49.2202" stroke="url(#paint29_linear_970_6281)" stroke-width="0.8669" stroke-miterlimit="10"/>
<path opacity="0.54" d="M-70.6476 448.21C-83.8076 431.3 -78.3376 405.5 -63.9576 389.89C-62.6776 388.5 -61.3276 387.17 -59.9376 385.91C-45.6976 373.08 -26.6776 366.93 -7.83761 362.71C-4.21761 361.9 -0.56761 361.15 3.08239 360.42C20.2124 357 37.6424 353.83 53.5824 346.46C58.7324 344.08 63.6224 341.31 68.2424 338.14C99.5624 316.59 116.302 278 127.082 240.99C127.862 238.3 128.632 235.6 129.382 232.91C140.552 193.01 152.352 153.6 173.752 123.03C182.402 110.68 191.252 97.6298 206.172 90.8898C223.952 82.8298 245.542 85.0798 264.182 89.8998C276.882 93.1798 288.992 97.5199 301.412 100.54C307.242 101.96 313.152 103.07 319.222 103.68C357.832 107.52 398.782 88.3698 426.612 58.8598C454.472 29.3198 470.872 -9.12016 479.802 -48.6602" stroke="url(#paint30_linear_970_6281)" stroke-width="0.8669" stroke-miterlimit="10"/>
<path opacity="0.54" d="M-68.2568 453.55C-81.4268 436.66 -76.1268 410.93 -61.9368 395.17C-60.6668 393.76 -59.3368 392.42 -57.9568 391.15C-43.8568 378.17 -24.9568 371.8 -6.18679 367.35C-2.57679 366.5 1.0532 365.71 4.6932 364.94C21.7632 361.33 39.1432 358 55.0332 350.55C60.1632 348.15 65.0332 345.36 69.6432 342.17C100.893 320.49 117.483 281.91 127.963 244.84C128.723 242.15 129.463 239.45 130.193 236.74C140.993 196.79 152.103 157.25 172.523 126.11C180.993 113.19 189.723 99.4999 204.893 92.4299C222.973 83.9699 245.103 86.4599 264.073 91.7199C276.993 95.2999 289.293 100.03 301.933 103.4C307.873 104.98 313.883 106.25 320.083 106.99C359.503 111.67 401.583 92.1999 429.933 61.9899C458.313 31.7499 474.743 -7.69012 483.683 -48.1201" stroke="url(#paint31_linear_970_6281)" stroke-width="0.8669" stroke-miterlimit="10"/>
<path opacity="0.54" d="M-65.8667 458.9C-79.0367 442.04 -73.9267 416.36 -59.9067 400.46C-58.6567 399.04 -57.3467 397.69 -55.9767 396.4C-42.0267 383.27 -23.2367 376.68 -4.52671 372.01C-0.926711 371.11 2.6933 370.28 6.3133 369.47C23.3233 365.67 40.6633 362.17 56.4933 354.65C61.6033 352.22 66.4633 349.42 71.0533 346.21C102.233 324.41 118.673 285.84 128.853 248.7C129.593 246 130.313 243.3 131.013 240.59C141.443 200.59 151.853 160.92 171.303 129.2C179.583 115.7 188.213 101.39 203.623 93.9899C222.003 85.1299 244.673 87.86 263.983 93.56C277.133 97.44 289.613 102.57 302.473 106.28C308.513 108.03 314.643 109.45 320.963 110.32C361.193 115.83 404.403 96.0599 433.273 65.1399C462.173 34.1899 478.633 -6.24006 487.583 -47.5601" stroke="url(#paint32_linear_970_6281)" stroke-width="0.8669" stroke-miterlimit="10"/>
<path opacity="0.54" d="M-63.4745 464.24C-76.6445 447.4 -71.7245 421.79 -57.8845 405.75C-56.6445 404.32 -55.3545 402.95 -53.9945 401.65C-40.1945 388.38 -21.5145 381.55 -2.86449 376.66C0.725506 375.72 4.32551 374.85 7.93551 374C24.8855 370.01 42.1855 366.35 57.9555 358.75C63.0455 356.3 67.8955 353.48 72.4755 350.25C103.586 328.33 119.876 289.77 129.756 252.56C130.476 249.86 131.166 247.15 131.846 244.44C141.906 204.39 151.576 164.58 170.096 132.3C178.176 118.21 186.705 103.28 202.355 95.56C221.035 86.31 244.245 89.27 263.885 95.42C277.255 99.6 289.926 105.12 303.016 109.18C309.166 111.09 315.405 112.67 321.855 113.67C362.896 120.02 407.235 99.93 436.625 68.31C466.045 36.66 482.535 -4.76998 491.485 -46.98" stroke="url(#paint33_linear_970_6281)" stroke-width="0.8669" stroke-miterlimit="10"/>
<path opacity="0.54" d="M-61.0957 469.58C-74.2757 452.77 -69.5258 427.22 -55.8658 411.03C-54.6458 409.58 -53.3657 408.2 -52.0257 406.89C-38.3657 393.47 -19.8057 386.42 -1.21574 381.31C2.35426 380.33 5.95425 379.41 9.54425 378.53C26.4342 374.35 43.6842 370.53 59.4142 362.85C64.4842 360.38 69.3142 357.53 73.8842 354.29C104.914 332.24 121.064 293.69 130.644 256.42C131.344 253.71 132.014 251 132.664 248.29C142.354 208.19 151.274 168.22 168.874 135.39C176.744 120.71 185.184 105.17 201.084 97.1098C220.064 87.4598 243.814 90.6498 263.784 97.2498C277.384 101.74 290.244 107.64 303.544 112.06C309.794 114.13 316.144 115.87 322.724 117C364.584 124.18 410.044 103.79 439.954 71.4498C469.894 39.0998 486.414 -3.33018 495.374 -46.4302" stroke="url(#paint34_linear_970_6281)" stroke-width="0.8669" stroke-miterlimit="10"/>
<path opacity="0.54" d="M-58.7044 474.92C-71.8844 458.13 -67.3244 432.65 -53.8444 416.31C-52.6444 414.85 -51.3744 413.46 -50.0544 412.13C-36.5444 398.56 -18.0944 391.28 0.435585 385.95C3.99558 384.93 7.57558 383.97 11.1656 383.04C27.9956 378.68 45.2056 374.68 60.8756 366.92C65.9256 364.42 70.7456 361.56 75.2956 358.31C106.256 336.14 122.246 297.6 131.546 260.26C132.216 257.55 132.876 254.83 133.506 252.11C142.826 211.96 150.966 171.84 167.676 138.46C175.316 123.19 183.686 107.03 199.836 98.6499C219.116 88.5999 243.406 92.0299 263.706 99.0699C277.536 103.86 290.576 110.15 304.096 114.92C310.456 117.16 316.916 119.05 323.626 120.31C366.296 128.32 412.886 107.62 443.316 74.5799C473.776 41.5199 490.336 -1.90014 499.296 -45.8901" stroke="url(#paint35_linear_970_6281)" stroke-width="0.8669" stroke-miterlimit="10"/>
<path opacity="0.54" d="M-56.315 480.27C-69.505 463.51 -65.125 438.09 -51.825 421.6C-50.635 420.13 -49.385 418.72 -48.075 417.38C-34.705 403.67 -16.375 396.16 2.08497 390.6C5.63497 389.53 9.20497 388.54 12.775 387.57C29.545 383.02 46.715 378.86 62.325 371.02C67.355 368.5 72.155 365.62 76.695 362.35C107.585 340.06 123.425 301.52 132.425 264.12C133.075 261.4 133.705 258.68 134.315 255.96C143.255 215.76 150.605 175.49 166.445 141.56C173.855 125.7 182.165 108.93 198.545 100.21C218.125 89.7702 242.955 93.4302 263.595 100.92C277.645 106.01 290.875 112.69 304.625 117.81C311.085 120.21 317.665 122.26 324.495 123.65C367.975 132.5 415.695 111.49 446.645 77.7402C477.625 43.9802 494.215 -0.449825 503.185 -45.3198" stroke="url(#paint36_linear_970_6281)" stroke-width="0.8669" stroke-miterlimit="10"/>
<path opacity="0.54" d="M-53.9243 485.61C-67.1143 468.87 -62.9143 443.51 -49.7943 426.89C-48.6243 425.41 -47.3843 423.98 -46.0943 422.63C-32.8743 408.77 -14.6543 401.03 3.7457 395.26C7.2857 394.15 10.8357 393.11 14.3957 392.1C31.1157 387.36 48.2257 383.04 63.7857 375.12C68.7957 372.57 73.5857 369.68 78.1157 366.39C108.936 343.97 124.626 305.45 133.326 267.98C133.956 265.26 134.566 262.53 135.146 259.81C143.716 219.55 150.246 179.13 165.236 144.65C172.396 128.19 180.656 110.81 197.286 101.77C217.166 90.9302 242.536 94.8302 263.506 102.76C277.786 108.15 291.196 115.23 305.166 120.69C311.726 123.25 318.416 125.46 325.376 126.98C369.666 136.66 418.506 115.34 449.986 80.8902C481.486 46.4202 498.106 1.00023 507.086 -44.7598" stroke="url(#paint37_linear_970_6281)" stroke-width="0.8669" stroke-miterlimit="10"/>
<path opacity="0.54" d="M-51.5473 490.95C-64.7473 474.24 -60.7273 448.94 -47.7873 432.17C-46.6273 430.67 -45.4073 429.24 -44.1373 427.87C-31.0673 413.86 -12.9573 405.9 5.38268 399.9C8.90268 398.75 12.4527 397.67 15.9927 396.62C32.6527 391.69 49.7227 387.21 65.2227 379.21C70.2127 376.64 74.9927 373.73 79.5027 370.42C110.253 347.88 125.793 309.36 134.193 271.83C134.803 269.1 135.383 266.37 135.943 263.65C144.143 223.34 149.823 182.77 163.993 147.74C170.893 130.69 179.113 112.7 195.993 103.32C216.183 92.08 242.083 96.22 263.383 104.59C277.883 110.29 291.483 117.75 305.683 123.56C312.353 126.29 319.153 128.65 326.243 130.3C371.343 140.81 421.313 119.19 453.313 84.03C485.333 48.86 501.983 2.44004 510.963 -44.21" stroke="url(#paint38_linear_970_6281)" stroke-width="0.8669" stroke-miterlimit="10"/>
<path opacity="0.54" d="M-49.1541 496.29C-62.3541 479.6 -58.5241 454.37 -45.7541 437.45C-44.6141 435.94 -43.4141 434.49 -42.1441 433.11C-29.2141 418.95 -11.2241 410.76 7.0559 404.55C10.5659 403.36 14.0959 402.23 17.6259 401.15C34.2259 396.04 51.2559 391.38 66.6959 383.31C71.6659 380.71 76.4259 377.79 80.9259 374.46C111.596 351.8 126.996 313.29 135.096 275.69C135.686 272.96 136.246 270.22 136.776 267.49C144.606 227.13 149.436 186.42 162.786 150.82C169.406 133.17 177.606 114.57 194.726 104.87C215.216 93.2398 241.656 97.6098 263.296 106.42C278.026 112.42 291.806 120.27 306.226 126.43C312.996 129.32 319.906 131.83 327.126 133.62C373.036 144.97 424.136 123.03 456.656 87.1698C489.186 51.2898 505.876 3.87984 514.866 -43.6602" stroke="url(#paint39_linear_970_6281)" stroke-width="0.8669" stroke-miterlimit="10"/>
<path opacity="0.54" d="M-46.7652 501.64C-59.9752 484.98 -56.3152 459.81 -43.7352 442.75C-42.6152 441.23 -41.4252 439.76 -40.1752 438.37C-27.3952 424.07 -9.5152 415.65 8.6948 409.21C12.1948 407.98 15.7148 406.81 19.2348 405.68C35.7748 400.38 52.7548 395.56 68.1448 387.41C73.0948 384.79 77.8448 381.85 82.3348 378.5C112.935 355.71 128.185 317.22 135.985 279.55C136.555 276.81 137.085 274.07 137.595 271.34C145.055 230.93 149.005 190.08 161.575 153.92C167.915 135.68 176.105 116.46 193.465 106.43C214.255 94.4002 241.235 99.0102 263.205 108.27C278.155 114.57 292.125 122.81 306.765 129.32C313.645 132.38 320.665 135.04 328.015 136.96C374.735 149.14 426.965 126.9 460.005 90.3302C493.055 53.7502 509.775 5.34016 518.775 -43.0898" stroke="url(#paint40_linear_970_6281)" stroke-width="0.8669" stroke-miterlimit="10"/>
<path opacity="0.54" d="M-44.3763 506.98C-57.5863 490.34 -54.1163 465.24 -41.7063 448.03C-40.5963 446.49 -39.4263 445.02 -38.1863 443.6C-25.5463 429.15 -7.78633 420.5 10.3637 413.84C13.8437 412.56 17.3537 411.36 20.8637 410.19C37.3437 404.7 54.2837 399.72 69.6237 391.49C74.5537 388.85 79.2837 385.88 83.7637 382.53C114.294 359.62 129.394 321.13 136.904 283.4C137.454 280.66 137.964 277.92 138.444 275.18C145.534 234.72 148.594 193.74 160.384 157C166.424 138.16 174.614 118.34 192.224 107.98C213.314 95.5502 240.834 100.4 263.134 110.1C278.314 116.7 292.474 125.34 307.334 132.19C314.314 135.41 321.454 138.23 328.924 140.28C376.454 153.3 429.814 130.74 463.384 93.4602C496.954 56.1802 513.704 6.7702 522.714 -42.5498" stroke="url(#paint41_linear_970_6281)" stroke-width="0.8669" stroke-miterlimit="10"/>
<path opacity="0.54" d="M-41.9957 512.32C-55.2157 495.71 -51.9157 470.66 -39.6957 453.31C-38.6057 451.76 -37.4457 450.27 -36.2257 448.84C-23.7357 434.24 -6.08568 425.37 12.0043 418.49C15.4743 417.17 18.9743 415.92 22.4643 414.72C38.8843 409.04 55.7843 403.89 71.0643 395.59C75.9743 392.92 80.6943 389.94 85.1543 386.57C115.614 363.54 130.564 325.06 137.774 287.26C138.294 284.51 138.784 281.77 139.244 279.02C145.964 238.51 148.124 197.41 159.144 160.09C164.884 140.66 173.074 120.22 190.924 109.53C212.314 96.71 240.374 101.79 263.004 111.93C278.404 118.83 292.754 127.86 307.834 135.06C314.914 138.44 322.164 141.42 329.764 143.6C378.104 157.45 432.594 134.58 466.684 96.6C500.774 58.61 517.554 8.21 526.574 -42" stroke="url(#paint42_linear_970_6281)" stroke-width="0.8669" stroke-miterlimit="10"/>
<path opacity="0.54" d="M-39.6062 517.66C-52.8262 501.07 -49.7162 476.09 -37.6762 458.59C-36.5962 457.03 -35.4562 455.52 -34.2562 454.08C-21.9062 439.34 -4.37615 430.24 13.6538 423.13C17.1138 421.77 20.5938 420.48 24.0738 419.23C40.4338 413.36 57.2838 408.05 72.5138 399.67C77.4038 396.98 82.1139 393.98 86.5639 390.59C116.954 367.44 131.744 328.96 138.664 291.1C139.164 288.35 139.634 285.6 140.064 282.85C146.414 242.29 147.654 201.08 157.924 163.16C163.344 143.14 171.564 122.09 189.654 111.07C211.344 97.8498 239.944 103.16 262.914 113.76C278.544 120.97 293.074 130.38 308.384 137.93C315.574 141.48 322.934 144.61 330.664 146.92C379.814 161.6 435.434 138.43 470.044 99.7398C504.654 61.0498 521.464 9.6498 530.494 -41.4502" stroke="url(#paint43_linear_970_6281)" stroke-width="0.8669" stroke-miterlimit="10"/>
<path opacity="0.54" d="M-37.2155 523.01C-50.4455 506.45 -47.5155 481.53 -35.6455 463.89C-34.5855 462.32 -33.4555 460.8 -32.2655 459.34C-20.0655 444.45 -2.64547 435.12 15.3245 427.8C18.7745 426.4 22.2445 425.06 25.7045 423.78C42.0145 417.73 58.8145 412.25 73.9845 403.79C78.8545 401.07 83.5445 398.06 87.9845 394.65C118.295 371.37 132.945 332.91 139.565 294.98C140.045 292.22 140.485 289.47 140.895 286.72C146.875 246.11 147.185 204.8 156.715 166.28C161.815 145.67 170.055 124 188.395 112.65C210.385 99.0299 239.525 104.58 262.825 115.62C278.685 123.13 293.395 132.93 308.925 140.83C316.215 144.54 323.695 147.83 331.545 150.27C381.505 165.79 438.255 142.3 473.385 102.91C508.515 63.5099 525.355 11.1199 534.385 -40.8701" stroke="url(#paint44_linear_970_6281)" stroke-width="0.8669" stroke-miterlimit="10"/>
<path opacity="0.54" d="M-34.8372 528.35C-48.0672 511.81 -45.3172 486.96 -33.6372 469.17C-32.5972 467.58 -31.4772 466.05 -30.3072 464.58C-18.2572 449.54 -0.947172 439.99 16.9528 432.44C20.3828 430.99 23.8428 429.62 27.3028 428.29C43.5528 422.05 60.3128 416.4 75.4228 407.87C80.2728 405.13 84.9528 402.1 89.3728 398.67C119.613 375.27 134.113 336.81 140.433 298.82C140.893 296.06 141.313 293.3 141.693 290.55C147.303 249.89 146.673 208.49 155.473 169.35C160.233 148.16 168.513 125.87 187.093 114.19C209.383 100.18 239.063 105.96 262.693 117.44C278.773 125.25 293.673 135.44 309.423 143.7C316.823 147.57 324.403 151.02 332.383 153.59C383.153 169.94 441.033 146.15 476.683 106.05C512.333 65.9502 529.203 12.5602 538.243 -40.3198" stroke="url(#paint45_linear_970_6281)" stroke-width="0.8669" stroke-miterlimit="10"/>
<path opacity="0.54" d="M-32.4466 533.69C-45.6766 517.18 -43.1166 492.39 -31.6066 474.45C-30.5766 472.85 -29.4866 471.3 -28.3166 469.82C-16.4066 454.63 0.783379 444.85 18.6234 437.09C22.0434 435.6 25.4934 434.19 28.9334 432.82C45.1234 426.39 61.8334 420.58 76.8934 411.97C81.7334 409.21 86.3834 406.16 90.8034 402.72C120.973 379.2 135.323 340.75 141.353 302.69C141.793 299.92 142.183 297.16 142.543 294.4C147.783 253.68 146.213 212.21 154.283 172.45C158.703 150.68 167.023 127.76 185.853 115.75C208.443 101.34 238.663 107.36 262.623 119.28C278.933 127.39 294.013 137.98 309.993 146.58C317.493 150.62 325.193 154.22 333.303 156.92C384.883 174.1 443.893 150 480.063 109.2C516.233 68.3902 533.143 14.0102 542.183 -39.7598" stroke="url(#paint46_linear_970_6281)" stroke-width="0.8669" stroke-miterlimit="10"/>
<path opacity="0.54" d="M-30.0575 539.03C-44.4775 521.07 -40.3675 493.34 -26.3475 475.06C-12.3275 456.79 9.23246 446.08 30.5425 437.34C51.8525 428.6 74.1025 420.97 92.2125 406.75C124.492 381.39 138.492 339 143.352 298.24C148.222 257.47 145.692 215.93 153.052 175.54C157.122 153.19 165.502 129.65 184.572 117.31C207.462 102.5 238.222 108.76 262.522 121.13C286.822 133.5 308.392 151.39 334.172 160.26C386.562 178.28 446.702 153.87 483.392 112.36C520.082 70.85 537.022 15.4701 546.072 -39.1899" stroke="url(#paint47_linear_970_6281)" stroke-width="0.8669" stroke-miterlimit="10"/>
<path opacity="0.54" d="M-7.58834 352.582C5.43051 335.437 32.4145 334.9 50.6935 345.953C52.3292 346.938 53.9035 348.003 55.4207 349.124C70.9182 360.58 80.6979 378.337 88.535 396.113C90.0459 399.537 91.5041 402.996 92.9526 406.457C99.7569 422.722 106.493 439.233 117.429 453.121C120.963 457.621 124.843 461.717 129.039 465.447C157.457 490.625 199.371 497.512 237.991 500.02C240.797 500.201 243.612 500.379 246.434 500.544C288.15 503.081 329.956 507.625 362.942 527.53C374.198 534.326 385.535 541.379 393.656 553.11C403.329 567.041 407.334 584.978 409.621 601.59C411.186 612.916 412.132 624.058 414.141 634.994C415.092 640.134 416.281 645.231 417.844 650.298C427.816 682.562 453.473 710.998 484.339 728.215C515.252 745.45 550.837 752.576 586.172 752.185" stroke="url(#paint48_linear_970_6281)" stroke-width="0.8669" stroke-miterlimit="10"/>
<path opacity="0.54" d="M-12.1161 356.289C0.880856 339.139 27.7528 338.457 46.1266 349.287C47.7694 350.26 49.3577 351.3 50.8793 352.4C66.4725 363.674 76.4454 381.264 84.479 398.926C86.0259 402.329 87.5201 405.768 89.0046 409.209C95.9765 425.366 102.854 441.787 113.854 455.605C117.412 460.079 121.299 464.162 125.508 467.868C154.025 492.946 195.89 499.692 234.501 501.902C237.301 502.063 240.118 502.209 242.935 502.355C284.602 504.522 326.24 508.563 359.631 527.176C371.355 533.71 383.314 540.418 391.819 552.303C401.956 566.419 405.881 584.938 407.823 601.995C409.149 613.625 409.775 625.04 411.507 636.29C412.321 641.571 413.396 646.823 414.868 652.05C424.242 685.316 450.494 714.761 482.182 732.294C513.907 749.847 550.467 756.749 586.66 756.124" stroke="url(#paint49_linear_970_6281)" stroke-width="0.8669" stroke-miterlimit="10"/>
<path opacity="0.54" d="M-16.64 359.995C-3.672 342.854 23.1018 342.002 41.5539 352.624C43.201 353.575 44.7938 354.593 46.3347 355.687C62.0359 366.787 72.1993 384.201 80.4294 401.747C82.0096 405.121 83.5398 408.539 85.0603 411.96C92.1902 428.012 99.2312 444.347 110.283 458.089C113.855 462.538 117.756 466.597 121.982 470.288C150.595 495.267 192.411 501.871 231.012 503.773C233.817 503.912 236.628 504.039 239.437 504.156C281.056 505.953 322.559 509.46 356.332 526.809C368.533 533.078 381.093 539.447 389.982 551.487C400.584 565.787 404.419 584.89 406.013 602.384C407.111 614.314 407.408 626.005 408.859 637.559C409.547 642.989 410.494 648.379 411.876 653.765C420.661 688.031 447.508 718.485 480.018 736.333C512.564 754.202 550.088 760.874 587.143 760.025" stroke="url(#paint50_linear_970_6281)" stroke-width="0.8669" stroke-miterlimit="10"/>
<path opacity="0.54" d="M-21.1702 363.693C-8.22415 346.547 18.4349 345.539 36.9872 355.958C38.6484 356.885 40.2481 357.89 41.7935 358.962C57.6001 369.879 67.9469 387.129 76.371 404.549C77.9872 407.903 79.563 411.298 81.1168 414.689C88.4143 430.634 95.5993 446.888 106.715 460.561C110.31 464.983 114.219 469.03 118.461 472.705C147.182 497.583 188.946 504.035 227.529 505.641C230.328 505.761 233.142 505.857 235.955 505.952C277.525 507.379 318.904 510.318 353.038 526.44C365.724 532.432 378.889 538.471 388.159 550.656C399.216 565.143 402.971 584.827 404.227 602.755C405.093 614.976 405.063 626.953 406.234 638.811C406.785 644.382 407.618 649.927 408.908 655.473C417.105 690.738 444.548 722.201 477.87 740.367C511.228 758.555 549.724 764.993 587.64 763.92" stroke="url(#paint51_linear_970_6281)" stroke-width="0.8669" stroke-miterlimit="10"/>
<path opacity="0.54" d="M-25.7056 367.402C-12.7885 350.264 13.7654 349.098 32.4126 359.294C34.0808 360.209 35.6946 361.19 37.2567 362.247C53.1687 372.979 63.7085 390.063 72.3292 407.368C73.991 410.699 75.5905 414.067 77.1804 417.438C84.6455 433.274 91.9717 449.439 103.151 463.043C106.761 467.44 110.696 471.469 114.943 475.123C143.761 499.902 185.476 506.211 224.047 507.51C226.851 507.608 229.659 507.684 232.465 507.75C273.995 508.804 315.273 511.139 349.746 526.07C362.926 531.783 376.679 537.506 386.331 549.836C397.852 564.508 401.517 584.776 402.438 603.148C403.074 615.67 402.709 627.935 403.609 640.094C404.034 645.813 404.742 651.507 405.938 657.202C413.537 693.469 441.576 725.942 475.718 744.423C509.898 762.926 549.358 769.134 588.133 767.828" stroke="url(#paint52_linear_970_6281)" stroke-width="0.8669" stroke-miterlimit="10"/>
<path opacity="0.54" d="M-30.2296 371.109C-17.3345 353.967 9.10473 352.646 27.8521 362.638C29.5247 363.531 31.1455 364.5 32.7216 365.532C48.732 376.093 59.4624 393 68.2796 410.189C69.9774 413.5 71.6199 416.836 73.236 420.19C80.8688 435.918 88.3485 451.999 99.58 465.527C103.204 469.9 107.152 473.904 111.416 477.543C140.329 502.213 182.008 508.388 220.558 509.381C223.354 509.45 226.167 509.504 228.967 509.551C270.449 510.235 311.638 511.941 346.44 525.716C360.118 531.127 374.461 536.545 384.497 549.03C396.483 563.886 400.058 584.738 400.631 603.547C401.026 616.362 400.344 628.91 400.964 641.374C401.261 647.231 401.853 653.07 402.948 658.928C409.958 696.194 438.593 729.676 473.547 748.475C508.539 767.296 548.972 773.271 588.608 771.741" stroke="url(#paint53_linear_970_6281)" stroke-width="0.8669" stroke-miterlimit="10"/>
<path opacity="0.54" d="M-34.76 374.806C-21.8938 357.672 4.43767 356.183 23.2729 365.965C24.9499 366.836 26.5874 367.79 28.1679 368.801C44.2837 379.177 55.2072 395.918 64.221 412.991C65.9521 416.272 67.6332 419.598 69.295 422.929C77.0883 438.562 84.719 454.55 96.0119 467.999C99.6594 472.344 103.615 476.337 107.886 479.963C136.896 504.535 178.526 510.567 217.068 511.262C219.868 511.309 222.675 511.344 225.468 511.362C266.901 511.676 308.026 512.726 343.139 525.358C357.325 530.466 372.24 535.583 382.657 548.213C395.098 563.257 398.59 584.681 398.828 603.933C398.994 617.048 397.982 629.873 398.325 642.65C398.484 648.648 398.963 654.642 399.967 660.66C406.388 698.925 435.608 733.419 471.385 752.534C507.198 771.671 548.594 777.414 589.092 775.661" stroke="url(#paint54_linear_970_6281)" stroke-width="0.8669" stroke-miterlimit="10"/>
<path opacity="0.54" d="M-39.2855 378.513C-26.4412 361.374 -0.221856 359.74 18.7083 369.3C20.402 370.155 22.044 371.087 23.6315 372.086C39.8553 382.288 50.9595 398.855 60.1769 415.801C61.944 419.062 63.6585 422.357 65.3562 425.668C73.3171 441.193 81.0892 457.091 92.4461 470.471C96.1076 474.792 100.077 478.76 104.365 482.372C133.482 506.841 175.063 512.731 213.584 513.121C216.379 513.149 219.179 513.155 221.985 513.148C263.369 513.092 304.439 513.442 339.845 524.979C354.534 529.764 370.034 534.598 380.836 547.382C393.742 562.61 397.144 584.618 397.043 604.304C396.977 617.711 395.639 630.821 395.703 643.902C395.736 650.048 396.087 656.181 396.999 662.358C402.822 701.626 432.648 737.125 469.236 756.559C505.861 776.014 548.229 781.524 589.589 779.547" stroke="url(#paint55_linear_970_6281)" stroke-width="0.8669" stroke-miterlimit="10"/>
<path opacity="0.54" d="M-43.821 382.223C-31.0056 365.092 -4.88441 363.287 14.1362 372.646C15.8344 373.48 17.4807 374.39 19.0849 375.374C35.4141 385.391 46.7018 401.795 56.1157 418.625C57.9285 421.863 59.6789 425.139 61.41 428.419C69.5385 443.837 77.4641 459.652 88.8728 472.955C92.5581 477.249 96.5348 481.205 100.836 484.792C130.051 509.162 171.583 514.91 210.093 514.992C212.892 514.998 215.687 514.985 218.485 514.95C259.821 514.523 300.832 514.163 336.543 524.613C351.742 529.062 367.815 533.636 378.998 546.566C392.368 561.978 395.68 584.571 395.244 604.7C394.949 618.407 393.272 631.796 393.065 645.179C392.961 651.466 393.198 657.754 394.016 664.081C399.251 704.348 429.663 740.859 467.072 760.609C504.519 780.379 547.851 785.658 590.072 783.457" stroke="url(#paint56_linear_970_6281)" stroke-width="0.8669" stroke-miterlimit="10"/>
<path opacity="0.54" d="M-48.3466 385.93C-35.5505 368.804 -9.54671 366.835 9.56181 375.983C11.267 376.805 12.9274 377.69 14.5386 378.662C30.9636 388.498 42.454 404.733 52.0645 421.447C53.9132 424.665 55.697 427.911 57.4641 431.171C65.7602 446.481 73.8297 462.216 85.3 475.44C88.9992 479.709 92.9926 483.65 97.3108 487.222C126.623 511.494 168.106 517.099 206.605 516.874C209.399 516.86 212.195 516.815 214.988 516.761C256.275 515.964 297.227 514.853 333.235 524.258C348.951 528.36 365.596 532.675 377.15 545.752C390.976 561.352 394.207 584.526 393.424 605.091C392.897 619.09 390.894 632.764 390.409 646.461C390.179 652.896 390.291 659.332 391.018 665.819C395.654 707.087 426.671 744.606 464.893 764.673C503.151 784.761 547.456 789.807 590.535 787.373" stroke="url(#paint57_linear_970_6281)" stroke-width="0.8669" stroke-miterlimit="10"/>
<path opacity="0.54" d="M-52.8771 389.628C-40.1126 372.5 -14.2112 370.382 4.99482 379.317C6.71404 380.114 8.38142 380.988 9.99702 381.937C26.5301 391.599 38.2013 407.66 48.0084 424.259C49.8905 427.447 51.7225 430.679 53.5133 433.913C61.977 449.115 70.1878 464.759 81.7248 477.924C85.4381 482.169 89.4552 486.082 93.7804 489.642C123.197 513.802 164.634 519.276 203.111 518.745C205.91 518.71 208.701 518.645 211.487 518.562C252.724 517.395 293.635 515.519 329.931 523.891C346.162 527.635 363.371 531.704 375.32 544.933C389.61 560.718 392.761 584.473 391.63 605.475C390.864 619.776 388.544 633.734 387.767 647.727C387.409 654.301 387.395 660.885 388.031 667.531C392.082 709.809 423.681 748.329 462.734 768.71C501.805 789.117 547.082 793.929 591.023 791.271" stroke="url(#paint58_linear_970_6281)" stroke-width="0.8669" stroke-miterlimit="10"/>
<path opacity="0.54" d="M-57.4053 393.334C-44.6601 376.212 -18.8762 373.929 0.427407 382.651C2.15104 383.426 3.82547 384.287 5.45513 385.212C22.0936 394.69 33.958 410.584 43.9616 427.068C45.8796 430.235 47.745 433.438 49.5841 436.659C58.2058 451.756 66.5797 467.314 78.1781 480.4C81.9152 484.618 85.9393 488.519 90.2689 492.057C119.783 516.118 161.168 521.44 199.64 520.62C202.431 520.556 205.229 520.479 208.019 520.374C249.207 518.837 290.058 516.169 326.652 523.538C343.391 526.906 361.181 530.744 373.504 544.131C388.259 560.1 391.32 584.439 389.851 605.875C388.856 620.477 386.206 634.71 385.15 649.008C384.656 655.733 384.527 662.462 385.071 669.268C388.533 712.545 420.728 752.074 460.593 772.773C500.485 793.495 546.728 798.087 591.528 795.195" stroke="url(#paint59_linear_970_6281)" stroke-width="0.8669" stroke-miterlimit="10"/>
<path opacity="0.54" d="M-61.9401 397.044C-49.2265 379.92 -23.5476 377.479 -4.14643 385.988C-2.41578 386.751 -0.727307 387.587 0.909378 388.5C17.6462 397.806 29.7011 413.524 39.9083 429.88C41.8719 433.025 43.7637 436.21 45.6361 439.401C54.4254 454.39 62.9432 469.868 74.6031 482.875C78.3542 487.068 82.3923 490.944 86.7387 494.468C116.35 518.43 157.696 523.607 196.147 522.482C198.942 522.396 201.732 522.29 204.517 522.166C245.654 520.248 286.442 516.779 323.339 523.165C340.587 526.155 358.95 529.776 371.661 543.295C386.871 559.451 389.852 584.372 388.038 606.254C386.811 621.147 383.835 635.666 382.501 650.277C381.879 657.141 381.627 664.028 382.077 670.984C384.941 715.263 417.732 755.801 458.418 776.815C499.122 797.856 546.348 802.211 592 799.098" stroke="url(#paint60_linear_970_6281)" stroke-width="0.8669" stroke-miterlimit="10"/>
<path opacity="0.54" d="M-66.4647 400.751C-53.7704 383.632 -28.1967 381.033 -8.71735 389.335C-6.98228 390.076 -5.2771 390.897 -3.63601 391.788C13.2062 400.91 25.4541 416.462 35.8483 432.704C37.8479 435.829 39.7827 438.982 41.691 442.152C50.6506 457.044 59.3071 472.421 71.031 485.359C74.8058 489.525 78.851 493.389 83.214 496.898C112.933 520.758 154.22 525.796 192.66 524.363C195.45 524.257 198.244 524.13 201.021 523.976C242.119 521.687 282.837 517.386 320.041 522.808C337.803 525.4 356.741 528.812 369.827 542.488C385.501 558.829 388.392 584.334 386.24 606.65C384.784 621.844 381.469 636.641 379.865 651.554C379.115 658.556 378.737 665.591 379.096 672.706C381.372 717.985 414.755 759.523 456.256 780.865C497.781 802.221 545.97 806.346 592.484 803.009" stroke="url(#paint61_linear_970_6281)" stroke-width="0.8669" stroke-miterlimit="10"/>
<path opacity="0.54" d="M-70.9927 404.448C-58.3299 387.327 -32.8613 384.571 -13.2844 392.659C-11.5326 393.385 -9.83272 394.187 -8.17758 395.053C8.77005 403.991 21.2015 419.379 31.8018 435.503C33.8348 438.598 35.8081 441.741 37.7498 444.882C46.877 459.665 55.6774 474.962 67.4628 487.821C71.2517 491.963 75.3135 495.812 79.6906 499.296C109.507 523.057 150.754 527.95 189.174 526.212C191.968 526.085 194.754 525.928 197.526 525.755C238.576 523.095 279.215 517.935 316.735 522.421C334.998 524.608 354.514 527.821 367.993 541.65C384.135 558.185 386.934 584.264 384.443 607.014C382.746 622.501 379.115 637.582 377.232 652.808C376.348 659.961 375.854 667.142 376.121 674.416C377.808 720.694 411.778 763.244 454.1 784.901C496.438 806.576 545.599 810.467 592.972 806.897" stroke="url(#paint62_linear_970_6281)" stroke-width="0.8669" stroke-miterlimit="10"/>
<path opacity="0.54" d="M-75.5214 408.155C-62.878 391.039 -37.5267 388.118 -17.8497 396.003C-16.0935 396.707 -14.3795 397.484 -12.7147 398.348C4.34092 407.111 16.9628 422.323 27.75 438.335C29.819 441.41 31.8353 444.52 33.8034 447.643C43.0885 462.321 52.0521 477.533 63.8893 490.315C67.7019 494.429 71.7682 498.257 76.1619 501.726C106.073 525.379 147.274 530.139 185.682 528.093C188.471 527.946 191.262 527.768 194.036 527.564C235.036 524.533 275.588 518.516 313.443 522.061C332.212 523.82 352.311 526.855 366.162 540.831C382.759 557.553 385.477 584.214 382.651 607.407C380.725 623.195 376.764 638.551 374.602 654.082C373.589 661.373 372.979 668.7 373.146 676.136C374.235 723.416 408.81 766.972 451.944 788.948C495.1 810.928 545.228 814.599 593.461 810.805" stroke="url(#paint63_linear_970_6281)" stroke-width="0.8669" stroke-miterlimit="10"/>
<path opacity="0.54" d="M-80.0553 411.865C-67.4434 394.747 -42.1946 391.677 -22.4323 399.342C-20.6718 400.024 -18.9411 400.787 -17.2719 401.629C-0.120491 410.211 12.6945 425.256 23.6853 441.14C25.7903 444.194 27.8425 447.284 29.8562 450.385C39.309 464.955 48.4139 480.077 60.3152 492.79C64.1418 496.88 68.2247 500.692 72.6351 504.146C102.653 527.698 143.796 532.318 182.193 529.965C184.986 529.796 187.769 529.589 190.538 529.365C231.489 525.964 271.945 519.062 310.136 521.707C329.401 523.041 350.096 525.903 364.328 540.024C381.39 556.931 384.018 584.176 380.845 607.805C378.686 623.884 374.399 639.527 371.957 655.362C370.809 662.803 370.083 670.275 370.158 677.871C370.659 726.15 405.819 770.719 449.775 793.01C493.743 815.308 544.844 818.745 593.939 814.728" stroke="url(#paint64_linear_970_6281)" stroke-width="0.8669" stroke-miterlimit="10"/>
<path opacity="0.54" d="M-84.581 415.571C-71.9884 398.459 -46.8571 395.224 -26.9946 402.686C-25.2174 403.353 -23.492 404.097 -21.7964 404.921C-4.53699 413.328 8.46844 428.197 19.6558 443.965C21.8038 446.988 23.8824 450.06 25.932 453.14C35.5524 467.603 44.8012 482.644 56.7666 495.288C60.6073 499.353 64.7139 503.139 69.1217 506.583C99.2373 530.035 140.34 534.511 178.719 531.862C181.507 531.674 184.285 531.447 187.055 531.192C227.958 527.421 268.306 519.626 306.852 521.366C326.617 522.253 347.891 524.958 362.507 539.234C380.034 556.325 382.572 584.154 379.061 608.218C376.673 624.597 372.05 640.528 369.337 656.664C368.061 664.244 367.212 671.874 367.193 679.62C367.096 728.901 402.862 774.476 447.642 797.092C492.421 819.709 544.495 822.913 594.451 818.671" stroke="url(#paint65_linear_970_6281)" stroke-width="0.8669" stroke-miterlimit="10"/>
<path opacity="0.54" d="M-89.1119 419.269C-76.5509 402.155 -51.5123 398.769 -31.5646 406.011C-29.783 406.656 -28.0408 407.385 -26.3409 408.187C-8.97607 416.41 4.21278 431.116 15.5967 446.768C17.7807 449.77 19.9049 452.82 21.9783 455.873C31.7662 470.228 41.1686 485.186 53.1858 497.754C57.0502 501.791 61.1639 505.564 65.5857 508.984C95.7987 532.337 136.853 536.671 175.22 533.714C178.011 533.495 180.783 533.249 183.558 532.971C224.412 528.831 264.639 520.135 303.543 520.981C323.799 521.423 345.671 523.965 360.669 538.387C378.65 555.665 381.108 584.075 377.259 608.572C374.639 625.243 369.689 641.459 366.697 657.9C365.292 665.618 364.318 673.396 364.208 681.302C363.522 731.582 399.883 778.166 445.475 801.101C491.076 824.033 544.113 827.006 594.931 822.54" stroke="url(#paint66_linear_970_6281)" stroke-width="0.8669" stroke-miterlimit="10"/>
<path opacity="0.54" d="M-93.6385 422.976C-81.0968 405.867 -56.1757 402.317 -36.1304 409.345C-34.3417 409.978 -32.5856 410.682 -30.8813 411.462C-13.4181 419.514 -0.0387193 434.043 11.5514 449.577C13.7713 452.559 15.929 455.579 18.048 458.609C28.0035 472.857 37.5472 487.724 49.6285 500.223C53.5069 504.236 57.6373 507.994 62.0758 511.399C92.3863 534.653 133.398 538.833 171.748 535.58C174.533 535.341 177.31 535.074 180.076 534.767C220.882 530.256 260.974 520.644 300.26 520.609C321.001 520.588 343.47 522.999 358.849 537.565C377.295 555.028 379.673 584.02 375.468 608.966C372.611 625.94 367.341 642.429 364.071 659.183C362.531 667.053 361.441 674.976 361.24 683.041C359.965 734.321 396.912 781.916 443.326 805.166C489.739 828.417 543.749 831.157 595.428 826.467" stroke="url(#paint67_linear_970_6281)" stroke-width="0.8669" stroke-miterlimit="10"/>
<path opacity="0.54" d="M-98.1719 426.685C-85.6618 409.575 -60.8457 405.866 -40.71 412.694C-38.9169 413.305 -37.1537 413.997 -35.4327 414.762C-17.864 422.63 -4.29163 436.993 7.48544 452.413C9.74132 455.375 11.9446 458.372 14.0873 461.376C24.2034 475.528 33.898 490.302 46.0408 502.722C49.9429 506.708 54.0777 510.444 58.5328 513.835C88.9478 536.977 129.904 541.027 168.242 537.466C171.031 537.206 173.801 536.909 176.562 536.583C217.318 531.702 257.264 521.166 296.935 520.259C318.161 519.775 341.233 522.043 356.996 536.763C375.907 554.411 378.195 583.987 373.652 609.367C370.565 626.641 364.967 643.407 361.417 660.465C359.749 668.473 358.536 676.554 358.24 684.769C356.368 737.051 393.92 785.653 441.145 809.221C488.38 832.787 543.353 835.296 595.891 830.373" stroke="url(#paint68_linear_970_6281)" stroke-width="0.8669" stroke-miterlimit="10"/>
<path opacity="0.54" d="M-102.702 430.383C-90.2115 413.278 -65.5102 409.413 -45.2795 416.018C-43.4724 416.605 -41.7022 417.284 -39.9768 418.028C-22.3028 425.711 -8.5469 439.91 3.43375 455.203C5.73264 458.133 7.96222 461.112 10.1532 464.102C20.4369 478.147 30.2851 492.838 42.4796 505.182C46.3958 509.143 50.5472 512.865 55.0165 516.23C85.5289 539.274 126.446 543.179 164.763 539.313C167.547 539.033 170.321 538.714 173.074 538.36C213.782 533.109 253.567 521.642 293.645 519.868C315.342 518.903 339.023 521.047 355.168 535.913C374.533 553.748 376.741 583.905 371.86 609.718C368.541 627.284 362.616 644.335 358.777 661.7C356.983 669.856 355.642 678.076 355.255 686.45C352.794 739.731 390.932 789.345 438.979 813.229C487.026 837.113 542.971 839.389 596.371 834.242" stroke="url(#paint69_linear_970_6281)" stroke-width="0.8669" stroke-miterlimit="10"/>
<path opacity="0.54" d="M-107.23 434.09C-94.7679 416.993 -70.1744 412.961 -49.8435 419.362C-48.0294 419.937 -46.2477 420.582 -44.5127 421.323C-26.7306 428.832 -12.7842 442.855 -0.616655 458.035C1.71821 460.944 3.9837 463.903 6.20801 466.864C16.6594 480.8 26.6489 495.401 38.9075 507.676C42.8403 511.622 47.0032 515.31 51.4821 518.673C82.0919 541.617 122.96 545.38 161.269 541.216C164.057 540.914 166.823 540.566 169.581 540.19C210.249 534.566 249.856 522.174 290.34 519.533C312.507 518.088 336.807 520.105 353.336 535.126C373.166 553.145 375.283 583.886 370.065 610.134C366.517 628 360.253 645.329 356.146 663.006C354.214 671.303 352.76 679.677 352.282 688.212C349.232 742.492 387.966 793.115 436.825 817.317C485.693 841.517 542.604 843.571 596.863 838.191" stroke="url(#paint70_linear_970_6281)" stroke-width="0.8669" stroke-miterlimit="10"/>
<path opacity="0.54" d="M-111.754 437.797C-98.2047 419.171 -70.3676 415.864 -49.0503 424.598C-27.7426 433.335 -11.7526 451.331 2.27083 469.603C16.2942 487.874 29.493 507.344 47.9652 521.09C80.9041 545.588 125.482 547.98 166.09 541.979C206.71 535.985 246.132 522.648 287.038 519.156C309.673 517.221 334.587 519.134 351.497 534.299C371.792 552.503 373.819 583.828 368.256 610.522C362.693 637.216 351.087 662.723 349.289 689.927C345.641 745.209 384.971 796.841 434.651 821.359C484.331 845.877 542.215 847.698 597.335 842.095" stroke="url(#paint71_linear_970_6281)" stroke-width="0.8669" stroke-miterlimit="10"/>
<defs>
<linearGradient id="paint0_linear_970_6281" x1="1549.69" y1="259.678" x2="1013.86" y2="735.105" gradientUnits="userSpaceOnUse">
<stop stop-color="#7ED4EF"/>
<stop offset="0.2294" stop-color="#66BFE6"/>
<stop offset="0.711" stop-color="#298BD0"/>
<stop offset="1" stop-color="#0169C2"/>
</linearGradient>
<linearGradient id="paint1_linear_970_6281" x1="1553.46" y1="260.085" x2="1014.41" y2="738.372" gradientUnits="userSpaceOnUse">
<stop stop-color="#7ED4EF"/>
<stop offset="0.2294" stop-color="#66BFE6"/>
<stop offset="0.711" stop-color="#298BD0"/>
<stop offset="1" stop-color="#0169C2"/>
</linearGradient>
<linearGradient id="paint2_linear_970_6281" x1="1557.18" y1="260.435" x2="1014.9" y2="741.581" gradientUnits="userSpaceOnUse">
<stop stop-color="#7ED4EF"/>
<stop offset="0.2294" stop-color="#66BFE6"/>
<stop offset="0.711" stop-color="#298BD0"/>
<stop offset="1" stop-color="#0169C2"/>
</linearGradient>
<linearGradient id="paint3_linear_970_6281" x1="1560.86" y1="260.745" x2="1015.36" y2="744.751" gradientUnits="userSpaceOnUse">
<stop stop-color="#7ED4EF"/>
<stop offset="0.2294" stop-color="#66BFE6"/>
<stop offset="0.711" stop-color="#298BD0"/>
<stop offset="1" stop-color="#0169C2"/>
</linearGradient>
<linearGradient id="paint4_linear_970_6281" x1="1564.52" y1="261.026" x2="1015.8" y2="747.891" gradientUnits="userSpaceOnUse">
<stop stop-color="#7ED4EF"/>
<stop offset="0.2294" stop-color="#66BFE6"/>
<stop offset="0.711" stop-color="#298BD0"/>
<stop offset="1" stop-color="#0169C2"/>
</linearGradient>
<linearGradient id="paint5_linear_970_6281" x1="1568.16" y1="261.285" x2="1016.21" y2="751.01" gradientUnits="userSpaceOnUse">
<stop stop-color="#7ED4EF"/>
<stop offset="0.2294" stop-color="#66BFE6"/>
<stop offset="0.711" stop-color="#298BD0"/>
<stop offset="1" stop-color="#0169C2"/>
</linearGradient>
<linearGradient id="paint6_linear_970_6281" x1="1571.77" y1="261.528" x2="1016.61" y2="754.112" gradientUnits="userSpaceOnUse">
<stop stop-color="#7ED4EF"/>
<stop offset="0.2294" stop-color="#66BFE6"/>
<stop offset="0.711" stop-color="#298BD0"/>
<stop offset="1" stop-color="#0169C2"/>
</linearGradient>
<linearGradient id="paint7_linear_970_6281" x1="1575.39" y1="261.758" x2="1017" y2="757.202" gradientUnits="userSpaceOnUse">
<stop stop-color="#7ED4EF"/>
<stop offset="0.2294" stop-color="#66BFE6"/>
<stop offset="0.711" stop-color="#298BD0"/>
<stop offset="1" stop-color="#0169C2"/>
</linearGradient>
<linearGradient id="paint8_linear_970_6281" x1="1578.99" y1="261.978" x2="1017.37" y2="760.28" gradientUnits="userSpaceOnUse">
<stop stop-color="#7ED4EF"/>
<stop offset="0.2294" stop-color="#66BFE6"/>
<stop offset="0.711" stop-color="#298BD0"/>
<stop offset="1" stop-color="#0169C2"/>
</linearGradient>
<linearGradient id="paint9_linear_970_6281" x1="1582.58" y1="262.189" x2="1017.75" y2="763.351" gradientUnits="userSpaceOnUse">
<stop stop-color="#7ED4EF"/>
<stop offset="0.2294" stop-color="#66BFE6"/>
<stop offset="0.711" stop-color="#298BD0"/>
<stop offset="1" stop-color="#0169C2"/>
</linearGradient>
<linearGradient id="paint10_linear_970_6281" x1="1586.17" y1="262.393" x2="1018.11" y2="766.414" gradientUnits="userSpaceOnUse">
<stop stop-color="#7ED4EF"/>
<stop offset="0.2294" stop-color="#66BFE6"/>
<stop offset="0.711" stop-color="#298BD0"/>
<stop offset="1" stop-color="#0169C2"/>
</linearGradient>
<linearGradient id="paint11_linear_970_6281" x1="1589.75" y1="262.591" x2="1018.47" y2="769.471" gradientUnits="userSpaceOnUse">
<stop stop-color="#7ED4EF"/>
<stop offset="0.2294" stop-color="#66BFE6"/>
<stop offset="0.711" stop-color="#298BD0"/>
<stop offset="1" stop-color="#0169C2"/>
</linearGradient>
<linearGradient id="paint12_linear_970_6281" x1="1593.33" y1="262.785" x2="1018.83" y2="772.524" gradientUnits="userSpaceOnUse">
<stop stop-color="#7ED4EF"/>
<stop offset="0.2294" stop-color="#66BFE6"/>
<stop offset="0.711" stop-color="#298BD0"/>
<stop offset="1" stop-color="#0169C2"/>
</linearGradient>
<linearGradient id="paint13_linear_970_6281" x1="1596.9" y1="262.975" x2="1019.18" y2="775.572" gradientUnits="userSpaceOnUse">
<stop stop-color="#7ED4EF"/>
<stop offset="0.2294" stop-color="#66BFE6"/>
<stop offset="0.711" stop-color="#298BD0"/>
<stop offset="1" stop-color="#0169C2"/>
</linearGradient>
<linearGradient id="paint14_linear_970_6281" x1="1600.47" y1="263.16" x2="1019.53" y2="778.617" gradientUnits="userSpaceOnUse">
<stop stop-color="#7ED4EF"/>
<stop offset="0.2294" stop-color="#66BFE6"/>
<stop offset="0.711" stop-color="#298BD0"/>
<stop offset="1" stop-color="#0169C2"/>
</linearGradient>
<linearGradient id="paint15_linear_970_6281" x1="1604.04" y1="263.343" x2="1019.87" y2="781.658" gradientUnits="userSpaceOnUse">
<stop stop-color="#7ED4EF"/>
<stop offset="0.2294" stop-color="#66BFE6"/>
<stop offset="0.711" stop-color="#298BD0"/>
<stop offset="1" stop-color="#0169C2"/>
</linearGradient>
<linearGradient id="paint16_linear_970_6281" x1="1607.61" y1="263.523" x2="1020.22" y2="784.698" gradientUnits="userSpaceOnUse">
<stop stop-color="#7ED4EF"/>
<stop offset="0.2294" stop-color="#66BFE6"/>
<stop offset="0.711" stop-color="#298BD0"/>
<stop offset="1" stop-color="#0169C2"/>
</linearGradient>
<linearGradient id="paint17_linear_970_6281" x1="1611.17" y1="263.701" x2="1020.56" y2="787.734" gradientUnits="userSpaceOnUse">
<stop stop-color="#7ED4EF"/>
<stop offset="0.2294" stop-color="#66BFE6"/>
<stop offset="0.711" stop-color="#298BD0"/>
<stop offset="1" stop-color="#0169C2"/>
</linearGradient>
<linearGradient id="paint18_linear_970_6281" x1="1614.73" y1="263.876" x2="1020.9" y2="790.769" gradientUnits="userSpaceOnUse">
<stop stop-color="#7ED4EF"/>
<stop offset="0.2294" stop-color="#66BFE6"/>
<stop offset="0.711" stop-color="#298BD0"/>
<stop offset="1" stop-color="#0169C2"/>
</linearGradient>
<linearGradient id="paint19_linear_970_6281" x1="1618.29" y1="264.05" x2="1021.23" y2="793.801" gradientUnits="userSpaceOnUse">
<stop stop-color="#7ED4EF"/>
<stop offset="0.2294" stop-color="#66BFE6"/>
<stop offset="0.711" stop-color="#298BD0"/>
<stop offset="1" stop-color="#0169C2"/>
</linearGradient>
<linearGradient id="paint20_linear_970_6281" x1="1621.85" y1="264.222" x2="1021.57" y2="796.832" gradientUnits="userSpaceOnUse">
<stop stop-color="#7ED4EF"/>
<stop offset="0.2294" stop-color="#66BFE6"/>
<stop offset="0.711" stop-color="#298BD0"/>
<stop offset="1" stop-color="#0169C2"/>
</linearGradient>
<linearGradient id="paint21_linear_970_6281" x1="1625.41" y1="264.393" x2="1021.91" y2="799.862" gradientUnits="userSpaceOnUse">
<stop stop-color="#7ED4EF"/>
<stop offset="0.2294" stop-color="#66BFE6"/>
<stop offset="0.711" stop-color="#298BD0"/>
<stop offset="1" stop-color="#0169C2"/>
</linearGradient>
<linearGradient id="paint22_linear_970_6281" x1="1628.96" y1="264.563" x2="1022.24" y2="802.89" gradientUnits="userSpaceOnUse">
<stop stop-color="#7ED4EF"/>
<stop offset="0.2294" stop-color="#66BFE6"/>
<stop offset="0.711" stop-color="#298BD0"/>
<stop offset="1" stop-color="#0169C2"/>
</linearGradient>
<linearGradient id="paint23_linear_970_6281" x1="1632.52" y1="264.731" x2="1022.57" y2="805.917" gradientUnits="userSpaceOnUse">
<stop stop-color="#7ED4EF"/>
<stop offset="0.2294" stop-color="#66BFE6"/>
<stop offset="0.711" stop-color="#298BD0"/>
<stop offset="1" stop-color="#0169C2"/>
</linearGradient>
<linearGradient id="paint24_linear_970_6281" x1="446.693" y1="-63.3221" x2="-89.1383" y2="412.105" gradientUnits="userSpaceOnUse">
<stop stop-color="#7ED4EF"/>
<stop offset="0.2294" stop-color="#66BFE6"/>
<stop offset="0.711" stop-color="#298BD0"/>
<stop offset="1" stop-color="#0169C2"/>
</linearGradient>
<linearGradient id="paint25_linear_970_6281" x1="450.462" y1="-62.9149" x2="-88.5918" y2="415.372" gradientUnits="userSpaceOnUse">
<stop stop-color="#7ED4EF"/>
<stop offset="0.2294" stop-color="#66BFE6"/>
<stop offset="0.711" stop-color="#298BD0"/>
<stop offset="1" stop-color="#0169C2"/>
</linearGradient>
<linearGradient id="paint26_linear_970_6281" x1="454.18" y1="-62.5652" x2="-88.0969" y2="418.581" gradientUnits="userSpaceOnUse">
<stop stop-color="#7ED4EF"/>
<stop offset="0.2294" stop-color="#66BFE6"/>
<stop offset="0.711" stop-color="#298BD0"/>
<stop offset="1" stop-color="#0169C2"/>
</linearGradient>
<linearGradient id="paint27_linear_970_6281" x1="457.862" y1="-62.2552" x2="-87.6378" y2="421.751" gradientUnits="userSpaceOnUse">
<stop stop-color="#7ED4EF"/>
<stop offset="0.2294" stop-color="#66BFE6"/>
<stop offset="0.711" stop-color="#298BD0"/>
<stop offset="1" stop-color="#0169C2"/>
</linearGradient>
<linearGradient id="paint28_linear_970_6281" x1="461.519" y1="-61.9742" x2="-87.2039" y2="424.891" gradientUnits="userSpaceOnUse">
<stop stop-color="#7ED4EF"/>
<stop offset="0.2294" stop-color="#66BFE6"/>
<stop offset="0.711" stop-color="#298BD0"/>
<stop offset="1" stop-color="#0169C2"/>
</linearGradient>
<linearGradient id="paint29_linear_970_6281" x1="465.156" y1="-61.7147" x2="-86.7891" y2="428.01" gradientUnits="userSpaceOnUse">
<stop stop-color="#7ED4EF"/>
<stop offset="0.2294" stop-color="#66BFE6"/>
<stop offset="0.711" stop-color="#298BD0"/>
<stop offset="1" stop-color="#0169C2"/>
</linearGradient>
<linearGradient id="paint30_linear_970_6281" x1="468.774" y1="-61.4716" x2="-86.3933" y2="431.112" gradientUnits="userSpaceOnUse">
<stop stop-color="#7ED4EF"/>
<stop offset="0.2294" stop-color="#66BFE6"/>
<stop offset="0.711" stop-color="#298BD0"/>
<stop offset="1" stop-color="#0169C2"/>
</linearGradient>
<linearGradient id="paint31_linear_970_6281" x1="472.386" y1="-61.2416" x2="-86.0044" y2="434.202" gradientUnits="userSpaceOnUse">
<stop stop-color="#7ED4EF"/>
<stop offset="0.2294" stop-color="#66BFE6"/>
<stop offset="0.711" stop-color="#298BD0"/>
<stop offset="1" stop-color="#0169C2"/>
</linearGradient>
<linearGradient id="paint32_linear_970_6281" x1="475.987" y1="-61.0219" x2="-85.6255" y2="437.28" gradientUnits="userSpaceOnUse">
<stop stop-color="#7ED4EF"/>
<stop offset="0.2294" stop-color="#66BFE6"/>
<stop offset="0.711" stop-color="#298BD0"/>
<stop offset="1" stop-color="#0169C2"/>
</linearGradient>
<linearGradient id="paint33_linear_970_6281" x1="479.583" y1="-60.8108" x2="-85.2522" y2="440.351" gradientUnits="userSpaceOnUse">
<stop stop-color="#7ED4EF"/>
<stop offset="0.2294" stop-color="#66BFE6"/>
<stop offset="0.711" stop-color="#298BD0"/>
<stop offset="1" stop-color="#0169C2"/>
</linearGradient>
<linearGradient id="paint34_linear_970_6281" x1="483.169" y1="-60.607" x2="-84.8884" y2="443.414" gradientUnits="userSpaceOnUse">
<stop stop-color="#7ED4EF"/>
<stop offset="0.2294" stop-color="#66BFE6"/>
<stop offset="0.711" stop-color="#298BD0"/>
<stop offset="1" stop-color="#0169C2"/>
</linearGradient>
<linearGradient id="paint35_linear_970_6281" x1="486.752" y1="-60.4086" x2="-84.5274" y2="446.471" gradientUnits="userSpaceOnUse">
<stop stop-color="#7ED4EF"/>
<stop offset="0.2294" stop-color="#66BFE6"/>
<stop offset="0.711" stop-color="#298BD0"/>
<stop offset="1" stop-color="#0169C2"/>
</linearGradient>
<linearGradient id="paint36_linear_970_6281" x1="490.329" y1="-60.2147" x2="-84.1726" y2="449.524" gradientUnits="userSpaceOnUse">
<stop stop-color="#7ED4EF"/>
<stop offset="0.2294" stop-color="#66BFE6"/>
<stop offset="0.711" stop-color="#298BD0"/>
<stop offset="1" stop-color="#0169C2"/>
</linearGradient>
<linearGradient id="paint37_linear_970_6281" x1="493.904" y1="-60.0254" x2="-83.8201" y2="452.572" gradientUnits="userSpaceOnUse">
<stop stop-color="#7ED4EF"/>
<stop offset="0.2294" stop-color="#66BFE6"/>
<stop offset="0.711" stop-color="#298BD0"/>
<stop offset="1" stop-color="#0169C2"/>
</linearGradient>
<linearGradient id="paint38_linear_970_6281" x1="497.472" y1="-59.8399" x2="-83.4746" y2="455.617" gradientUnits="userSpaceOnUse">
<stop stop-color="#7ED4EF"/>
<stop offset="0.2294" stop-color="#66BFE6"/>
<stop offset="0.711" stop-color="#298BD0"/>
<stop offset="1" stop-color="#0169C2"/>
</linearGradient>
<linearGradient id="paint39_linear_970_6281" x1="501.043" y1="-59.6574" x2="-83.1256" y2="458.658" gradientUnits="userSpaceOnUse">
<stop stop-color="#7ED4EF"/>
<stop offset="0.2294" stop-color="#66BFE6"/>
<stop offset="0.711" stop-color="#298BD0"/>
<stop offset="1" stop-color="#0169C2"/>
</linearGradient>
<linearGradient id="paint40_linear_970_6281" x1="504.608" y1="-59.477" x2="-82.7832" y2="461.698" gradientUnits="userSpaceOnUse">
<stop stop-color="#7ED4EF"/>
<stop offset="0.2294" stop-color="#66BFE6"/>
<stop offset="0.711" stop-color="#298BD0"/>
<stop offset="1" stop-color="#0169C2"/>
</linearGradient>
<linearGradient id="paint41_linear_970_6281" x1="508.17" y1="-59.2992" x2="-82.4429" y2="464.734" gradientUnits="userSpaceOnUse">
<stop stop-color="#7ED4EF"/>
<stop offset="0.2294" stop-color="#66BFE6"/>
<stop offset="0.711" stop-color="#298BD0"/>
<stop offset="1" stop-color="#0169C2"/>
</linearGradient>
<linearGradient id="paint42_linear_970_6281" x1="511.732" y1="-59.1237" x2="-82.1028" y2="467.769" gradientUnits="userSpaceOnUse">
<stop stop-color="#7ED4EF"/>
<stop offset="0.2294" stop-color="#66BFE6"/>
<stop offset="0.711" stop-color="#298BD0"/>
<stop offset="1" stop-color="#0169C2"/>
</linearGradient>
<linearGradient id="paint43_linear_970_6281" x1="515.292" y1="-58.9502" x2="-81.7654" y2="470.801" gradientUnits="userSpaceOnUse">
<stop stop-color="#7ED4EF"/>
<stop offset="0.2294" stop-color="#66BFE6"/>
<stop offset="0.711" stop-color="#298BD0"/>
<stop offset="1" stop-color="#0169C2"/>
</linearGradient>
<linearGradient id="paint44_linear_970_6281" x1="518.851" y1="-58.7778" x2="-81.4284" y2="473.832" gradientUnits="userSpaceOnUse">
<stop stop-color="#7ED4EF"/>
<stop offset="0.2294" stop-color="#66BFE6"/>
<stop offset="0.711" stop-color="#298BD0"/>
<stop offset="1" stop-color="#0169C2"/>
</linearGradient>
<linearGradient id="paint45_linear_970_6281" x1="522.406" y1="-58.6067" x2="-81.095" y2="476.862" gradientUnits="userSpaceOnUse">
<stop stop-color="#7ED4EF"/>
<stop offset="0.2294" stop-color="#66BFE6"/>
<stop offset="0.711" stop-color="#298BD0"/>
<stop offset="1" stop-color="#0169C2"/>
</linearGradient>
<linearGradient id="paint46_linear_970_6281" x1="525.962" y1="-58.4372" x2="-80.7605" y2="479.89" gradientUnits="userSpaceOnUse">
<stop stop-color="#7ED4EF"/>
<stop offset="0.2294" stop-color="#66BFE6"/>
<stop offset="0.711" stop-color="#298BD0"/>
<stop offset="1" stop-color="#0169C2"/>
</linearGradient>
<linearGradient id="paint47_linear_970_6281" x1="529.516" y1="-58.2691" x2="-80.4285" y2="482.917" gradientUnits="userSpaceOnUse">
<stop stop-color="#7ED4EF"/>
<stop offset="0.2294" stop-color="#66BFE6"/>
<stop offset="0.711" stop-color="#298BD0"/>
<stop offset="1" stop-color="#0169C2"/>
</linearGradient>
<linearGradient id="paint48_linear_970_6281" x1="594.555" y1="739.863" x2="-4.77" y2="347.492" gradientUnits="userSpaceOnUse">
<stop stop-color="#7ED4EF"/>
<stop offset="0.2294" stop-color="#66BFE6"/>
<stop offset="0.711" stop-color="#298BD0"/>
<stop offset="1" stop-color="#0169C2"/>
</linearGradient>
<linearGradient id="paint49_linear_970_6281" x1="595.149" y1="743.607" x2="-7.78074" y2="348.875" gradientUnits="userSpaceOnUse">
<stop stop-color="#7ED4EF"/>
<stop offset="0.2294" stop-color="#66BFE6"/>
<stop offset="0.711" stop-color="#298BD0"/>
<stop offset="1" stop-color="#0169C2"/>
</linearGradient>
<linearGradient id="paint50_linear_970_6281" x1="595.789" y1="747.285" x2="-10.7456" y2="350.194" gradientUnits="userSpaceOnUse">
<stop stop-color="#7ED4EF"/>
<stop offset="0.2294" stop-color="#66BFE6"/>
<stop offset="0.711" stop-color="#298BD0"/>
<stop offset="1" stop-color="#0169C2"/>
</linearGradient>
<linearGradient id="paint51_linear_970_6281" x1="596.454" y1="750.92" x2="-13.6851" y2="351.468" gradientUnits="userSpaceOnUse">
<stop stop-color="#7ED4EF"/>
<stop offset="0.2294" stop-color="#66BFE6"/>
<stop offset="0.711" stop-color="#298BD0"/>
<stop offset="1" stop-color="#0169C2"/>
</linearGradient>
<linearGradient id="paint52_linear_970_6281" x1="597.142" y1="754.521" x2="-16.6016" y2="352.71" gradientUnits="userSpaceOnUse">
<stop stop-color="#7ED4EF"/>
<stop offset="0.2294" stop-color="#66BFE6"/>
<stop offset="0.711" stop-color="#298BD0"/>
<stop offset="1" stop-color="#0169C2"/>
</linearGradient>
<linearGradient id="paint53_linear_970_6281" x1="597.848" y1="758.099" x2="-19.5006" y2="353.928" gradientUnits="userSpaceOnUse">
<stop stop-color="#7ED4EF"/>
<stop offset="0.2294" stop-color="#66BFE6"/>
<stop offset="0.711" stop-color="#298BD0"/>
<stop offset="1" stop-color="#0169C2"/>
</linearGradient>
<linearGradient id="paint54_linear_970_6281" x1="598.562" y1="761.658" x2="-22.391" y2="355.127" gradientUnits="userSpaceOnUse">
<stop stop-color="#7ED4EF"/>
<stop offset="0.2294" stop-color="#66BFE6"/>
<stop offset="0.711" stop-color="#298BD0"/>
<stop offset="1" stop-color="#0169C2"/>
</linearGradient>
<linearGradient id="paint55_linear_970_6281" x1="599.288" y1="765.203" x2="-25.2695" y2="356.312" gradientUnits="userSpaceOnUse">
<stop stop-color="#7ED4EF"/>
<stop offset="0.2294" stop-color="#66BFE6"/>
<stop offset="0.711" stop-color="#298BD0"/>
<stop offset="1" stop-color="#0169C2"/>
</linearGradient>
<linearGradient id="paint56_linear_970_6281" x1="600.021" y1="768.736" x2="-28.141" y2="357.485" gradientUnits="userSpaceOnUse">
<stop stop-color="#7ED4EF"/>
<stop offset="0.2294" stop-color="#66BFE6"/>
<stop offset="0.711" stop-color="#298BD0"/>
<stop offset="1" stop-color="#0169C2"/>
</linearGradient>
<linearGradient id="paint57_linear_970_6281" x1="600.76" y1="772.259" x2="-31.0057" y2="358.649" gradientUnits="userSpaceOnUse">
<stop stop-color="#7ED4EF"/>
<stop offset="0.2294" stop-color="#66BFE6"/>
<stop offset="0.711" stop-color="#298BD0"/>
<stop offset="1" stop-color="#0169C2"/>
</linearGradient>
<linearGradient id="paint58_linear_970_6281" x1="601.502" y1="775.774" x2="-33.8677" y2="359.805" gradientUnits="userSpaceOnUse">
<stop stop-color="#7ED4EF"/>
<stop offset="0.2294" stop-color="#66BFE6"/>
<stop offset="0.711" stop-color="#298BD0"/>
<stop offset="1" stop-color="#0169C2"/>
</linearGradient>
<linearGradient id="paint59_linear_970_6281" x1="602.249" y1="779.283" x2="-36.7257" y2="360.953" gradientUnits="userSpaceOnUse">
<stop stop-color="#7ED4EF"/>
<stop offset="0.2294" stop-color="#66BFE6"/>
<stop offset="0.711" stop-color="#298BD0"/>
<stop offset="1" stop-color="#0169C2"/>
</linearGradient>
<linearGradient id="paint60_linear_970_6281" x1="603.001" y1="782.786" x2="-39.5769" y2="362.097" gradientUnits="userSpaceOnUse">
<stop stop-color="#7ED4EF"/>
<stop offset="0.2294" stop-color="#66BFE6"/>
<stop offset="0.711" stop-color="#298BD0"/>
<stop offset="1" stop-color="#0169C2"/>
</linearGradient>
<linearGradient id="paint61_linear_970_6281" x1="603.758" y1="786.285" x2="-42.4249" y2="363.236" gradientUnits="userSpaceOnUse">
<stop stop-color="#7ED4EF"/>
<stop offset="0.2294" stop-color="#66BFE6"/>
<stop offset="0.711" stop-color="#298BD0"/>
<stop offset="1" stop-color="#0169C2"/>
</linearGradient>
<linearGradient id="paint62_linear_970_6281" x1="604.516" y1="789.779" x2="-45.2706" y2="364.371" gradientUnits="userSpaceOnUse">
<stop stop-color="#7ED4EF"/>
<stop offset="0.2294" stop-color="#66BFE6"/>
<stop offset="0.711" stop-color="#298BD0"/>
<stop offset="1" stop-color="#0169C2"/>
</linearGradient>
<linearGradient id="paint63_linear_970_6281" x1="605.273" y1="793.27" x2="-48.1176" y2="365.502" gradientUnits="userSpaceOnUse">
<stop stop-color="#7ED4EF"/>
<stop offset="0.2294" stop-color="#66BFE6"/>
<stop offset="0.711" stop-color="#298BD0"/>
<stop offset="1" stop-color="#0169C2"/>
</linearGradient>
<linearGradient id="paint64_linear_970_6281" x1="606.036" y1="796.758" x2="-50.9582" y2="366.631" gradientUnits="userSpaceOnUse">
<stop stop-color="#7ED4EF"/>
<stop offset="0.2294" stop-color="#66BFE6"/>
<stop offset="0.711" stop-color="#298BD0"/>
<stop offset="1" stop-color="#0169C2"/>
</linearGradient>
<linearGradient id="paint65_linear_970_6281" x1="606.8" y1="800.243" x2="-53.7985" y2="367.757" gradientUnits="userSpaceOnUse">
<stop stop-color="#7ED4EF"/>
<stop offset="0.2294" stop-color="#66BFE6"/>
<stop offset="0.711" stop-color="#298BD0"/>
<stop offset="1" stop-color="#0169C2"/>
</linearGradient>
<linearGradient id="paint66_linear_970_6281" x1="607.562" y1="803.726" x2="-56.6399" y2="368.881" gradientUnits="userSpaceOnUse">
<stop stop-color="#7ED4EF"/>
<stop offset="0.2294" stop-color="#66BFE6"/>
<stop offset="0.711" stop-color="#298BD0"/>
<stop offset="1" stop-color="#0169C2"/>
</linearGradient>
<linearGradient id="paint67_linear_970_6281" x1="608.328" y1="807.207" x2="-59.4781" y2="370.002" gradientUnits="userSpaceOnUse">
<stop stop-color="#7ED4EF"/>
<stop offset="0.2294" stop-color="#66BFE6"/>
<stop offset="0.711" stop-color="#298BD0"/>
<stop offset="1" stop-color="#0169C2"/>
</linearGradient>
<linearGradient id="paint68_linear_970_6281" x1="609.097" y1="810.686" x2="-62.3124" y2="371.122" gradientUnits="userSpaceOnUse">
<stop stop-color="#7ED4EF"/>
<stop offset="0.2294" stop-color="#66BFE6"/>
<stop offset="0.711" stop-color="#298BD0"/>
<stop offset="1" stop-color="#0169C2"/>
</linearGradient>
<linearGradient id="paint69_linear_970_6281" x1="609.864" y1="814.164" x2="-65.1497" y2="372.24" gradientUnits="userSpaceOnUse">
<stop stop-color="#7ED4EF"/>
<stop offset="0.2294" stop-color="#66BFE6"/>
<stop offset="0.711" stop-color="#298BD0"/>
<stop offset="1" stop-color="#0169C2"/>
</linearGradient>
<linearGradient id="paint70_linear_970_6281" x1="610.632" y1="817.639" x2="-67.9856" y2="373.356" gradientUnits="userSpaceOnUse">
<stop stop-color="#7ED4EF"/>
<stop offset="0.2294" stop-color="#66BFE6"/>
<stop offset="0.711" stop-color="#298BD0"/>
<stop offset="1" stop-color="#0169C2"/>
</linearGradient>
<linearGradient id="paint71_linear_970_6281" x1="611.404" y1="821.114" x2="-70.817" y2="374.471" gradientUnits="userSpaceOnUse">
<stop stop-color="#7ED4EF"/>
<stop offset="0.2294" stop-color="#66BFE6"/>
<stop offset="0.711" stop-color="#298BD0"/>
<stop offset="1" stop-color="#0169C2"/>
</linearGradient>
</defs>
</svg>
