<svg width="375" height="718" viewBox="0 0 375 718" fill="none" xmlns="http://www.w3.org/2000/svg">
<path opacity="0.54" d="M-84.9658 267.16C-98.0958 250.1 -91.5358 223.92 -76.0758 209.18C-74.6958 207.86 -73.2558 206.62 -71.7758 205.45C-56.6558 193.5 -36.9558 188.72 -17.7458 185.82C-14.0458 185.26 -10.3258 184.76 -6.60577 184.27C10.8742 181.97 28.5742 179.8 44.8442 172.89C50.1142 170.66 55.0842 167.99 59.7842 164.92C91.5342 144.1 109.174 105.46 121.724 68.85C122.634 66.19 123.544 63.52 124.444 60.84C137.834 21.25 153.184 -17.9 181.044 -44.51C190.554 -53.59 200.334 -62.68 213.784 -67.44C229.764 -73.12 248.124 -72.28 264.754 -70.13C276.094 -68.67 287.094 -66.66 298.174 -65.73C303.384 -65.3 308.614 -65.11 313.914 -65.29C347.664 -66.45 381.834 -83.75 406.544 -109.02C431.284 -134.33 447.494 -166.8 456.384 -201" stroke="url(#paint0_linear_565_6253)" stroke-width="0.8669" stroke-miterlimit="10"/>
<path opacity="0.54" d="M-82.5748 272.5C-95.7148 255.46 -89.3248 229.35 -74.0548 214.46C-72.6848 213.13 -71.2648 211.87 -69.8048 210.69C-54.8348 198.6 -35.2448 193.59 -16.0948 190.47C-12.4048 189.87 -8.69478 189.33 -4.98478 188.8C12.4352 186.31 30.0852 183.98 46.3052 176.99C51.5552 174.73 56.5152 172.05 61.1952 168.96C92.8752 148.02 110.365 109.39 122.625 72.7101C123.515 70.0501 124.395 67.3701 125.275 64.6901C138.295 25.0501 153.115 -14.0699 179.835 -41.4099C189.215 -51.0099 198.825 -60.7899 212.525 -65.8799C228.805 -71.9599 247.705 -70.8899 264.675 -68.2899C276.245 -66.5199 287.425 -64.1299 298.735 -62.8499C304.045 -62.2499 309.395 -61.9099 314.825 -61.9599C349.385 -62.2799 384.685 -79.8899 409.915 -105.87C435.175 -131.88 451.425 -165.35 460.315 -200.44" stroke="url(#paint1_linear_565_6253)" stroke-width="0.8669" stroke-miterlimit="10"/>
<path opacity="0.54" d="M-80.1843 277.84C-93.3243 260.83 -87.1243 234.77 -72.0343 219.75C-70.6843 218.41 -69.2843 217.14 -67.8243 215.94C-52.9943 203.7 -33.5243 198.46 -14.4343 195.12C-10.7643 194.48 -7.06433 193.9 -3.36433 193.33C13.9957 190.66 31.6057 188.15 47.7657 181.09C52.9957 178.81 57.9357 176.11 62.6057 173C94.2157 151.94 111.556 113.32 123.516 76.5701C124.386 73.9001 125.246 71.2201 126.096 68.5401C138.746 28.8501 153.016 -10.2799 178.616 -38.3199C187.866 -48.4499 197.306 -58.8999 211.256 -64.3199C227.836 -70.7999 247.276 -69.4899 264.576 -66.4399C276.376 -64.3699 287.736 -61.5899 299.266 -59.9599C304.686 -59.1999 310.136 -58.6999 315.696 -58.6199C351.066 -58.1099 387.496 -76.0299 413.246 -102.72C439.026 -129.44 455.306 -163.9 464.206 -199.88" stroke="url(#paint2_linear_565_6253)" stroke-width="0.8669" stroke-miterlimit="10"/>
<path opacity="0.54" d="M-77.8044 283.18C-90.9544 266.19 -84.9344 240.2 -70.0144 225.03C-68.6844 223.67 -67.2944 222.39 -65.8544 221.18C-51.1744 208.79 -31.8144 203.33 -12.7944 199.77C-9.1344 199.09 -5.4444 198.46 -1.7644 197.85C15.5356 194.99 33.1056 192.32 49.2156 185.18C54.4256 182.87 59.3556 180.16 64.0156 177.03C95.5556 155.84 112.736 117.23 124.406 80.4202C125.256 77.7502 126.086 75.0602 126.916 72.3702C139.196 32.6302 152.886 -6.52984 177.396 -35.2398C186.506 -45.9098 195.786 -57.0298 209.976 -62.7798C226.856 -69.6498 246.836 -68.1098 264.466 -64.6198C276.486 -62.2498 288.036 -59.0798 299.786 -57.0998C305.306 -56.1698 310.876 -55.5198 316.566 -55.3098C352.746 -53.9698 390.306 -72.1998 416.576 -99.5898C442.876 -127.01 459.186 -162.47 468.096 -199.34" stroke="url(#paint3_linear_565_6253)" stroke-width="0.8669" stroke-miterlimit="10"/>
<path opacity="0.54" d="M-75.4141 288.53C-88.5641 271.57 -82.7241 245.64 -67.9941 230.32C-66.6741 228.95 -65.3041 227.65 -63.8741 226.42C-49.3441 213.88 -30.0941 208.19 -11.1341 204.41C-7.48411 203.68 -3.8141 203.02 -0.144104 202.37C17.0959 199.32 34.6159 196.49 50.6759 189.27C55.8659 186.94 60.7859 184.2 65.4259 181.06C96.8959 159.75 113.926 121.15 125.296 84.27C126.126 81.59 126.936 78.9 127.736 76.21C139.646 36.41 152.726 -2.81003 176.176 -32.16C185.146 -43.38 194.276 -55.15 208.706 -61.23C225.886 -68.5 246.406 -66.72 264.376 -62.79C276.626 -60.12 288.366 -56.55 300.336 -54.23C305.966 -53.14 311.646 -52.33 317.456 -51.99C354.446 -49.81 393.136 -68.35 419.926 -96.45C446.746 -124.58 463.086 -161.03 471.996 -198.79" stroke="url(#paint4_linear_565_6253)" stroke-width="0.8669" stroke-miterlimit="10"/>
<path opacity="0.54" d="M-73.0238 293.87C-86.1838 276.93 -80.5238 251.07 -65.9638 235.6C-64.6638 234.22 -63.3038 232.91 -61.8938 231.66C-47.5038 218.98 -28.3738 213.06 -9.47379 209.06C-5.83379 208.29 -2.1838 207.58 1.4762 206.9C18.6562 203.66 36.1362 200.66 52.1362 193.37C57.3062 191.02 62.2062 188.26 66.8362 185.1C98.2262 163.67 115.116 125.07 126.186 88.1298C126.986 85.4498 127.776 82.7498 128.556 80.0598C140.096 40.2098 152.546 0.909788 174.966 -29.0602C183.776 -40.8402 192.766 -53.2602 207.446 -59.6702C224.926 -67.3402 245.986 -65.3202 264.286 -60.9402C276.756 -57.9602 288.686 -54.0102 300.876 -51.3402C306.606 -50.0902 312.396 -49.1302 318.336 -48.6502C356.136 -45.6402 395.956 -64.4902 423.266 -93.2902C450.606 -122.12 466.976 -159.57 475.896 -198.22" stroke="url(#paint5_linear_565_6253)" stroke-width="0.8669" stroke-miterlimit="10"/>
<path opacity="0.54" d="M-70.6476 299.21C-83.8076 282.3 -78.3376 256.5 -63.9576 240.89C-62.6776 239.5 -61.3276 238.17 -59.9376 236.91C-45.6976 224.08 -26.6776 217.93 -7.83761 213.71C-4.21761 212.9 -0.56761 212.15 3.08239 211.42C20.2124 208 37.6424 204.83 53.5824 197.46C58.7324 195.08 63.6224 192.31 68.2424 189.14C99.5624 167.59 116.302 129 127.082 91.9898C127.862 89.2998 128.632 86.5999 129.382 83.9099C140.552 44.0098 152.352 4.59985 173.752 -25.9702C182.402 -38.3202 191.252 -51.3702 206.172 -58.1102C223.952 -66.1702 245.542 -63.9202 264.182 -59.1002C276.882 -55.8202 288.992 -51.4801 301.412 -48.4601C307.242 -47.0401 313.152 -45.9302 319.222 -45.3202C357.832 -41.4802 398.782 -60.6302 426.612 -90.1402C454.472 -119.68 470.872 -158.12 479.802 -197.66" stroke="url(#paint6_linear_565_6253)" stroke-width="0.8669" stroke-miterlimit="10"/>
<path opacity="0.54" d="M-68.2568 304.55C-81.4268 287.66 -76.1268 261.93 -61.9368 246.17C-60.6668 244.76 -59.3368 243.42 -57.9568 242.15C-43.8568 229.17 -24.9568 222.8 -6.18679 218.35C-2.57679 217.5 1.0532 216.71 4.6932 215.94C21.7632 212.33 39.1432 209 55.0332 201.55C60.1632 199.15 65.0332 196.36 69.6432 193.17C100.893 171.49 117.483 132.91 127.963 95.8399C128.723 93.1499 129.463 90.4499 130.193 87.7399C140.993 47.7899 152.103 8.24988 172.523 -22.8901C180.993 -35.8101 189.723 -49.5001 204.893 -56.5701C222.973 -65.0301 245.103 -62.5401 264.073 -57.2801C276.993 -53.7001 289.293 -48.9701 301.933 -45.6001C307.873 -44.0201 313.883 -42.7501 320.083 -42.0101C359.503 -37.3301 401.583 -56.8001 429.933 -87.0101C458.313 -117.25 474.743 -156.69 483.683 -197.12" stroke="url(#paint7_linear_565_6253)" stroke-width="0.8669" stroke-miterlimit="10"/>
<path opacity="0.54" d="M-65.8667 309.9C-79.0367 293.04 -73.9267 267.36 -59.9067 251.46C-58.6567 250.04 -57.3467 248.69 -55.9767 247.4C-42.0267 234.27 -23.2367 227.68 -4.52671 223.01C-0.926711 222.11 2.6933 221.28 6.3133 220.47C23.3233 216.67 40.6633 213.17 56.4933 205.65C61.6033 203.22 66.4633 200.42 71.0533 197.21C102.233 175.41 118.673 136.84 128.853 99.7C129.593 97 130.313 94.3 131.013 91.59C141.443 51.59 151.853 11.92 171.303 -19.8C179.583 -33.3 188.213 -47.6101 203.623 -55.0101C222.003 -63.8701 244.673 -61.14 263.983 -55.44C277.133 -51.56 289.613 -46.4301 302.473 -42.7201C308.513 -40.9701 314.643 -39.5501 320.963 -38.6801C361.193 -33.1701 404.403 -52.9401 433.273 -83.8601C462.173 -114.81 478.633 -155.24 487.583 -196.56" stroke="url(#paint8_linear_565_6253)" stroke-width="0.8669" stroke-miterlimit="10"/>
<path opacity="0.54" d="M-63.4745 315.24C-76.6445 298.4 -71.7245 272.79 -57.8845 256.75C-56.6445 255.32 -55.3545 253.95 -53.9945 252.65C-40.1945 239.38 -21.5145 232.55 -2.86449 227.66C0.725506 226.72 4.32551 225.85 7.93551 225C24.8855 221.01 42.1855 217.35 57.9555 209.75C63.0455 207.3 67.8955 204.48 72.4755 201.25C103.586 179.33 119.876 140.77 129.756 103.56C130.476 100.86 131.166 98.15 131.846 95.44C141.906 55.39 151.576 15.58 170.096 -16.7C178.176 -30.79 186.705 -45.72 202.355 -53.44C221.035 -62.69 244.245 -59.73 263.885 -53.58C277.255 -49.4 289.926 -43.88 303.016 -39.82C309.166 -37.91 315.405 -36.33 321.855 -35.33C362.896 -28.98 407.235 -49.07 436.625 -80.69C466.045 -112.34 482.535 -153.77 491.485 -195.98" stroke="url(#paint9_linear_565_6253)" stroke-width="0.8669" stroke-miterlimit="10"/>
<path opacity="0.54" d="M-61.0957 320.58C-74.2757 303.77 -69.5258 278.22 -55.8658 262.03C-54.6458 260.58 -53.3657 259.2 -52.0257 257.89C-38.3657 244.47 -19.8057 237.42 -1.21574 232.31C2.35426 231.33 5.95425 230.41 9.54425 229.53C26.4342 225.35 43.6842 221.53 59.4142 213.85C64.4842 211.38 69.3142 208.53 73.8842 205.29C104.914 183.24 121.064 144.69 130.644 107.42C131.344 104.71 132.014 102 132.664 99.2898C142.354 59.1898 151.274 19.2198 168.874 -13.6102C176.744 -28.2902 185.184 -43.8302 201.084 -51.8902C220.064 -61.5402 243.814 -58.3502 263.784 -51.7502C277.384 -47.2602 290.244 -41.3602 303.544 -36.9402C309.794 -34.8702 316.144 -33.1302 322.724 -32.0002C364.584 -24.8202 410.044 -45.2102 439.954 -77.5502C469.894 -109.9 486.414 -152.33 495.374 -195.43" stroke="url(#paint10_linear_565_6253)" stroke-width="0.8669" stroke-miterlimit="10"/>
<path opacity="0.54" d="M-58.7044 325.92C-71.8844 309.13 -67.3244 283.65 -53.8444 267.31C-52.6444 265.85 -51.3744 264.46 -50.0544 263.13C-36.5444 249.56 -18.0944 242.28 0.435585 236.95C3.99558 235.93 7.57558 234.97 11.1656 234.04C27.9956 229.68 45.2056 225.68 60.8756 217.92C65.9256 215.42 70.7456 212.56 75.2956 209.31C106.256 187.14 122.246 148.6 131.546 111.26C132.216 108.55 132.876 105.83 133.506 103.11C142.826 62.9599 150.966 22.8399 167.676 -10.5401C175.316 -25.8101 183.686 -41.9701 199.836 -50.3501C219.116 -60.4001 243.406 -56.9701 263.706 -49.9301C277.536 -45.1401 290.576 -38.8501 304.096 -34.0801C310.456 -31.8401 316.916 -29.9501 323.626 -28.6901C366.296 -20.6801 412.886 -41.3801 443.316 -74.4201C473.776 -107.48 490.336 -150.9 499.296 -194.89" stroke="url(#paint11_linear_565_6253)" stroke-width="0.8669" stroke-miterlimit="10"/>
<path opacity="0.54" d="M-56.315 331.27C-69.505 314.51 -65.125 289.09 -51.825 272.6C-50.635 271.13 -49.385 269.72 -48.075 268.38C-34.705 254.67 -16.375 247.16 2.08497 241.6C5.63497 240.53 9.20497 239.54 12.775 238.57C29.545 234.02 46.715 229.86 62.325 222.02C67.355 219.5 72.155 216.62 76.695 213.35C107.585 191.06 123.425 152.52 132.425 115.12C133.075 112.4 133.705 109.68 134.315 106.96C143.255 66.7602 150.605 26.4902 166.445 -7.43982C173.855 -23.2998 182.165 -40.0698 198.545 -48.7898C218.125 -59.2298 242.955 -55.5698 263.595 -48.0798C277.645 -42.9898 290.875 -36.3098 304.625 -31.1898C311.085 -28.7898 317.665 -26.7398 324.495 -25.3498C367.975 -16.4998 415.695 -37.5098 446.645 -71.2598C477.625 -105.02 494.215 -149.45 503.185 -194.32" stroke="url(#paint12_linear_565_6253)" stroke-width="0.8669" stroke-miterlimit="10"/>
<path opacity="0.54" d="M-53.9243 336.61C-67.1143 319.87 -62.9143 294.51 -49.7943 277.89C-48.6243 276.41 -47.3843 274.98 -46.0943 273.63C-32.8743 259.77 -14.6543 252.03 3.7457 246.26C7.2857 245.15 10.8357 244.11 14.3957 243.1C31.1157 238.36 48.2257 234.04 63.7857 226.12C68.7957 223.57 73.5857 220.68 78.1157 217.39C108.936 194.97 124.626 156.45 133.326 118.98C133.956 116.26 134.566 113.53 135.146 110.81C143.716 70.5502 150.246 30.1302 165.236 -4.34976C172.396 -20.8098 180.656 -38.1898 197.286 -47.2298C217.166 -58.0698 242.536 -54.1698 263.506 -46.2398C277.786 -40.8498 291.196 -33.7698 305.166 -28.3098C311.726 -25.7498 318.416 -23.5398 325.376 -22.0198C369.666 -12.3398 418.506 -33.6598 449.986 -68.1098C481.486 -102.58 498.106 -148 507.086 -193.76" stroke="url(#paint13_linear_565_6253)" stroke-width="0.8669" stroke-miterlimit="10"/>
<path opacity="0.54" d="M-51.5473 341.95C-64.7473 325.24 -60.7273 299.94 -47.7873 283.17C-46.6273 281.67 -45.4073 280.24 -44.1373 278.87C-31.0673 264.86 -12.9573 256.9 5.38268 250.9C8.90268 249.75 12.4527 248.67 15.9927 247.62C32.6527 242.69 49.7227 238.21 65.2227 230.21C70.2127 227.64 74.9927 224.73 79.5027 221.42C110.253 198.88 125.793 160.36 134.193 122.83C134.803 120.1 135.383 117.37 135.943 114.65C144.143 74.34 149.823 33.77 163.993 -1.25996C170.893 -18.31 179.113 -36.3 195.993 -45.68C216.183 -56.92 242.083 -52.78 263.383 -44.41C277.883 -38.71 291.483 -31.25 305.683 -25.44C312.353 -22.71 319.153 -20.35 326.243 -18.7C371.343 -8.18997 421.313 -29.81 453.313 -64.97C485.333 -100.14 501.983 -146.56 510.963 -193.21" stroke="url(#paint14_linear_565_6253)" stroke-width="0.8669" stroke-miterlimit="10"/>
<path opacity="0.54" d="M-49.1541 347.29C-62.3541 330.6 -58.5241 305.37 -45.7541 288.45C-44.6141 286.94 -43.4141 285.49 -42.1441 284.11C-29.2141 269.95 -11.2241 261.76 7.0559 255.55C10.5659 254.36 14.0959 253.23 17.6259 252.15C34.2259 247.04 51.2559 242.38 66.6959 234.31C71.6659 231.71 76.4259 228.79 80.9259 225.46C111.596 202.8 126.996 164.29 135.096 126.69C135.686 123.96 136.246 121.22 136.776 118.49C144.606 78.1298 149.436 37.4198 162.786 1.81982C169.406 -15.8302 177.606 -34.4302 194.726 -44.1302C215.216 -55.7602 241.656 -51.3902 263.296 -42.5802C278.026 -36.5802 291.806 -28.7302 306.226 -22.5702C312.996 -19.6802 319.906 -17.1702 327.126 -15.3802C373.036 -4.03016 424.136 -25.9702 456.656 -61.8302C489.186 -97.7102 505.876 -145.12 514.866 -192.66" stroke="url(#paint15_linear_565_6253)" stroke-width="0.8669" stroke-miterlimit="10"/>
<path opacity="0.54" d="M-46.7652 352.64C-59.9752 335.98 -56.3152 310.81 -43.7352 293.75C-42.6152 292.23 -41.4252 290.76 -40.1752 289.37C-27.3952 275.07 -9.5152 266.65 8.6948 260.21C12.1948 258.98 15.7148 257.81 19.2348 256.68C35.7748 251.38 52.7548 246.56 68.1448 238.41C73.0948 235.79 77.8448 232.85 82.3348 229.5C112.935 206.71 128.185 168.22 135.985 130.55C136.555 127.81 137.085 125.07 137.595 122.34C145.055 81.9301 149.005 41.0802 161.575 4.92015C167.915 -13.3198 176.105 -32.5398 193.465 -42.5698C214.255 -54.5998 241.235 -49.9898 263.205 -40.7298C278.155 -34.4298 292.125 -26.1898 306.765 -19.6798C313.645 -16.6198 320.665 -13.9598 328.015 -12.0398C374.735 0.14016 426.965 -22.0998 460.005 -58.6698C493.055 -95.2498 509.775 -143.66 518.775 -192.09" stroke="url(#paint16_linear_565_6253)" stroke-width="0.8669" stroke-miterlimit="10"/>
<path opacity="0.54" d="M-44.3763 357.98C-57.5863 341.34 -54.1163 316.24 -41.7063 299.03C-40.5963 297.49 -39.4263 296.02 -38.1863 294.6C-25.5463 280.15 -7.78633 271.5 10.3637 264.84C13.8437 263.56 17.3537 262.36 20.8637 261.19C37.3437 255.7 54.2837 250.72 69.6237 242.49C74.5537 239.85 79.2837 236.88 83.7637 233.53C114.294 210.62 129.394 172.13 136.904 134.4C137.454 131.66 137.964 128.92 138.444 126.18C145.534 85.7202 148.594 44.7402 160.384 8.00021C166.424 -10.8398 174.614 -30.6598 192.224 -41.0198C213.314 -53.4498 240.834 -48.5998 263.134 -38.8998C278.314 -32.2998 292.474 -23.6598 307.334 -16.8098C314.314 -13.5898 321.454 -10.7698 328.924 -8.71979C376.454 4.30021 429.814 -18.2598 463.384 -55.5398C496.954 -92.8198 513.704 -142.23 522.714 -191.55" stroke="url(#paint17_linear_565_6253)" stroke-width="0.8669" stroke-miterlimit="10"/>
<path opacity="0.54" d="M-41.9957 363.32C-55.2157 346.71 -51.9157 321.66 -39.6957 304.31C-38.6057 302.76 -37.4457 301.27 -36.2257 299.84C-23.7357 285.24 -6.08568 276.37 12.0043 269.49C15.4743 268.17 18.9743 266.92 22.4643 265.72C38.8843 260.04 55.7843 254.89 71.0643 246.59C75.9743 243.92 80.6943 240.94 85.1543 237.57C115.614 214.54 130.564 176.06 137.774 138.26C138.294 135.51 138.784 132.77 139.244 130.02C145.964 89.51 148.124 48.41 159.144 11.09C164.884 -8.34 173.074 -28.78 190.924 -39.47C212.314 -52.29 240.374 -47.21 263.004 -37.07C278.404 -30.17 292.754 -21.14 307.834 -13.94C314.914 -10.56 322.164 -7.58002 329.764 -5.40002C378.104 8.44998 432.594 -14.42 466.684 -52.4C500.774 -90.39 517.554 -140.79 526.574 -191" stroke="url(#paint18_linear_565_6253)" stroke-width="0.8669" stroke-miterlimit="10"/>
<path opacity="0.54" d="M-39.6062 368.66C-52.8262 352.07 -49.7162 327.09 -37.6762 309.59C-36.5962 308.03 -35.4562 306.52 -34.2562 305.08C-21.9062 290.34 -4.37615 281.24 13.6538 274.13C17.1138 272.77 20.5938 271.48 24.0738 270.23C40.4338 264.36 57.2838 259.05 72.5138 250.67C77.4038 247.98 82.1139 244.98 86.5639 241.59C116.954 218.44 131.744 179.96 138.664 142.1C139.164 139.35 139.634 136.6 140.064 133.85C146.414 93.2898 147.654 52.0798 157.924 14.1598C163.344 -5.86018 171.564 -26.9102 189.654 -37.9302C211.344 -51.1502 239.944 -45.8402 262.914 -35.2402C278.544 -28.0302 293.074 -18.6202 308.384 -11.0702C315.574 -7.52019 322.934 -4.3902 330.664 -2.0802C379.814 12.5998 435.434 -10.5702 470.044 -49.2602C504.654 -87.9502 521.464 -139.35 530.494 -190.45" stroke="url(#paint19_linear_565_6253)" stroke-width="0.8669" stroke-miterlimit="10"/>
<path opacity="0.54" d="M-37.2155 374.01C-50.4455 357.45 -47.5155 332.53 -35.6455 314.89C-34.5855 313.32 -33.4555 311.8 -32.2655 310.34C-20.0655 295.45 -2.64547 286.12 15.3245 278.8C18.7745 277.4 22.2445 276.06 25.7045 274.78C42.0145 268.73 58.8145 263.25 73.9845 254.79C78.8545 252.07 83.5445 249.06 87.9845 245.65C118.295 222.37 132.945 183.91 139.565 145.98C140.045 143.22 140.485 140.47 140.895 137.72C146.875 97.1099 147.185 55.7999 156.715 17.2799C161.815 -3.33011 170.055 -25.0001 188.395 -36.3501C210.385 -49.9701 239.525 -44.4201 262.825 -33.3801C278.685 -25.8701 293.395 -16.0701 308.925 -8.17012C316.215 -4.46012 323.695 -1.17012 331.545 1.26988C381.505 16.7899 438.255 -6.70012 473.385 -46.0901C508.515 -85.4901 525.355 -137.88 534.385 -189.87" stroke="url(#paint20_linear_565_6253)" stroke-width="0.8669" stroke-miterlimit="10"/>
<path opacity="0.54" d="M-34.8372 379.35C-48.0672 362.81 -45.3172 337.96 -33.6372 320.17C-32.5972 318.58 -31.4772 317.05 -30.3072 315.58C-18.2572 300.54 -0.947172 290.99 16.9528 283.44C20.3828 281.99 23.8428 280.62 27.3028 279.29C43.5528 273.05 60.3128 267.4 75.4228 258.87C80.2728 256.13 84.9528 253.1 89.3728 249.67C119.613 226.27 134.113 187.81 140.433 149.82C140.893 147.06 141.313 144.3 141.693 141.55C147.303 100.89 146.673 59.4902 155.473 20.3502C160.233 -0.839842 168.513 -23.1298 187.093 -34.8098C209.383 -48.8198 239.063 -43.0398 262.693 -31.5598C278.773 -23.7498 293.673 -13.5598 309.423 -5.29984C316.823 -1.42984 324.403 2.02018 332.383 4.59018C383.153 20.9402 441.033 -2.84983 476.683 -42.9498C512.333 -83.0498 529.203 -136.44 538.243 -189.32" stroke="url(#paint21_linear_565_6253)" stroke-width="0.8669" stroke-miterlimit="10"/>
<path opacity="0.54" d="M-32.4466 384.69C-45.6766 368.18 -43.1166 343.39 -31.6066 325.45C-30.5766 323.85 -29.4866 322.3 -28.3166 320.82C-16.4066 305.63 0.783379 295.85 18.6234 288.09C22.0434 286.6 25.4934 285.19 28.9334 283.82C45.1234 277.39 61.8334 271.58 76.8934 262.97C81.7334 260.21 86.3834 257.16 90.8034 253.72C120.973 230.2 135.323 191.75 141.353 153.69C141.793 150.92 142.183 148.16 142.543 145.4C147.783 104.68 146.213 63.2102 154.283 23.4502C158.703 1.68023 167.023 -21.2398 185.853 -33.2498C208.443 -47.6598 238.663 -41.6398 262.623 -29.7198C278.933 -21.6098 294.013 -11.0198 309.993 -2.41977C317.493 1.62023 325.193 5.22023 333.303 7.92023C384.883 25.1002 443.893 1.00024 480.063 -39.7998C516.233 -80.6098 533.143 -134.99 542.183 -188.76" stroke="url(#paint22_linear_565_6253)" stroke-width="0.8669" stroke-miterlimit="10"/>
<path opacity="0.54" d="M-30.0575 390.03C-44.4775 372.07 -40.3675 344.34 -26.3475 326.06C-12.3275 307.79 9.23246 297.08 30.5425 288.34C51.8525 279.6 74.1025 271.97 92.2125 257.75C124.492 232.39 138.492 190 143.352 149.24C148.222 108.47 145.692 66.93 153.052 26.54C157.122 4.19004 165.502 -19.3499 184.572 -31.6899C207.462 -46.4999 238.222 -40.2399 262.522 -27.8699C286.822 -15.4999 308.392 2.39004 334.172 11.26C386.562 29.28 446.702 4.87004 483.392 -36.64C520.082 -78.15 537.022 -133.53 546.072 -188.19" stroke="url(#paint23_linear_565_6253)" stroke-width="0.8669" stroke-miterlimit="10"/>
<path opacity="0.54" d="M-56.9658 600.16C-70.0958 583.1 -63.5358 556.92 -48.0758 542.18C-46.6958 540.86 -45.2558 539.62 -43.7758 538.45C-28.6558 526.5 -8.95577 521.72 10.2542 518.82C13.9542 518.26 17.6742 517.76 21.3942 517.27C38.8742 514.97 56.5742 512.8 72.8442 505.89C78.1142 503.66 83.0842 500.99 87.7842 497.92C119.534 477.1 137.174 438.46 149.724 401.85C150.634 399.19 151.544 396.52 152.444 393.84C165.834 354.25 181.184 315.1 209.044 288.49C218.554 279.41 228.334 270.32 241.784 265.56C257.764 259.88 276.124 260.72 292.754 262.87C304.094 264.33 315.094 266.34 326.174 267.27C331.384 267.7 336.614 267.89 341.914 267.71C375.664 266.55 409.834 249.25 434.544 223.98C459.284 198.67 475.494 166.2 484.384 132" stroke="url(#paint24_linear_565_6253)" stroke-width="0.8669" stroke-miterlimit="10"/>
<path opacity="0.54" d="M-54.5748 605.5C-67.7148 588.46 -61.3248 562.35 -46.0548 547.46C-44.6848 546.13 -43.2648 544.87 -41.8048 543.69C-26.8348 531.6 -7.24478 526.59 11.9052 523.47C15.5952 522.87 19.3052 522.33 23.0152 521.8C40.4352 519.31 58.0852 516.98 74.3052 509.99C79.5552 507.73 84.5152 505.05 89.1952 501.96C120.875 481.02 138.365 442.39 150.625 405.71C151.515 403.05 152.395 400.37 153.275 397.69C166.295 358.05 181.115 318.93 207.835 291.59C217.215 281.99 226.825 272.21 240.525 267.12C256.805 261.04 275.705 262.11 292.675 264.71C304.245 266.48 315.425 268.87 326.735 270.15C332.045 270.75 337.395 271.09 342.825 271.04C377.385 270.72 412.685 253.11 437.915 227.13C463.175 201.12 479.425 167.65 488.315 132.56" stroke="url(#paint25_linear_565_6253)" stroke-width="0.8669" stroke-miterlimit="10"/>
<path opacity="0.54" d="M-52.1843 610.84C-65.3243 593.83 -59.1243 567.77 -44.0343 552.75C-42.6843 551.41 -41.2843 550.14 -39.8243 548.94C-24.9943 536.7 -5.52433 531.46 13.5657 528.12C17.2357 527.48 20.9357 526.9 24.6357 526.33C41.9957 523.66 59.6057 521.15 75.7657 514.09C80.9957 511.81 85.9357 509.11 90.6057 506C122.216 484.94 139.556 446.32 151.516 409.57C152.386 406.9 153.246 404.22 154.096 401.54C166.746 361.85 181.016 322.72 206.616 294.68C215.866 284.55 225.306 274.1 239.256 268.68C255.836 262.2 275.276 263.51 292.576 266.56C304.376 268.63 315.736 271.41 327.266 273.04C332.686 273.8 338.136 274.3 343.696 274.38C379.066 274.89 415.496 256.97 441.246 230.28C467.026 203.56 483.306 169.1 492.206 133.12" stroke="url(#paint26_linear_565_6253)" stroke-width="0.8669" stroke-miterlimit="10"/>
<path opacity="0.54" d="M-49.8044 616.18C-62.9544 599.19 -56.9344 573.2 -42.0144 558.03C-40.6844 556.67 -39.2944 555.39 -37.8544 554.18C-23.1744 541.79 -3.8144 536.33 15.2056 532.77C18.8656 532.09 22.5556 531.46 26.2356 530.85C43.5356 527.99 61.1056 525.32 77.2156 518.18C82.4256 515.87 87.3556 513.16 92.0156 510.03C123.556 488.84 140.736 450.23 152.406 413.42C153.256 410.75 154.086 408.06 154.916 405.37C167.196 365.63 180.886 326.47 205.396 297.76C214.506 287.09 223.786 275.97 237.976 270.22C254.856 263.35 274.836 264.89 292.466 268.38C304.486 270.75 316.036 273.92 327.786 275.9C333.306 276.83 338.876 277.48 344.566 277.69C380.746 279.03 418.306 260.8 444.576 233.41C470.876 205.99 487.186 170.53 496.096 133.66" stroke="url(#paint27_linear_565_6253)" stroke-width="0.8669" stroke-miterlimit="10"/>
<path opacity="0.54" d="M-47.4141 621.53C-60.5641 604.57 -54.7241 578.64 -39.9941 563.32C-38.6741 561.95 -37.3041 560.65 -35.8741 559.42C-21.3441 546.88 -2.09411 541.19 16.8659 537.41C20.5159 536.68 24.1859 536.02 27.8559 535.37C45.0959 532.32 62.6159 529.49 78.6759 522.27C83.8659 519.94 88.7859 517.2 93.4259 514.06C124.896 492.75 141.926 454.15 153.296 417.27C154.126 414.59 154.936 411.9 155.736 409.21C167.646 369.41 180.726 330.19 204.176 300.84C213.146 289.62 222.276 277.85 236.706 271.77C253.886 264.5 274.406 266.28 292.376 270.21C304.626 272.88 316.366 276.45 328.336 278.77C333.966 279.86 339.646 280.67 345.456 281.01C382.446 283.19 421.136 264.65 447.926 236.55C474.746 208.42 491.086 171.97 499.996 134.21" stroke="url(#paint28_linear_565_6253)" stroke-width="0.8669" stroke-miterlimit="10"/>
<path opacity="0.54" d="M-45.0238 626.87C-58.1838 609.93 -52.5238 584.07 -37.9638 568.6C-36.6638 567.22 -35.3038 565.91 -33.8938 564.66C-19.5038 551.98 -0.373793 546.06 18.5262 542.06C22.1662 541.29 25.8162 540.58 29.4762 539.9C46.6562 536.66 64.1362 533.66 80.1362 526.37C85.3062 524.02 90.2062 521.26 94.8362 518.1C126.226 496.67 143.116 458.07 154.186 421.13C154.986 418.45 155.776 415.75 156.556 413.06C168.096 373.21 180.546 333.91 202.966 303.94C211.776 292.16 220.766 279.74 235.446 273.33C252.926 265.66 273.986 267.68 292.286 272.06C304.756 275.04 316.686 278.99 328.876 281.66C334.606 282.91 340.396 283.87 346.336 284.35C384.136 287.36 423.956 268.51 451.266 239.71C478.606 210.88 494.976 173.43 503.896 134.78" stroke="url(#paint29_linear_565_6253)" stroke-width="0.8669" stroke-miterlimit="10"/>
<path opacity="0.54" d="M-42.6476 632.21C-55.8076 615.3 -50.3376 589.5 -35.9576 573.89C-34.6776 572.5 -33.3276 571.17 -31.9376 569.91C-17.6976 557.08 1.32239 550.93 20.1624 546.71C23.7824 545.9 27.4324 545.15 31.0824 544.42C48.2124 541 65.6424 537.83 81.5824 530.46C86.7324 528.08 91.6224 525.31 96.2424 522.14C127.562 500.59 144.302 462 155.082 424.99C155.862 422.3 156.632 419.6 157.382 416.91C168.552 377.01 180.352 337.6 201.752 307.03C210.402 294.68 219.252 281.63 234.172 274.89C251.952 266.83 273.542 269.08 292.182 273.9C304.882 277.18 316.992 281.52 329.412 284.54C335.242 285.96 341.152 287.07 347.222 287.68C385.832 291.52 426.782 272.37 454.612 242.86C482.472 213.32 498.872 174.88 507.802 135.34" stroke="url(#paint30_linear_565_6253)" stroke-width="0.8669" stroke-miterlimit="10"/>
<path opacity="0.54" d="M-40.2568 637.55C-53.4268 620.66 -48.1268 594.93 -33.9368 579.17C-32.6668 577.76 -31.3368 576.42 -29.9568 575.15C-15.8568 562.17 3.04321 555.8 21.8132 551.35C25.4232 550.5 29.0532 549.71 32.6932 548.94C49.7632 545.33 67.1432 542 83.0332 534.55C88.1632 532.15 93.0332 529.36 97.6432 526.17C128.893 504.49 145.483 465.91 155.963 428.84C156.723 426.15 157.463 423.45 158.193 420.74C168.993 380.79 180.103 341.25 200.523 310.11C208.993 297.19 217.723 283.5 232.893 276.43C250.973 267.97 273.103 270.46 292.073 275.72C304.993 279.3 317.293 284.03 329.933 287.4C335.873 288.98 341.883 290.25 348.083 290.99C387.503 295.67 429.583 276.2 457.933 245.99C486.313 215.75 502.743 176.31 511.683 135.88" stroke="url(#paint31_linear_565_6253)" stroke-width="0.8669" stroke-miterlimit="10"/>
<path opacity="0.54" d="M-37.8667 642.9C-51.0367 626.04 -45.9267 600.36 -31.9067 584.46C-30.6567 583.04 -29.3467 581.69 -27.9767 580.4C-14.0267 567.27 4.76329 560.68 23.4733 556.01C27.0733 555.11 30.6933 554.28 34.3133 553.47C51.3233 549.67 68.6633 546.17 84.4933 538.65C89.6033 536.22 94.4633 533.42 99.0533 530.21C130.233 508.41 146.673 469.84 156.853 432.7C157.593 430 158.313 427.3 159.013 424.59C169.443 384.59 179.853 344.92 199.303 313.2C207.583 299.7 216.213 285.39 231.623 277.99C250.003 269.13 272.673 271.86 291.983 277.56C305.133 281.44 317.613 286.57 330.473 290.28C336.513 292.03 342.643 293.45 348.963 294.32C389.193 299.83 432.403 280.06 461.273 249.14C490.173 218.19 506.633 177.76 515.583 136.44" stroke="url(#paint32_linear_565_6253)" stroke-width="0.8669" stroke-miterlimit="10"/>
<path opacity="0.54" d="M-35.4745 648.24C-48.6445 631.4 -43.7245 605.79 -29.8845 589.75C-28.6445 588.32 -27.3545 586.95 -25.9945 585.65C-12.1945 572.38 6.48551 565.55 25.1355 560.66C28.7255 559.72 32.3255 558.85 35.9355 558C52.8855 554.01 70.1855 550.35 85.9555 542.75C91.0455 540.3 95.8955 537.48 100.476 534.25C131.586 512.33 147.876 473.77 157.756 436.56C158.476 433.86 159.166 431.15 159.846 428.44C169.906 388.39 179.576 348.58 198.096 316.3C206.176 302.21 214.705 287.28 230.355 279.56C249.035 270.31 272.245 273.27 291.885 279.42C305.255 283.6 317.926 289.12 331.016 293.18C337.166 295.09 343.405 296.67 349.855 297.67C390.896 304.02 435.235 283.93 464.625 252.31C494.045 220.66 510.535 179.23 519.485 137.02" stroke="url(#paint33_linear_565_6253)" stroke-width="0.8669" stroke-miterlimit="10"/>
<path opacity="0.54" d="M-33.0957 653.58C-46.2757 636.77 -41.5258 611.22 -27.8658 595.03C-26.6458 593.58 -25.3657 592.2 -24.0257 590.89C-10.3657 577.47 8.19426 570.42 26.7843 565.31C30.3543 564.33 33.9543 563.41 37.5443 562.53C54.4342 558.35 71.6842 554.53 87.4142 546.85C92.4842 544.38 97.3142 541.53 101.884 538.29C132.914 516.24 149.064 477.69 158.644 440.42C159.344 437.71 160.014 435 160.664 432.29C170.354 392.19 179.274 352.22 196.874 319.39C204.744 304.71 213.184 289.17 229.084 281.11C248.064 271.46 271.814 274.65 291.784 281.25C305.384 285.74 318.244 291.64 331.544 296.06C337.794 298.13 344.144 299.87 350.724 301C392.584 308.18 438.044 287.79 467.954 255.45C497.894 223.1 514.414 180.67 523.374 137.57" stroke="url(#paint34_linear_565_6253)" stroke-width="0.8669" stroke-miterlimit="10"/>
<path opacity="0.54" d="M-30.7044 658.92C-43.8844 642.13 -39.3244 616.65 -25.8444 600.31C-24.6444 598.85 -23.3744 597.46 -22.0544 596.13C-8.54441 582.56 9.90558 575.28 28.4356 569.95C31.9956 568.93 35.5756 567.97 39.1656 567.04C55.9956 562.68 73.2056 558.68 88.8756 550.92C93.9256 548.42 98.7456 545.56 103.296 542.31C134.256 520.14 150.246 481.6 159.546 444.26C160.216 441.55 160.876 438.83 161.506 436.11C170.826 395.96 178.966 355.84 195.676 322.46C203.316 307.19 211.686 291.03 227.836 282.65C247.116 272.6 271.406 276.03 291.706 283.07C305.536 287.86 318.576 294.15 332.096 298.92C338.456 301.16 344.916 303.05 351.626 304.31C394.296 312.32 440.886 291.62 471.316 258.58C501.776 225.52 518.336 182.1 527.296 138.11" stroke="url(#paint35_linear_565_6253)" stroke-width="0.8669" stroke-miterlimit="10"/>
<path opacity="0.54" d="M-28.315 664.27C-41.505 647.51 -37.125 622.09 -23.825 605.6C-22.635 604.13 -21.385 602.72 -20.075 601.38C-6.70503 587.67 11.625 580.16 30.085 574.6C33.635 573.53 37.205 572.54 40.775 571.57C57.545 567.02 74.715 562.86 90.325 555.02C95.355 552.5 100.155 549.62 104.695 546.35C135.585 524.06 151.425 485.52 160.425 448.12C161.075 445.4 161.705 442.68 162.315 439.96C171.255 399.76 178.605 359.49 194.445 325.56C201.855 309.7 210.165 292.93 226.545 284.21C246.125 273.77 270.955 277.43 291.595 284.92C305.645 290.01 318.875 296.69 332.625 301.81C339.085 304.21 345.665 306.26 352.495 307.65C395.975 316.5 443.695 295.49 474.645 261.74C505.625 227.98 522.215 183.55 531.185 138.68" stroke="url(#paint36_linear_565_6253)" stroke-width="0.8669" stroke-miterlimit="10"/>
<path opacity="0.54" d="M-25.9243 669.61C-39.1143 652.87 -34.9143 627.51 -21.7943 610.89C-20.6243 609.41 -19.3843 607.98 -18.0943 606.63C-4.87429 592.77 13.3457 585.03 31.7457 579.26C35.2857 578.15 38.8357 577.11 42.3957 576.1C59.1157 571.36 76.2257 567.04 91.7857 559.12C96.7957 556.57 101.586 553.68 106.116 550.39C136.936 527.97 152.626 489.45 161.326 451.98C161.956 449.26 162.566 446.53 163.146 443.81C171.716 403.55 178.246 363.13 193.236 328.65C200.396 312.19 208.656 294.81 225.286 285.77C245.166 274.93 270.536 278.83 291.506 286.76C305.786 292.15 319.196 299.23 333.166 304.69C339.726 307.25 346.416 309.46 353.376 310.98C397.666 320.66 446.506 299.34 477.986 264.89C509.486 230.42 526.106 185 535.086 139.24" stroke="url(#paint37_linear_565_6253)" stroke-width="0.8669" stroke-miterlimit="10"/>
<path opacity="0.54" d="M-23.5473 674.95C-36.7473 658.24 -32.7273 632.94 -19.7873 616.17C-18.6273 614.67 -17.4073 613.24 -16.1373 611.87C-3.06731 597.86 15.0427 589.9 33.3827 583.9C36.9027 582.75 40.4527 581.67 43.9927 580.62C60.6527 575.69 77.7227 571.21 93.2227 563.21C98.2127 560.64 102.993 557.73 107.503 554.42C138.253 531.88 153.793 493.36 162.193 455.83C162.803 453.1 163.383 450.37 163.943 447.65C172.143 407.34 177.823 366.77 191.993 331.74C198.893 314.69 207.113 296.7 223.993 287.32C244.183 276.08 270.083 280.22 291.383 288.59C305.883 294.29 319.483 301.75 333.683 307.56C340.353 310.29 347.153 312.65 354.243 314.3C399.343 324.81 449.313 303.19 481.313 268.03C513.333 232.86 529.983 186.44 538.963 139.79" stroke="url(#paint38_linear_565_6253)" stroke-width="0.8669" stroke-miterlimit="10"/>
<path opacity="0.54" d="M-21.1541 680.29C-34.3541 663.6 -30.5241 638.37 -17.7541 621.45C-16.6141 619.94 -15.4141 618.49 -14.1441 617.11C-1.2141 602.95 16.7759 594.76 35.0559 588.55C38.5659 587.36 42.0959 586.23 45.6259 585.15C62.2259 580.04 79.2559 575.38 94.6959 567.31C99.6659 564.71 104.426 561.79 108.926 558.46C139.596 535.8 154.996 497.29 163.096 459.69C163.686 456.96 164.246 454.22 164.776 451.49C172.606 411.13 177.436 370.42 190.786 334.82C197.406 317.17 205.606 298.57 222.726 288.87C243.216 277.24 269.656 281.61 291.296 290.42C306.026 296.42 319.806 304.27 334.226 310.43C340.996 313.32 347.906 315.83 355.126 317.62C401.036 328.97 452.136 307.03 484.656 271.17C517.186 235.29 533.876 187.88 542.866 140.34" stroke="url(#paint39_linear_565_6253)" stroke-width="0.8669" stroke-miterlimit="10"/>
<path opacity="0.54" d="M-18.7652 685.64C-31.9752 668.98 -28.3152 643.81 -15.7352 626.75C-14.6152 625.23 -13.4252 623.76 -12.1752 622.37C0.604804 608.07 18.4848 599.65 36.6948 593.21C40.1948 591.98 43.7148 590.81 47.2348 589.68C63.7748 584.38 80.7548 579.56 96.1448 571.41C101.095 568.79 105.845 565.85 110.335 562.5C140.935 539.71 156.185 501.22 163.985 463.55C164.555 460.81 165.085 458.07 165.595 455.34C173.055 414.93 177.005 374.08 189.575 337.92C195.915 319.68 204.105 300.46 221.465 290.43C242.255 278.4 269.235 283.01 291.205 292.27C306.155 298.57 320.125 306.81 334.765 313.32C341.645 316.38 348.665 319.04 356.015 320.96C402.735 333.14 454.965 310.9 488.005 274.33C521.055 237.75 537.775 189.34 546.775 140.91" stroke="url(#paint40_linear_565_6253)" stroke-width="0.8669" stroke-miterlimit="10"/>
<path opacity="0.54" d="M-16.3763 690.98C-29.5863 674.34 -26.1163 649.24 -13.7063 632.03C-12.5963 630.49 -11.4263 629.02 -10.1863 627.6C2.45367 613.15 20.2137 604.5 38.3637 597.84C41.8437 596.56 45.3537 595.36 48.8637 594.19C65.3437 588.7 82.2837 583.72 97.6237 575.49C102.554 572.85 107.284 569.88 111.764 566.53C142.294 543.62 157.394 505.13 164.904 467.4C165.454 464.66 165.964 461.92 166.444 459.18C173.534 418.72 176.594 377.74 188.384 341C194.424 322.16 202.614 302.34 220.224 291.98C241.314 279.55 268.834 284.4 291.134 294.1C306.314 300.7 320.474 309.34 335.334 316.19C342.314 319.41 349.454 322.23 356.924 324.28C404.454 337.3 457.814 314.74 491.384 277.46C524.954 240.18 541.704 190.77 550.714 141.45" stroke="url(#paint41_linear_565_6253)" stroke-width="0.8669" stroke-miterlimit="10"/>
<path opacity="0.54" d="M-13.9957 696.32C-27.2157 679.71 -23.9157 654.66 -11.6957 637.31C-10.6057 635.76 -9.44567 634.27 -8.22567 632.84C4.26433 618.24 21.9143 609.37 40.0043 602.49C43.4743 601.17 46.9743 599.92 50.4643 598.72C66.8843 593.04 83.7843 587.89 99.0643 579.59C103.974 576.92 108.694 573.94 113.154 570.57C143.614 547.54 158.564 509.06 165.774 471.26C166.294 468.51 166.784 465.77 167.244 463.02C173.964 422.51 176.124 381.41 187.144 344.09C192.884 324.66 201.074 304.22 218.924 293.53C240.314 280.71 268.374 285.79 291.004 295.93C306.404 302.83 320.754 311.86 335.834 319.06C342.914 322.44 350.164 325.42 357.764 327.6C406.104 341.45 460.594 318.58 494.684 280.6C528.774 242.61 545.554 192.21 554.574 142" stroke="url(#paint42_linear_565_6253)" stroke-width="0.8669" stroke-miterlimit="10"/>
<path opacity="0.54" d="M-11.6062 701.66C-24.8262 685.07 -21.7162 660.09 -9.67615 642.59C-8.59615 641.03 -7.45616 639.52 -6.25616 638.08C6.09384 623.34 23.6238 614.24 41.6538 607.13C45.1138 605.77 48.5938 604.48 52.0738 603.23C68.4338 597.36 85.2838 592.05 100.514 583.67C105.404 580.98 110.114 577.98 114.564 574.59C144.954 551.44 159.744 512.96 166.664 475.1C167.164 472.35 167.634 469.6 168.064 466.85C174.414 426.29 175.654 385.08 185.924 347.16C191.344 327.14 199.564 306.09 217.654 295.07C239.344 281.85 267.944 287.16 290.914 297.76C306.544 304.97 321.074 314.38 336.384 321.93C343.574 325.48 350.934 328.61 358.664 330.92C407.814 345.6 463.434 322.43 498.044 283.74C532.654 245.05 549.464 193.65 558.494 142.55" stroke="url(#paint43_linear_565_6253)" stroke-width="0.8669" stroke-miterlimit="10"/>
<path opacity="0.54" d="M-9.21547 707.01C-22.4455 690.45 -19.5155 665.53 -7.64547 647.89C-6.58547 646.32 -5.45547 644.8 -4.26547 643.34C7.93453 628.45 25.3545 619.12 43.3245 611.8C46.7745 610.4 50.2445 609.06 53.7045 607.78C70.0145 601.73 86.8145 596.25 101.985 587.79C106.855 585.07 111.545 582.06 115.985 578.65C146.295 555.37 160.945 516.91 167.565 478.98C168.045 476.22 168.485 473.47 168.895 470.72C174.875 430.11 175.185 388.8 184.715 350.28C189.815 329.67 198.055 308 216.395 296.65C238.385 283.03 267.525 288.58 290.825 299.62C306.685 307.13 321.395 316.93 336.925 324.83C344.215 328.54 351.695 331.83 359.545 334.27C409.505 349.79 466.255 326.3 501.385 286.91C536.515 247.51 553.355 195.12 562.385 143.13" stroke="url(#paint44_linear_565_6253)" stroke-width="0.8669" stroke-miterlimit="10"/>
<path opacity="0.54" d="M-6.83718 712.35C-20.0672 695.81 -17.3172 670.96 -5.63718 653.17C-4.59718 651.58 -3.47718 650.05 -2.30718 648.58C9.74282 633.54 27.0528 623.99 44.9528 616.44C48.3828 614.99 51.8428 613.62 55.3028 612.29C71.5528 606.05 88.3128 600.4 103.423 591.87C108.273 589.13 112.953 586.1 117.373 582.67C147.613 559.27 162.113 520.81 168.433 482.82C168.893 480.06 169.313 477.3 169.693 474.55C175.303 433.89 174.673 392.49 183.473 353.35C188.233 332.16 196.513 309.87 215.093 298.19C237.383 284.18 267.063 289.96 290.693 301.44C306.773 309.25 321.673 319.44 337.423 327.7C344.823 331.57 352.403 335.02 360.383 337.59C411.153 353.94 469.033 330.15 504.683 290.05C540.333 249.95 557.203 196.56 566.243 143.68" stroke="url(#paint45_linear_565_6253)" stroke-width="0.8669" stroke-miterlimit="10"/>
<path opacity="0.54" d="M-4.44662 717.69C-17.6766 701.18 -15.1166 676.39 -3.60663 658.45C-2.57663 656.85 -1.48663 655.3 -0.316626 653.82C11.5934 638.63 28.7834 628.85 46.6234 621.09C50.0434 619.6 53.4934 618.19 56.9334 616.82C73.1234 610.39 89.8334 604.58 104.893 595.97C109.733 593.21 114.383 590.16 118.803 586.72C148.973 563.2 163.323 524.75 169.353 486.69C169.793 483.92 170.183 481.16 170.543 478.4C175.783 437.68 174.213 396.21 182.283 356.45C186.703 334.68 195.023 311.76 213.853 299.75C236.443 285.34 266.663 291.36 290.623 303.28C306.933 311.39 322.013 321.98 337.993 330.58C345.493 334.62 353.193 338.22 361.303 340.92C412.883 358.1 471.893 334 508.063 293.2C544.233 252.39 561.143 198.01 570.183 144.24" stroke="url(#paint46_linear_565_6253)" stroke-width="0.8669" stroke-miterlimit="10"/>
<path opacity="0.54" d="M-2.05754 723.03C-16.4775 705.07 -12.3675 677.34 1.65246 659.06C15.6725 640.79 37.2325 630.08 58.5425 621.34C79.8525 612.6 102.102 604.97 120.212 590.75C152.492 565.39 166.492 523 171.352 482.24C176.222 441.47 173.692 399.93 181.052 359.54C185.122 337.19 193.502 313.65 212.572 301.31C235.462 286.5 266.222 292.76 290.522 305.13C314.822 317.5 336.392 335.39 362.172 344.26C414.562 362.28 474.702 337.87 511.392 296.36C548.082 254.85 565.022 199.47 574.072 144.81" stroke="url(#paint47_linear_565_6253)" stroke-width="0.8669" stroke-miterlimit="10"/>
<path opacity="0.54" d="M-59.5883 585.582C-46.5695 568.437 -19.5855 567.9 -1.30653 578.953C0.329213 579.938 1.90351 581.003 3.42073 582.124C18.9182 593.58 28.6979 611.337 36.535 629.113C38.0459 632.537 39.5041 635.996 40.9526 639.457C47.7569 655.722 54.4935 672.233 65.429 686.121C68.9632 690.621 72.8433 694.717 77.0386 698.447C105.457 723.625 147.371 730.512 185.991 733.02C188.797 733.201 191.612 733.379 194.434 733.544C236.15 736.081 277.956 740.625 310.942 760.53C322.198 767.326 333.535 774.379 341.656 786.11C351.329 800.041 355.334 817.978 357.621 834.59C359.186 845.916 360.132 857.058 362.141 867.994C363.092 873.134 364.281 878.231 365.844 883.298C375.816 915.562 401.473 943.998 432.339 961.215C463.252 978.45 498.837 985.576 534.172 985.185" stroke="url(#paint48_linear_565_6253)" stroke-width="0.8669" stroke-miterlimit="10"/>
<path opacity="0.54" d="M-64.1161 589.289C-51.1191 572.139 -24.2472 571.457 -5.87338 582.287C-4.23061 583.26 -2.64228 584.3 -1.12065 585.4C14.4725 596.674 24.4454 614.264 32.479 631.926C34.0259 635.329 35.5201 638.768 37.0046 642.209C43.9765 658.366 50.8543 674.787 61.854 688.605C65.4119 693.079 69.299 697.162 73.5083 700.868C102.025 725.946 143.89 732.692 182.501 734.902C185.301 735.063 188.118 735.209 190.935 735.355C232.602 737.522 274.24 741.563 307.631 760.176C319.355 766.71 331.314 773.418 339.819 785.303C349.956 799.419 353.881 817.938 355.823 834.995C357.149 846.625 357.775 858.04 359.507 869.29C360.321 874.571 361.396 879.823 362.868 885.05C372.242 918.316 398.494 947.761 430.182 965.294C461.907 982.847 498.467 989.749 534.66 989.124" stroke="url(#paint49_linear_565_6253)" stroke-width="0.8669" stroke-miterlimit="10"/>
<path opacity="0.54" d="M-68.64 592.995C-55.672 575.854 -28.8982 575.002 -10.4461 585.624C-8.79896 586.575 -7.20622 587.593 -5.66529 588.687C10.0359 599.787 20.1993 617.201 28.4294 634.747C30.0096 638.121 31.5398 641.539 33.0603 644.96C40.1902 661.012 47.2312 677.347 58.2827 691.089C61.8546 695.538 65.7558 699.597 69.9818 703.288C98.5955 728.267 140.411 734.871 179.012 736.773C181.817 736.912 184.628 737.039 187.437 737.156C229.056 738.953 270.559 742.46 304.332 759.809C316.533 766.078 329.093 772.447 337.982 784.487C348.584 798.787 352.419 817.89 354.013 835.384C355.111 847.314 355.408 859.005 356.859 870.559C357.547 875.989 358.494 881.379 359.876 886.765C368.661 921.031 395.508 951.485 428.018 969.333C460.564 987.202 498.088 993.874 535.143 993.025" stroke="url(#paint50_linear_565_6253)" stroke-width="0.8669" stroke-miterlimit="10"/>
<path opacity="0.54" d="M-73.1702 596.693C-60.2242 579.547 -33.5651 578.539 -15.0128 588.958C-13.3516 589.885 -11.7519 590.89 -10.2065 591.962C5.60011 602.879 15.9469 620.129 24.371 637.549C25.9872 640.903 27.563 644.298 29.1168 647.689C36.4143 663.634 43.5993 679.888 54.7148 693.561C58.3104 697.983 62.2187 702.03 66.4614 705.705C95.1821 730.583 136.946 737.035 175.529 738.641C178.328 738.761 181.142 738.857 183.955 738.952C225.525 740.379 266.904 743.318 301.038 759.44C313.724 765.432 326.889 771.471 336.159 783.656C347.216 798.143 350.971 817.827 352.227 835.755C353.093 847.976 353.063 859.953 354.234 871.811C354.785 877.382 355.618 882.927 356.908 888.473C365.105 923.738 392.548 955.201 425.87 973.367C459.228 991.555 497.724 997.993 535.64 996.92" stroke="url(#paint51_linear_565_6253)" stroke-width="0.8669" stroke-miterlimit="10"/>
<path opacity="0.54" d="M-77.7056 600.402C-64.7885 583.264 -38.2346 582.098 -19.5874 592.294C-17.9192 593.209 -16.3054 594.19 -14.7433 595.247C1.16869 605.979 11.7085 623.063 20.3292 640.368C21.991 643.699 23.5905 647.067 25.1804 650.438C32.6455 666.274 39.9717 682.439 51.1513 696.043C54.761 700.44 58.6955 704.469 62.9426 708.123C91.7608 732.902 133.476 739.211 172.047 740.51C174.851 740.608 177.659 740.684 180.465 740.75C221.995 741.804 263.273 744.139 297.746 759.07C310.926 764.783 324.679 770.506 334.331 782.836C345.852 797.508 349.517 817.776 350.438 836.148C351.074 848.67 350.709 860.935 351.609 873.094C352.034 878.813 352.742 884.507 353.938 890.202C361.537 926.469 389.576 958.942 423.718 977.423C457.898 995.926 497.358 1002.13 536.133 1000.83" stroke="url(#paint52_linear_565_6253)" stroke-width="0.8669" stroke-miterlimit="10"/>
<path opacity="0.54" d="M-82.2296 604.109C-69.3345 586.967 -42.8953 585.646 -24.1479 595.638C-22.4753 596.531 -20.8545 597.5 -19.2784 598.532C-3.26798 609.093 7.46236 626 16.2796 643.189C17.9774 646.5 19.6199 649.836 21.236 653.19C28.8688 668.918 36.3485 684.999 47.58 698.527C51.2037 702.9 55.1523 706.904 59.4161 710.543C88.3291 735.213 130.008 741.388 168.558 742.381C171.354 742.45 174.167 742.504 176.967 742.551C218.449 743.235 259.638 744.941 294.44 758.716C308.118 764.127 322.461 769.545 332.497 782.03C344.483 796.886 348.058 817.738 348.631 836.547C349.026 849.362 348.344 861.91 348.964 874.374C349.261 880.231 349.853 886.07 350.948 891.928C357.958 929.194 386.593 962.676 421.547 981.475C456.539 1000.3 496.972 1006.27 536.608 1004.74" stroke="url(#paint53_linear_565_6253)" stroke-width="0.8669" stroke-miterlimit="10"/>
<path opacity="0.54" d="M-86.76 607.806C-73.8938 590.672 -47.5623 589.183 -28.7271 598.965C-27.0501 599.836 -25.4126 600.79 -23.8321 601.801C-7.71626 612.177 3.20718 628.918 12.221 645.991C13.9521 649.272 15.6332 652.598 17.295 655.929C25.0883 671.562 32.719 687.55 44.0119 700.999C47.6594 705.344 51.615 709.337 55.8858 712.963C84.8962 737.535 126.526 743.567 165.068 744.262C167.868 744.309 170.675 744.344 173.468 744.362C214.901 744.676 256.026 745.726 291.139 758.358C305.325 763.466 320.24 768.583 330.657 781.213C343.098 796.257 346.59 817.681 346.828 836.933C346.994 850.048 345.982 862.873 346.325 875.65C346.484 881.648 346.963 887.642 347.967 893.66C354.388 931.925 383.608 966.419 419.385 985.534C455.198 1004.67 496.594 1010.41 537.092 1008.66" stroke="url(#paint54_linear_565_6253)" stroke-width="0.8669" stroke-miterlimit="10"/>
<path opacity="0.54" d="M-91.2855 611.513C-78.4412 594.374 -52.2219 592.74 -33.2917 602.3C-31.598 603.155 -29.956 604.087 -28.3685 605.086C-12.1447 615.288 -1.04045 631.855 8.17693 648.801C9.94404 652.062 11.6585 655.357 13.3562 658.668C21.3171 674.193 29.0892 690.091 40.4461 703.471C44.1076 707.792 48.0773 711.76 52.3648 715.372C81.4823 739.841 123.063 745.731 161.584 746.121C164.379 746.149 167.179 746.155 169.985 746.148C211.369 746.092 252.439 746.442 287.845 757.979C302.534 762.764 318.034 767.598 328.836 780.382C341.742 795.61 345.144 817.618 345.043 837.304C344.977 850.711 343.639 863.821 343.703 876.902C343.736 883.048 344.087 889.181 344.999 895.358C350.822 934.626 380.648 970.125 417.236 989.559C453.861 1009.01 496.229 1014.52 537.589 1012.55" stroke="url(#paint55_linear_565_6253)" stroke-width="0.8669" stroke-miterlimit="10"/>
<path opacity="0.54" d="M-95.821 615.223C-83.0056 598.092 -56.8844 596.287 -37.8638 605.646C-36.1656 606.48 -34.5193 607.39 -32.9151 608.374C-16.5859 618.391 -5.29822 634.795 4.11572 651.625C5.92846 654.863 7.67887 658.139 9.41 661.419C17.5385 676.837 25.4641 692.652 36.8728 705.955C40.5581 710.249 44.5348 714.205 48.8363 717.792C78.0513 742.162 119.583 747.91 158.093 747.992C160.892 747.998 163.687 747.985 166.485 747.95C207.821 747.523 248.832 747.163 284.543 757.613C299.742 762.062 315.815 766.636 326.998 779.566C340.368 794.978 343.68 817.571 343.244 837.7C342.949 851.407 341.272 864.796 341.065 878.179C340.961 884.466 341.198 890.754 342.016 897.081C347.251 937.348 377.663 973.859 415.072 993.609C452.519 1013.38 495.851 1018.66 538.072 1016.46" stroke="url(#paint56_linear_565_6253)" stroke-width="0.8669" stroke-miterlimit="10"/>
<path opacity="0.54" d="M-100.347 618.93C-87.5505 601.804 -61.5467 599.835 -42.4382 608.983C-40.733 609.805 -39.0726 610.69 -37.4614 611.662C-21.0364 621.498 -9.54598 637.733 0.0645221 654.447C1.91323 657.665 3.69702 660.911 5.46413 664.171C13.7602 679.481 21.8297 695.216 33.3 708.44C36.9992 712.709 40.9926 716.65 45.3108 720.222C74.6232 744.494 116.106 750.099 154.605 749.874C157.399 749.86 160.195 749.815 162.988 749.761C204.275 748.964 245.227 747.853 281.235 757.258C296.951 761.36 313.596 765.675 325.15 778.752C338.976 794.352 342.207 817.526 341.424 838.091C340.897 852.09 338.894 865.764 338.409 879.461C338.179 885.896 338.291 892.332 339.018 898.819C343.654 940.087 374.671 977.606 412.893 997.673C451.151 1017.76 495.456 1022.81 538.535 1020.37" stroke="url(#paint57_linear_565_6253)" stroke-width="0.8669" stroke-miterlimit="10"/>
<path opacity="0.54" d="M-104.877 622.628C-92.1126 605.5 -66.2112 603.382 -47.0052 612.317C-45.286 613.114 -43.6186 613.988 -42.003 614.937C-25.4699 624.599 -13.7987 640.66 -3.99159 657.259C-2.10953 660.447 -0.277528 663.679 1.51328 666.913C9.97701 682.115 18.1878 697.759 29.7248 710.924C33.4381 715.169 37.4552 719.082 41.7804 722.642C71.1973 746.802 112.634 752.276 151.111 751.745C153.91 751.71 156.701 751.645 159.487 751.562C200.724 750.395 241.635 748.519 277.931 756.891C294.162 760.635 311.371 764.704 323.32 777.933C337.61 793.718 340.761 817.473 339.63 838.475C338.864 852.776 336.544 866.734 335.767 880.727C335.409 887.301 335.395 893.885 336.031 900.531C340.082 942.809 371.681 981.329 410.734 1001.71C449.805 1022.12 495.082 1026.93 539.023 1024.27" stroke="url(#paint58_linear_565_6253)" stroke-width="0.8669" stroke-miterlimit="10"/>
<path opacity="0.54" d="M-109.405 626.334C-96.6601 609.212 -70.8762 606.929 -51.5726 615.651C-49.849 616.426 -48.1745 617.287 -46.5449 618.212C-29.9064 627.69 -18.042 643.584 -8.03842 660.068C-6.12038 663.235 -4.25499 666.438 -2.41593 669.659C6.20576 684.756 14.5797 700.314 26.1781 713.4C29.9152 717.618 33.9393 721.519 38.2689 725.057C67.7832 749.118 109.168 754.44 147.64 753.62C150.431 753.556 153.229 753.479 156.019 753.374C197.207 751.837 238.058 749.169 274.652 756.538C291.391 759.906 309.181 763.744 321.504 777.131C336.259 793.1 339.32 817.439 337.851 838.875C336.856 853.477 334.206 867.71 333.15 882.008C332.656 888.733 332.527 895.462 333.071 902.268C336.533 945.545 368.728 985.074 408.593 1005.77C448.485 1026.5 494.728 1031.09 539.528 1028.19" stroke="url(#paint59_linear_565_6253)" stroke-width="0.8669" stroke-miterlimit="10"/>
<path opacity="0.54" d="M-113.94 630.044C-101.226 612.92 -75.5476 610.479 -56.1464 618.988C-54.4158 619.751 -52.7273 620.587 -51.0906 621.5C-34.3538 630.806 -22.2989 646.524 -12.0917 662.88C-10.1281 666.025 -8.23635 669.21 -6.36393 672.401C2.42537 687.39 10.9432 702.868 22.6031 715.875C26.3542 720.068 30.3923 723.944 34.7387 727.468C64.3504 751.43 105.696 756.607 144.147 755.482C146.942 755.396 149.732 755.29 152.517 755.166C193.654 753.248 234.442 749.779 271.339 756.165C288.587 759.155 306.95 762.776 319.661 776.295C334.871 792.451 337.852 817.372 336.038 839.254C334.811 854.147 331.835 868.666 330.501 883.277C329.879 890.141 329.627 897.028 330.077 903.984C332.941 948.263 365.732 988.801 406.418 1009.82C447.122 1030.86 494.348 1035.21 540 1032.1" stroke="url(#paint60_linear_565_6253)" stroke-width="0.8669" stroke-miterlimit="10"/>
<path opacity="0.54" d="M-118.465 633.751C-105.77 616.632 -80.1967 614.033 -60.7173 622.335C-58.9823 623.076 -57.2771 623.897 -55.636 624.788C-38.7938 633.91 -26.5459 649.462 -16.1517 665.704C-14.1521 668.829 -12.2173 671.982 -10.309 675.152C-1.34942 690.044 7.3071 705.421 19.031 718.359C22.8058 722.525 26.851 726.389 31.214 729.898C60.9328 753.758 102.22 758.796 140.66 757.363C143.45 757.257 146.244 757.13 149.021 756.976C190.119 754.687 230.837 750.386 268.041 755.808C285.803 758.4 304.741 761.812 317.827 775.488C333.501 791.829 336.392 817.334 334.24 839.65C332.784 854.844 329.469 869.641 327.865 884.554C327.115 891.556 326.737 898.591 327.096 905.706C329.372 950.985 362.755 992.523 404.256 1013.86C445.781 1035.22 493.97 1039.35 540.484 1036.01" stroke="url(#paint61_linear_565_6253)" stroke-width="0.8669" stroke-miterlimit="10"/>
<path opacity="0.54" d="M-122.993 637.448C-110.33 620.327 -84.8613 617.571 -65.2844 625.659C-63.5326 626.385 -61.8327 627.187 -60.1776 628.053C-43.23 636.991 -30.7985 652.379 -20.1982 668.503C-18.1652 671.598 -16.1919 674.741 -14.2502 677.882C-5.12304 692.665 3.67743 707.962 15.4628 720.821C19.2517 724.963 23.3135 728.812 27.6906 732.296C57.5068 756.057 98.7542 760.95 137.174 759.212C139.968 759.085 142.754 758.928 145.526 758.755C186.576 756.095 227.215 750.935 264.735 755.421C282.998 757.608 302.514 760.821 315.993 774.65C332.135 791.185 334.934 817.264 332.443 840.014C330.746 855.501 327.115 870.582 325.232 885.808C324.348 892.961 323.854 900.142 324.121 907.416C325.808 953.694 359.778 996.244 402.1 1017.9C444.438 1039.58 493.599 1043.47 540.972 1039.9" stroke="url(#paint62_linear_565_6253)" stroke-width="0.8669" stroke-miterlimit="10"/>
<path opacity="0.54" d="M-127.521 641.155C-114.878 624.039 -89.5267 621.118 -69.8497 629.003C-68.0935 629.707 -66.3795 630.484 -64.7147 631.348C-47.6591 640.111 -35.0372 655.323 -24.25 671.335C-22.181 674.41 -20.1647 677.52 -18.1966 680.643C-8.91149 695.321 0.0521215 710.533 11.8893 723.315C15.7019 727.429 19.7682 731.257 24.1619 734.726C54.073 758.379 95.274 763.139 133.682 761.093C136.471 760.946 139.262 760.768 142.036 760.564C183.036 757.533 223.588 751.516 261.443 755.061C280.212 756.82 300.311 759.855 314.162 773.831C330.759 790.553 333.477 817.214 330.651 840.407C328.725 856.195 324.764 871.551 322.602 887.082C321.589 894.373 320.979 901.7 321.146 909.136C322.235 956.416 356.81 999.972 399.944 1021.95C443.1 1043.93 493.228 1047.6 541.461 1043.8" stroke="url(#paint63_linear_565_6253)" stroke-width="0.8669" stroke-miterlimit="10"/>
<path opacity="0.54" d="M-132.055 644.865C-119.443 627.747 -94.1946 624.677 -74.4323 632.342C-72.6718 633.024 -70.9411 633.787 -69.2719 634.629C-52.1205 643.211 -39.3055 658.256 -28.3147 674.14C-26.2097 677.194 -24.1575 680.284 -22.1438 683.385C-12.691 697.955 -3.5861 713.077 8.3152 725.79C12.1418 729.88 16.2247 733.692 20.6351 737.146C50.6533 760.698 91.7957 765.318 130.193 762.965C132.986 762.796 135.769 762.589 138.538 762.365C179.489 758.964 219.945 752.062 258.136 754.707C277.401 756.041 298.096 758.903 312.328 773.024C329.39 789.931 332.018 817.176 328.845 840.805C326.686 856.884 322.399 872.527 319.957 888.362C318.809 895.803 318.083 903.275 318.158 910.871C318.659 959.15 353.819 1003.72 397.775 1026.01C441.743 1048.31 492.844 1051.75 541.939 1047.73" stroke="url(#paint64_linear_565_6253)" stroke-width="0.8669" stroke-miterlimit="10"/>
<path opacity="0.54" d="M-136.581 648.571C-123.988 631.459 -98.8571 628.224 -78.9946 635.686C-77.2174 636.353 -75.492 637.097 -73.7964 637.921C-56.537 646.328 -43.5316 661.197 -32.3442 676.965C-30.1962 679.988 -28.1176 683.06 -26.068 686.14C-16.4476 700.603 -7.19878 715.644 4.76661 728.288C8.60727 732.353 12.7139 736.139 17.1217 739.583C47.2373 763.035 88.3403 767.511 126.719 764.862C129.507 764.674 132.285 764.447 135.055 764.192C175.958 760.421 216.306 752.626 254.852 754.366C274.617 755.253 295.891 757.958 310.507 772.234C328.034 789.325 330.572 817.154 327.061 841.218C324.673 857.597 320.05 873.528 317.337 889.664C316.061 897.244 315.212 904.874 315.193 912.62C315.096 961.901 350.862 1007.48 395.642 1030.09C440.421 1052.71 492.495 1055.91 542.451 1051.67" stroke="url(#paint65_linear_565_6253)" stroke-width="0.8669" stroke-miterlimit="10"/>
<path opacity="0.54" d="M-141.112 652.269C-128.551 635.155 -103.512 631.769 -83.5646 639.011C-81.783 639.656 -80.0408 640.385 -78.3409 641.187C-60.9761 649.41 -47.7872 664.116 -36.4033 679.768C-34.2193 682.77 -32.0951 685.82 -30.0217 688.873C-20.2338 703.228 -10.8314 718.186 1.18584 730.754C5.0502 734.791 9.16387 738.564 13.5857 741.984C43.7987 765.337 84.8528 769.671 123.22 766.714C126.011 766.495 128.783 766.249 131.558 765.971C172.412 761.831 212.639 753.135 251.543 753.981C271.799 754.423 293.671 756.965 308.669 771.387C326.65 788.665 329.108 817.075 325.259 841.572C322.639 858.243 317.689 874.459 314.697 890.9C313.292 898.618 312.318 906.396 312.208 914.302C311.522 964.582 347.883 1011.17 393.475 1034.1C439.076 1057.03 492.113 1060.01 542.931 1055.54" stroke="url(#paint66_linear_565_6253)" stroke-width="0.8669" stroke-miterlimit="10"/>
<path opacity="0.54" d="M-145.639 655.976C-133.097 638.867 -108.176 635.317 -88.1304 642.345C-86.3417 642.978 -84.5856 643.682 -82.8813 644.462C-65.4181 652.514 -52.0387 667.043 -40.4486 682.577C-38.2287 685.559 -36.071 688.579 -33.952 691.609C-23.9965 705.857 -14.4528 720.724 -2.37152 733.223C1.5069 737.236 5.63727 740.994 10.0758 744.399C40.3863 767.653 81.3983 771.833 119.748 768.58C122.533 768.341 125.31 768.074 128.076 767.767C168.882 763.256 208.974 753.644 248.26 753.609C269.001 753.588 291.47 755.999 306.849 770.565C325.295 788.028 327.673 817.02 323.468 841.966C320.611 858.94 315.341 875.429 312.071 892.183C310.531 900.053 309.441 907.976 309.24 916.041C307.965 967.321 344.912 1014.92 391.326 1038.17C437.739 1061.42 491.749 1064.16 543.428 1059.47" stroke="url(#paint67_linear_565_6253)" stroke-width="0.8669" stroke-miterlimit="10"/>
<path opacity="0.54" d="M-150.172 659.685C-137.662 642.575 -112.846 638.866 -92.71 645.694C-90.9169 646.305 -89.1537 646.997 -87.4327 647.762C-69.864 655.63 -56.2916 669.993 -44.5146 685.413C-42.2587 688.375 -40.0554 691.372 -37.9127 694.376C-27.7966 708.528 -18.102 723.302 -5.95924 735.722C-2.05712 739.708 2.07765 743.444 6.53283 746.835C36.9478 769.977 77.9038 774.027 116.242 770.466C119.031 770.206 121.801 769.909 124.562 769.583C165.318 764.702 205.264 754.166 244.935 753.259C266.161 752.775 289.233 755.043 304.996 769.763C323.907 787.411 326.195 816.987 321.652 842.367C318.565 859.641 312.967 876.407 309.417 893.465C307.749 901.473 306.536 909.554 306.24 917.769C304.368 970.051 341.92 1018.65 389.145 1042.22C436.38 1065.79 491.353 1068.3 543.891 1063.37" stroke="url(#paint68_linear_565_6253)" stroke-width="0.8669" stroke-miterlimit="10"/>
<path opacity="0.54" d="M-154.702 663.383C-142.211 646.278 -117.51 642.413 -97.2795 649.018C-95.4724 649.605 -93.7022 650.284 -91.9768 651.028C-74.3028 658.711 -60.5469 672.91 -48.5662 688.203C-46.2674 691.133 -44.0378 694.112 -41.8468 697.102C-31.5631 711.147 -21.7149 725.838 -9.52037 738.182C-5.6042 742.143 -1.45275 745.865 3.01648 749.23C33.5289 772.274 74.4456 776.179 112.763 772.313C115.547 772.033 118.321 771.714 121.074 771.36C161.782 766.109 201.567 754.642 241.645 752.868C263.342 751.903 287.023 754.047 303.168 768.913C322.533 786.748 324.741 816.905 319.86 842.718C316.541 860.284 310.616 877.335 306.777 894.7C304.983 902.856 303.642 911.076 303.255 919.45C300.794 972.731 338.932 1022.34 386.979 1046.23C435.026 1070.11 490.971 1072.39 544.371 1067.24" stroke="url(#paint69_linear_565_6253)" stroke-width="0.8669" stroke-miterlimit="10"/>
<path opacity="0.54" d="M-159.23 667.09C-146.768 649.993 -122.174 645.961 -101.844 652.362C-100.029 652.937 -98.2477 653.582 -96.5127 654.323C-78.7306 661.832 -64.7842 675.855 -52.6167 691.035C-50.2818 693.944 -48.0163 696.903 -45.792 699.864C-35.3406 713.8 -25.3511 728.401 -13.0925 740.676C-9.15965 744.622 -4.99679 748.31 -0.517905 751.673C30.0919 774.617 70.9596 778.38 109.269 774.216C112.057 773.914 114.823 773.566 117.581 773.19C158.249 767.566 197.856 755.174 238.34 752.533C260.507 751.088 284.807 753.105 301.336 768.126C321.166 786.145 323.283 816.886 318.065 843.134C314.517 861 308.253 878.329 304.146 896.006C302.214 904.303 300.76 912.677 300.282 921.212C297.232 975.492 335.966 1026.11 384.825 1050.32C433.693 1074.52 490.604 1076.57 544.863 1071.19" stroke="url(#paint70_linear_565_6253)" stroke-width="0.8669" stroke-miterlimit="10"/>
<path opacity="0.54" d="M-163.754 670.797C-150.205 652.171 -122.368 648.864 -101.05 657.598C-79.7426 666.335 -63.7526 684.331 -49.7292 702.603C-35.7058 720.874 -22.507 740.344 -4.03477 754.09C28.9041 778.588 73.482 780.98 114.09 774.979C154.71 768.985 194.132 755.648 235.038 752.156C257.673 750.221 282.587 752.134 299.497 767.299C319.792 785.503 321.819 816.828 316.256 843.522C310.693 870.216 299.087 895.723 297.289 922.927C293.641 978.209 332.971 1029.84 382.651 1054.36C432.331 1078.88 490.215 1080.7 545.335 1075.09" stroke="url(#paint71_linear_565_6253)" stroke-width="0.8669" stroke-miterlimit="10"/>
<defs>
<linearGradient id="paint0_linear_565_6253" x1="446.693" y1="-212.322" x2="-89.1383" y2="263.105" gradientUnits="userSpaceOnUse">
<stop stop-color="#7ED4EF"/>
<stop offset="0.2294" stop-color="#66BFE6"/>
<stop offset="0.711" stop-color="#298BD0"/>
<stop offset="1" stop-color="#0169C2"/>
</linearGradient>
<linearGradient id="paint1_linear_565_6253" x1="450.462" y1="-211.915" x2="-88.5918" y2="266.372" gradientUnits="userSpaceOnUse">
<stop stop-color="#7ED4EF"/>
<stop offset="0.2294" stop-color="#66BFE6"/>
<stop offset="0.711" stop-color="#298BD0"/>
<stop offset="1" stop-color="#0169C2"/>
</linearGradient>
<linearGradient id="paint2_linear_565_6253" x1="454.18" y1="-211.565" x2="-88.0969" y2="269.581" gradientUnits="userSpaceOnUse">
<stop stop-color="#7ED4EF"/>
<stop offset="0.2294" stop-color="#66BFE6"/>
<stop offset="0.711" stop-color="#298BD0"/>
<stop offset="1" stop-color="#0169C2"/>
</linearGradient>
<linearGradient id="paint3_linear_565_6253" x1="457.862" y1="-211.255" x2="-87.6378" y2="272.751" gradientUnits="userSpaceOnUse">
<stop stop-color="#7ED4EF"/>
<stop offset="0.2294" stop-color="#66BFE6"/>
<stop offset="0.711" stop-color="#298BD0"/>
<stop offset="1" stop-color="#0169C2"/>
</linearGradient>
<linearGradient id="paint4_linear_565_6253" x1="461.519" y1="-210.974" x2="-87.2039" y2="275.891" gradientUnits="userSpaceOnUse">
<stop stop-color="#7ED4EF"/>
<stop offset="0.2294" stop-color="#66BFE6"/>
<stop offset="0.711" stop-color="#298BD0"/>
<stop offset="1" stop-color="#0169C2"/>
</linearGradient>
<linearGradient id="paint5_linear_565_6253" x1="465.156" y1="-210.715" x2="-86.7891" y2="279.01" gradientUnits="userSpaceOnUse">
<stop stop-color="#7ED4EF"/>
<stop offset="0.2294" stop-color="#66BFE6"/>
<stop offset="0.711" stop-color="#298BD0"/>
<stop offset="1" stop-color="#0169C2"/>
</linearGradient>
<linearGradient id="paint6_linear_565_6253" x1="468.774" y1="-210.472" x2="-86.3933" y2="282.112" gradientUnits="userSpaceOnUse">
<stop stop-color="#7ED4EF"/>
<stop offset="0.2294" stop-color="#66BFE6"/>
<stop offset="0.711" stop-color="#298BD0"/>
<stop offset="1" stop-color="#0169C2"/>
</linearGradient>
<linearGradient id="paint7_linear_565_6253" x1="472.386" y1="-210.242" x2="-86.0044" y2="285.202" gradientUnits="userSpaceOnUse">
<stop stop-color="#7ED4EF"/>
<stop offset="0.2294" stop-color="#66BFE6"/>
<stop offset="0.711" stop-color="#298BD0"/>
<stop offset="1" stop-color="#0169C2"/>
</linearGradient>
<linearGradient id="paint8_linear_565_6253" x1="475.987" y1="-210.022" x2="-85.6255" y2="288.28" gradientUnits="userSpaceOnUse">
<stop stop-color="#7ED4EF"/>
<stop offset="0.2294" stop-color="#66BFE6"/>
<stop offset="0.711" stop-color="#298BD0"/>
<stop offset="1" stop-color="#0169C2"/>
</linearGradient>
<linearGradient id="paint9_linear_565_6253" x1="479.583" y1="-209.811" x2="-85.2522" y2="291.351" gradientUnits="userSpaceOnUse">
<stop stop-color="#7ED4EF"/>
<stop offset="0.2294" stop-color="#66BFE6"/>
<stop offset="0.711" stop-color="#298BD0"/>
<stop offset="1" stop-color="#0169C2"/>
</linearGradient>
<linearGradient id="paint10_linear_565_6253" x1="483.169" y1="-209.607" x2="-84.8884" y2="294.414" gradientUnits="userSpaceOnUse">
<stop stop-color="#7ED4EF"/>
<stop offset="0.2294" stop-color="#66BFE6"/>
<stop offset="0.711" stop-color="#298BD0"/>
<stop offset="1" stop-color="#0169C2"/>
</linearGradient>
<linearGradient id="paint11_linear_565_6253" x1="486.752" y1="-209.409" x2="-84.5274" y2="297.471" gradientUnits="userSpaceOnUse">
<stop stop-color="#7ED4EF"/>
<stop offset="0.2294" stop-color="#66BFE6"/>
<stop offset="0.711" stop-color="#298BD0"/>
<stop offset="1" stop-color="#0169C2"/>
</linearGradient>
<linearGradient id="paint12_linear_565_6253" x1="490.329" y1="-209.215" x2="-84.1726" y2="300.524" gradientUnits="userSpaceOnUse">
<stop stop-color="#7ED4EF"/>
<stop offset="0.2294" stop-color="#66BFE6"/>
<stop offset="0.711" stop-color="#298BD0"/>
<stop offset="1" stop-color="#0169C2"/>
</linearGradient>
<linearGradient id="paint13_linear_565_6253" x1="493.904" y1="-209.025" x2="-83.8201" y2="303.572" gradientUnits="userSpaceOnUse">
<stop stop-color="#7ED4EF"/>
<stop offset="0.2294" stop-color="#66BFE6"/>
<stop offset="0.711" stop-color="#298BD0"/>
<stop offset="1" stop-color="#0169C2"/>
</linearGradient>
<linearGradient id="paint14_linear_565_6253" x1="497.472" y1="-208.84" x2="-83.4746" y2="306.617" gradientUnits="userSpaceOnUse">
<stop stop-color="#7ED4EF"/>
<stop offset="0.2294" stop-color="#66BFE6"/>
<stop offset="0.711" stop-color="#298BD0"/>
<stop offset="1" stop-color="#0169C2"/>
</linearGradient>
<linearGradient id="paint15_linear_565_6253" x1="501.043" y1="-208.657" x2="-83.1256" y2="309.658" gradientUnits="userSpaceOnUse">
<stop stop-color="#7ED4EF"/>
<stop offset="0.2294" stop-color="#66BFE6"/>
<stop offset="0.711" stop-color="#298BD0"/>
<stop offset="1" stop-color="#0169C2"/>
</linearGradient>
<linearGradient id="paint16_linear_565_6253" x1="504.608" y1="-208.477" x2="-82.7832" y2="312.698" gradientUnits="userSpaceOnUse">
<stop stop-color="#7ED4EF"/>
<stop offset="0.2294" stop-color="#66BFE6"/>
<stop offset="0.711" stop-color="#298BD0"/>
<stop offset="1" stop-color="#0169C2"/>
</linearGradient>
<linearGradient id="paint17_linear_565_6253" x1="508.17" y1="-208.299" x2="-82.4429" y2="315.734" gradientUnits="userSpaceOnUse">
<stop stop-color="#7ED4EF"/>
<stop offset="0.2294" stop-color="#66BFE6"/>
<stop offset="0.711" stop-color="#298BD0"/>
<stop offset="1" stop-color="#0169C2"/>
</linearGradient>
<linearGradient id="paint18_linear_565_6253" x1="511.732" y1="-208.124" x2="-82.1028" y2="318.769" gradientUnits="userSpaceOnUse">
<stop stop-color="#7ED4EF"/>
<stop offset="0.2294" stop-color="#66BFE6"/>
<stop offset="0.711" stop-color="#298BD0"/>
<stop offset="1" stop-color="#0169C2"/>
</linearGradient>
<linearGradient id="paint19_linear_565_6253" x1="515.292" y1="-207.95" x2="-81.7654" y2="321.801" gradientUnits="userSpaceOnUse">
<stop stop-color="#7ED4EF"/>
<stop offset="0.2294" stop-color="#66BFE6"/>
<stop offset="0.711" stop-color="#298BD0"/>
<stop offset="1" stop-color="#0169C2"/>
</linearGradient>
<linearGradient id="paint20_linear_565_6253" x1="518.851" y1="-207.778" x2="-81.4284" y2="324.832" gradientUnits="userSpaceOnUse">
<stop stop-color="#7ED4EF"/>
<stop offset="0.2294" stop-color="#66BFE6"/>
<stop offset="0.711" stop-color="#298BD0"/>
<stop offset="1" stop-color="#0169C2"/>
</linearGradient>
<linearGradient id="paint21_linear_565_6253" x1="522.406" y1="-207.607" x2="-81.095" y2="327.862" gradientUnits="userSpaceOnUse">
<stop stop-color="#7ED4EF"/>
<stop offset="0.2294" stop-color="#66BFE6"/>
<stop offset="0.711" stop-color="#298BD0"/>
<stop offset="1" stop-color="#0169C2"/>
</linearGradient>
<linearGradient id="paint22_linear_565_6253" x1="525.962" y1="-207.437" x2="-80.7605" y2="330.89" gradientUnits="userSpaceOnUse">
<stop stop-color="#7ED4EF"/>
<stop offset="0.2294" stop-color="#66BFE6"/>
<stop offset="0.711" stop-color="#298BD0"/>
<stop offset="1" stop-color="#0169C2"/>
</linearGradient>
<linearGradient id="paint23_linear_565_6253" x1="529.516" y1="-207.269" x2="-80.4285" y2="333.917" gradientUnits="userSpaceOnUse">
<stop stop-color="#7ED4EF"/>
<stop offset="0.2294" stop-color="#66BFE6"/>
<stop offset="0.711" stop-color="#298BD0"/>
<stop offset="1" stop-color="#0169C2"/>
</linearGradient>
<linearGradient id="paint24_linear_565_6253" x1="474.693" y1="120.678" x2="-61.1383" y2="596.105" gradientUnits="userSpaceOnUse">
<stop stop-color="#7ED4EF"/>
<stop offset="0.2294" stop-color="#66BFE6"/>
<stop offset="0.711" stop-color="#298BD0"/>
<stop offset="1" stop-color="#0169C2"/>
</linearGradient>
<linearGradient id="paint25_linear_565_6253" x1="478.462" y1="121.085" x2="-60.5918" y2="599.372" gradientUnits="userSpaceOnUse">
<stop stop-color="#7ED4EF"/>
<stop offset="0.2294" stop-color="#66BFE6"/>
<stop offset="0.711" stop-color="#298BD0"/>
<stop offset="1" stop-color="#0169C2"/>
</linearGradient>
<linearGradient id="paint26_linear_565_6253" x1="482.18" y1="121.435" x2="-60.0969" y2="602.581" gradientUnits="userSpaceOnUse">
<stop stop-color="#7ED4EF"/>
<stop offset="0.2294" stop-color="#66BFE6"/>
<stop offset="0.711" stop-color="#298BD0"/>
<stop offset="1" stop-color="#0169C2"/>
</linearGradient>
<linearGradient id="paint27_linear_565_6253" x1="485.862" y1="121.745" x2="-59.6378" y2="605.751" gradientUnits="userSpaceOnUse">
<stop stop-color="#7ED4EF"/>
<stop offset="0.2294" stop-color="#66BFE6"/>
<stop offset="0.711" stop-color="#298BD0"/>
<stop offset="1" stop-color="#0169C2"/>
</linearGradient>
<linearGradient id="paint28_linear_565_6253" x1="489.519" y1="122.026" x2="-59.2039" y2="608.891" gradientUnits="userSpaceOnUse">
<stop stop-color="#7ED4EF"/>
<stop offset="0.2294" stop-color="#66BFE6"/>
<stop offset="0.711" stop-color="#298BD0"/>
<stop offset="1" stop-color="#0169C2"/>
</linearGradient>
<linearGradient id="paint29_linear_565_6253" x1="493.156" y1="122.285" x2="-58.7891" y2="612.01" gradientUnits="userSpaceOnUse">
<stop stop-color="#7ED4EF"/>
<stop offset="0.2294" stop-color="#66BFE6"/>
<stop offset="0.711" stop-color="#298BD0"/>
<stop offset="1" stop-color="#0169C2"/>
</linearGradient>
<linearGradient id="paint30_linear_565_6253" x1="496.774" y1="122.528" x2="-58.3933" y2="615.112" gradientUnits="userSpaceOnUse">
<stop stop-color="#7ED4EF"/>
<stop offset="0.2294" stop-color="#66BFE6"/>
<stop offset="0.711" stop-color="#298BD0"/>
<stop offset="1" stop-color="#0169C2"/>
</linearGradient>
<linearGradient id="paint31_linear_565_6253" x1="500.386" y1="122.758" x2="-58.0044" y2="618.202" gradientUnits="userSpaceOnUse">
<stop stop-color="#7ED4EF"/>
<stop offset="0.2294" stop-color="#66BFE6"/>
<stop offset="0.711" stop-color="#298BD0"/>
<stop offset="1" stop-color="#0169C2"/>
</linearGradient>
<linearGradient id="paint32_linear_565_6253" x1="503.987" y1="122.978" x2="-57.6255" y2="621.28" gradientUnits="userSpaceOnUse">
<stop stop-color="#7ED4EF"/>
<stop offset="0.2294" stop-color="#66BFE6"/>
<stop offset="0.711" stop-color="#298BD0"/>
<stop offset="1" stop-color="#0169C2"/>
</linearGradient>
<linearGradient id="paint33_linear_565_6253" x1="507.583" y1="123.189" x2="-57.2522" y2="624.351" gradientUnits="userSpaceOnUse">
<stop stop-color="#7ED4EF"/>
<stop offset="0.2294" stop-color="#66BFE6"/>
<stop offset="0.711" stop-color="#298BD0"/>
<stop offset="1" stop-color="#0169C2"/>
</linearGradient>
<linearGradient id="paint34_linear_565_6253" x1="511.169" y1="123.393" x2="-56.8884" y2="627.414" gradientUnits="userSpaceOnUse">
<stop stop-color="#7ED4EF"/>
<stop offset="0.2294" stop-color="#66BFE6"/>
<stop offset="0.711" stop-color="#298BD0"/>
<stop offset="1" stop-color="#0169C2"/>
</linearGradient>
<linearGradient id="paint35_linear_565_6253" x1="514.752" y1="123.591" x2="-56.5274" y2="630.471" gradientUnits="userSpaceOnUse">
<stop stop-color="#7ED4EF"/>
<stop offset="0.2294" stop-color="#66BFE6"/>
<stop offset="0.711" stop-color="#298BD0"/>
<stop offset="1" stop-color="#0169C2"/>
</linearGradient>
<linearGradient id="paint36_linear_565_6253" x1="518.329" y1="123.785" x2="-56.1726" y2="633.524" gradientUnits="userSpaceOnUse">
<stop stop-color="#7ED4EF"/>
<stop offset="0.2294" stop-color="#66BFE6"/>
<stop offset="0.711" stop-color="#298BD0"/>
<stop offset="1" stop-color="#0169C2"/>
</linearGradient>
<linearGradient id="paint37_linear_565_6253" x1="521.904" y1="123.975" x2="-55.8201" y2="636.572" gradientUnits="userSpaceOnUse">
<stop stop-color="#7ED4EF"/>
<stop offset="0.2294" stop-color="#66BFE6"/>
<stop offset="0.711" stop-color="#298BD0"/>
<stop offset="1" stop-color="#0169C2"/>
</linearGradient>
<linearGradient id="paint38_linear_565_6253" x1="525.472" y1="124.16" x2="-55.4746" y2="639.617" gradientUnits="userSpaceOnUse">
<stop stop-color="#7ED4EF"/>
<stop offset="0.2294" stop-color="#66BFE6"/>
<stop offset="0.711" stop-color="#298BD0"/>
<stop offset="1" stop-color="#0169C2"/>
</linearGradient>
<linearGradient id="paint39_linear_565_6253" x1="529.043" y1="124.343" x2="-55.1256" y2="642.658" gradientUnits="userSpaceOnUse">
<stop stop-color="#7ED4EF"/>
<stop offset="0.2294" stop-color="#66BFE6"/>
<stop offset="0.711" stop-color="#298BD0"/>
<stop offset="1" stop-color="#0169C2"/>
</linearGradient>
<linearGradient id="paint40_linear_565_6253" x1="532.608" y1="124.523" x2="-54.7832" y2="645.698" gradientUnits="userSpaceOnUse">
<stop stop-color="#7ED4EF"/>
<stop offset="0.2294" stop-color="#66BFE6"/>
<stop offset="0.711" stop-color="#298BD0"/>
<stop offset="1" stop-color="#0169C2"/>
</linearGradient>
<linearGradient id="paint41_linear_565_6253" x1="536.17" y1="124.701" x2="-54.4429" y2="648.734" gradientUnits="userSpaceOnUse">
<stop stop-color="#7ED4EF"/>
<stop offset="0.2294" stop-color="#66BFE6"/>
<stop offset="0.711" stop-color="#298BD0"/>
<stop offset="1" stop-color="#0169C2"/>
</linearGradient>
<linearGradient id="paint42_linear_565_6253" x1="539.732" y1="124.876" x2="-54.1028" y2="651.769" gradientUnits="userSpaceOnUse">
<stop stop-color="#7ED4EF"/>
<stop offset="0.2294" stop-color="#66BFE6"/>
<stop offset="0.711" stop-color="#298BD0"/>
<stop offset="1" stop-color="#0169C2"/>
</linearGradient>
<linearGradient id="paint43_linear_565_6253" x1="543.292" y1="125.05" x2="-53.7654" y2="654.801" gradientUnits="userSpaceOnUse">
<stop stop-color="#7ED4EF"/>
<stop offset="0.2294" stop-color="#66BFE6"/>
<stop offset="0.711" stop-color="#298BD0"/>
<stop offset="1" stop-color="#0169C2"/>
</linearGradient>
<linearGradient id="paint44_linear_565_6253" x1="546.851" y1="125.222" x2="-53.4284" y2="657.832" gradientUnits="userSpaceOnUse">
<stop stop-color="#7ED4EF"/>
<stop offset="0.2294" stop-color="#66BFE6"/>
<stop offset="0.711" stop-color="#298BD0"/>
<stop offset="1" stop-color="#0169C2"/>
</linearGradient>
<linearGradient id="paint45_linear_565_6253" x1="550.406" y1="125.393" x2="-53.095" y2="660.862" gradientUnits="userSpaceOnUse">
<stop stop-color="#7ED4EF"/>
<stop offset="0.2294" stop-color="#66BFE6"/>
<stop offset="0.711" stop-color="#298BD0"/>
<stop offset="1" stop-color="#0169C2"/>
</linearGradient>
<linearGradient id="paint46_linear_565_6253" x1="553.962" y1="125.563" x2="-52.7605" y2="663.89" gradientUnits="userSpaceOnUse">
<stop stop-color="#7ED4EF"/>
<stop offset="0.2294" stop-color="#66BFE6"/>
<stop offset="0.711" stop-color="#298BD0"/>
<stop offset="1" stop-color="#0169C2"/>
</linearGradient>
<linearGradient id="paint47_linear_565_6253" x1="557.516" y1="125.731" x2="-52.4285" y2="666.917" gradientUnits="userSpaceOnUse">
<stop stop-color="#7ED4EF"/>
<stop offset="0.2294" stop-color="#66BFE6"/>
<stop offset="0.711" stop-color="#298BD0"/>
<stop offset="1" stop-color="#0169C2"/>
</linearGradient>
<linearGradient id="paint48_linear_565_6253" x1="542.555" y1="972.863" x2="-56.77" y2="580.492" gradientUnits="userSpaceOnUse">
<stop stop-color="#7ED4EF"/>
<stop offset="0.2294" stop-color="#66BFE6"/>
<stop offset="0.711" stop-color="#298BD0"/>
<stop offset="1" stop-color="#0169C2"/>
</linearGradient>
<linearGradient id="paint49_linear_565_6253" x1="543.149" y1="976.607" x2="-59.7807" y2="581.875" gradientUnits="userSpaceOnUse">
<stop stop-color="#7ED4EF"/>
<stop offset="0.2294" stop-color="#66BFE6"/>
<stop offset="0.711" stop-color="#298BD0"/>
<stop offset="1" stop-color="#0169C2"/>
</linearGradient>
<linearGradient id="paint50_linear_565_6253" x1="543.789" y1="980.285" x2="-62.7456" y2="583.194" gradientUnits="userSpaceOnUse">
<stop stop-color="#7ED4EF"/>
<stop offset="0.2294" stop-color="#66BFE6"/>
<stop offset="0.711" stop-color="#298BD0"/>
<stop offset="1" stop-color="#0169C2"/>
</linearGradient>
<linearGradient id="paint51_linear_565_6253" x1="544.454" y1="983.92" x2="-65.6851" y2="584.468" gradientUnits="userSpaceOnUse">
<stop stop-color="#7ED4EF"/>
<stop offset="0.2294" stop-color="#66BFE6"/>
<stop offset="0.711" stop-color="#298BD0"/>
<stop offset="1" stop-color="#0169C2"/>
</linearGradient>
<linearGradient id="paint52_linear_565_6253" x1="545.142" y1="987.521" x2="-68.6016" y2="585.71" gradientUnits="userSpaceOnUse">
<stop stop-color="#7ED4EF"/>
<stop offset="0.2294" stop-color="#66BFE6"/>
<stop offset="0.711" stop-color="#298BD0"/>
<stop offset="1" stop-color="#0169C2"/>
</linearGradient>
<linearGradient id="paint53_linear_565_6253" x1="545.848" y1="991.099" x2="-71.5006" y2="586.928" gradientUnits="userSpaceOnUse">
<stop stop-color="#7ED4EF"/>
<stop offset="0.2294" stop-color="#66BFE6"/>
<stop offset="0.711" stop-color="#298BD0"/>
<stop offset="1" stop-color="#0169C2"/>
</linearGradient>
<linearGradient id="paint54_linear_565_6253" x1="546.562" y1="994.658" x2="-74.391" y2="588.127" gradientUnits="userSpaceOnUse">
<stop stop-color="#7ED4EF"/>
<stop offset="0.2294" stop-color="#66BFE6"/>
<stop offset="0.711" stop-color="#298BD0"/>
<stop offset="1" stop-color="#0169C2"/>
</linearGradient>
<linearGradient id="paint55_linear_565_6253" x1="547.288" y1="998.203" x2="-77.2695" y2="589.312" gradientUnits="userSpaceOnUse">
<stop stop-color="#7ED4EF"/>
<stop offset="0.2294" stop-color="#66BFE6"/>
<stop offset="0.711" stop-color="#298BD0"/>
<stop offset="1" stop-color="#0169C2"/>
</linearGradient>
<linearGradient id="paint56_linear_565_6253" x1="548.021" y1="1001.74" x2="-80.141" y2="590.485" gradientUnits="userSpaceOnUse">
<stop stop-color="#7ED4EF"/>
<stop offset="0.2294" stop-color="#66BFE6"/>
<stop offset="0.711" stop-color="#298BD0"/>
<stop offset="1" stop-color="#0169C2"/>
</linearGradient>
<linearGradient id="paint57_linear_565_6253" x1="548.76" y1="1005.26" x2="-83.0057" y2="591.649" gradientUnits="userSpaceOnUse">
<stop stop-color="#7ED4EF"/>
<stop offset="0.2294" stop-color="#66BFE6"/>
<stop offset="0.711" stop-color="#298BD0"/>
<stop offset="1" stop-color="#0169C2"/>
</linearGradient>
<linearGradient id="paint58_linear_565_6253" x1="549.502" y1="1008.77" x2="-85.8677" y2="592.805" gradientUnits="userSpaceOnUse">
<stop stop-color="#7ED4EF"/>
<stop offset="0.2294" stop-color="#66BFE6"/>
<stop offset="0.711" stop-color="#298BD0"/>
<stop offset="1" stop-color="#0169C2"/>
</linearGradient>
<linearGradient id="paint59_linear_565_6253" x1="550.249" y1="1012.28" x2="-88.7257" y2="593.953" gradientUnits="userSpaceOnUse">
<stop stop-color="#7ED4EF"/>
<stop offset="0.2294" stop-color="#66BFE6"/>
<stop offset="0.711" stop-color="#298BD0"/>
<stop offset="1" stop-color="#0169C2"/>
</linearGradient>
<linearGradient id="paint60_linear_565_6253" x1="551.001" y1="1015.79" x2="-91.5769" y2="595.097" gradientUnits="userSpaceOnUse">
<stop stop-color="#7ED4EF"/>
<stop offset="0.2294" stop-color="#66BFE6"/>
<stop offset="0.711" stop-color="#298BD0"/>
<stop offset="1" stop-color="#0169C2"/>
</linearGradient>
<linearGradient id="paint61_linear_565_6253" x1="551.758" y1="1019.28" x2="-94.4249" y2="596.236" gradientUnits="userSpaceOnUse">
<stop stop-color="#7ED4EF"/>
<stop offset="0.2294" stop-color="#66BFE6"/>
<stop offset="0.711" stop-color="#298BD0"/>
<stop offset="1" stop-color="#0169C2"/>
</linearGradient>
<linearGradient id="paint62_linear_565_6253" x1="552.516" y1="1022.78" x2="-97.2706" y2="597.371" gradientUnits="userSpaceOnUse">
<stop stop-color="#7ED4EF"/>
<stop offset="0.2294" stop-color="#66BFE6"/>
<stop offset="0.711" stop-color="#298BD0"/>
<stop offset="1" stop-color="#0169C2"/>
</linearGradient>
<linearGradient id="paint63_linear_565_6253" x1="553.273" y1="1026.27" x2="-100.118" y2="598.502" gradientUnits="userSpaceOnUse">
<stop stop-color="#7ED4EF"/>
<stop offset="0.2294" stop-color="#66BFE6"/>
<stop offset="0.711" stop-color="#298BD0"/>
<stop offset="1" stop-color="#0169C2"/>
</linearGradient>
<linearGradient id="paint64_linear_565_6253" x1="554.036" y1="1029.76" x2="-102.958" y2="599.631" gradientUnits="userSpaceOnUse">
<stop stop-color="#7ED4EF"/>
<stop offset="0.2294" stop-color="#66BFE6"/>
<stop offset="0.711" stop-color="#298BD0"/>
<stop offset="1" stop-color="#0169C2"/>
</linearGradient>
<linearGradient id="paint65_linear_565_6253" x1="554.8" y1="1033.24" x2="-105.799" y2="600.757" gradientUnits="userSpaceOnUse">
<stop stop-color="#7ED4EF"/>
<stop offset="0.2294" stop-color="#66BFE6"/>
<stop offset="0.711" stop-color="#298BD0"/>
<stop offset="1" stop-color="#0169C2"/>
</linearGradient>
<linearGradient id="paint66_linear_565_6253" x1="555.562" y1="1036.73" x2="-108.64" y2="601.881" gradientUnits="userSpaceOnUse">
<stop stop-color="#7ED4EF"/>
<stop offset="0.2294" stop-color="#66BFE6"/>
<stop offset="0.711" stop-color="#298BD0"/>
<stop offset="1" stop-color="#0169C2"/>
</linearGradient>
<linearGradient id="paint67_linear_565_6253" x1="556.328" y1="1040.21" x2="-111.478" y2="603.002" gradientUnits="userSpaceOnUse">
<stop stop-color="#7ED4EF"/>
<stop offset="0.2294" stop-color="#66BFE6"/>
<stop offset="0.711" stop-color="#298BD0"/>
<stop offset="1" stop-color="#0169C2"/>
</linearGradient>
<linearGradient id="paint68_linear_565_6253" x1="557.097" y1="1043.69" x2="-114.312" y2="604.122" gradientUnits="userSpaceOnUse">
<stop stop-color="#7ED4EF"/>
<stop offset="0.2294" stop-color="#66BFE6"/>
<stop offset="0.711" stop-color="#298BD0"/>
<stop offset="1" stop-color="#0169C2"/>
</linearGradient>
<linearGradient id="paint69_linear_565_6253" x1="557.864" y1="1047.16" x2="-117.15" y2="605.24" gradientUnits="userSpaceOnUse">
<stop stop-color="#7ED4EF"/>
<stop offset="0.2294" stop-color="#66BFE6"/>
<stop offset="0.711" stop-color="#298BD0"/>
<stop offset="1" stop-color="#0169C2"/>
</linearGradient>
<linearGradient id="paint70_linear_565_6253" x1="558.632" y1="1050.64" x2="-119.986" y2="606.356" gradientUnits="userSpaceOnUse">
<stop stop-color="#7ED4EF"/>
<stop offset="0.2294" stop-color="#66BFE6"/>
<stop offset="0.711" stop-color="#298BD0"/>
<stop offset="1" stop-color="#0169C2"/>
</linearGradient>
<linearGradient id="paint71_linear_565_6253" x1="559.404" y1="1054.11" x2="-122.817" y2="607.471" gradientUnits="userSpaceOnUse">
<stop stop-color="#7ED4EF"/>
<stop offset="0.2294" stop-color="#66BFE6"/>
<stop offset="0.711" stop-color="#298BD0"/>
<stop offset="1" stop-color="#0169C2"/>
</linearGradient>
</defs>
</svg>
