<svg width="55" height="41" viewBox="0 0 55 41" fill="none" xmlns="http://www.w3.org/2000/svg">
<path d="M15.2044 28.4846H14.3408C13.9327 28.4846 13.5534 28.2744 13.3371 27.9283C12.8694 27.18 11.7767 27.1882 11.3203 27.9436L11.0085 28.4596C10.4208 29.4325 11.1213 30.6742 12.2579 30.6742H18.0667C18.575 30.6742 19.0467 30.9386 19.312 31.3722L23.2739 37.8497C23.8688 38.8224 23.1688 40.0711 22.0287 40.0711H2.59974C1.46045 40.0711 0.760322 38.8241 1.35344 37.8514L1.8541 37.0303C2.11911 36.5957 2.59137 36.3306 3.1004 36.3306H16.3489C17.0949 36.3306 17.5801 35.5455 17.2465 34.8782C17.0765 34.5382 16.729 34.3235 16.3489 34.3235H5.90942C4.7845 34.3235 4.08235 33.1046 4.64666 32.1315L11.0336 21.1173C11.6004 20.1397 13.0153 20.1493 13.5689 21.1345L16.477 26.3098C17.0237 27.2829 16.3205 28.4846 15.2044 28.4846Z" fill="#0052B0"/>
<path d="M26.6758 39.335L14.0291 17.2032C13.7612 16.7345 13.774 16.1561 14.0623 15.6996L14.4915 15.02C15.0782 14.091 16.4423 14.1189 16.9906 15.071L28.8645 35.6899C29.1251 36.1424 29.6074 36.4212 30.1295 36.4212H44.1217C44.2055 36.4212 44.2892 36.4284 44.3718 36.4428L48.5684 37.1726C50.3276 37.4786 50.1039 40.0705 48.3183 40.0705H27.9432C27.4193 40.0705 26.9357 39.7898 26.6758 39.335Z" fill="#0052B0"/>
<path d="M40.2785 34.0499H31.4839C30.9696 34.0499 30.4934 33.7794 30.23 33.3377L26.3141 26.769C25.734 25.796 26.4351 24.5618 27.5679 24.5618H28.5727C29.1223 24.5618 29.6254 24.8706 29.8742 25.3607L32.0737 29.693C32.3225 30.1831 32.8256 30.4919 33.3753 30.4919H34.761C35.8902 30.4919 36.5918 29.2645 36.0188 28.2914L32.9027 23C32.6403 22.5545 32.1619 22.281 31.6449 22.281H24.7457C24.2245 22.281 23.7428 22.0031 23.482 21.5519L17.5696 11.325C17.311 10.8778 17.3081 10.3272 17.5619 9.87725L21.923 2.1463C22.4769 1.16427 23.8877 1.15432 24.4555 2.12843L31.2001 13.7C31.7673 14.6731 31.0653 15.8948 29.9389 15.8948H28.9582C28.4285 15.8948 27.9404 15.6079 27.6828 15.1451L24.4704 9.37458C23.9094 8.36694 22.4565 8.37713 21.9097 9.39254L21.6441 9.88589C21.404 10.3318 21.4122 10.8703 21.6657 11.3087L25.2153 17.4466C25.4762 17.8977 25.9578 18.1756 26.479 18.1756H32.9076C33.4324 18.1756 33.9168 18.4573 34.1763 18.9134L41.5473 31.8683C42.1009 32.8414 41.3981 34.0499 40.2785 34.0499Z" fill="#0052B0"/>
<g clip-path="url(#clip0_1515_4533)">
<path d="M45.6146 36.6917C46.6704 36.6917 47.5262 35.8359 47.5262 34.7802C47.5262 33.7245 46.6704 32.8687 45.6146 32.8687C44.5589 32.8687 43.7031 33.7245 43.7031 34.7802C43.7031 35.8359 44.5589 36.6917 45.6146 36.6917Z" fill="#0052B0"/>
<path d="M45.6146 36.6917C46.6704 36.6917 47.5262 35.8359 47.5262 34.7802C47.5262 33.7245 46.6704 32.8687 45.6146 32.8687C44.5589 32.8687 43.7031 33.7245 43.7031 34.7802C43.7031 35.8359 44.5589 36.6917 45.6146 36.6917Z" fill="url(#paint0_radial_1515_4533)"/>
<mask id="mask0_1515_4533" style="mask-type:luminance" maskUnits="userSpaceOnUse" x="43" y="32" width="5" height="5">
<path d="M45.6146 36.6907C46.6704 36.6907 47.5262 35.8349 47.5262 34.7792C47.5262 33.7235 46.6704 32.8677 45.6146 32.8677C44.5589 32.8677 43.7031 33.7235 43.7031 34.7792C43.7031 35.8349 44.5589 36.6907 45.6146 36.6907Z" fill="white"/>
</mask>
<g mask="url(#mask0_1515_4533)">
<path d="M45.7285 34.1675C45.9834 34.2185 46.2382 34.3013 46.4931 34.416C46.6333 34.2121 46.748 34.0337 46.8372 33.8808C46.6588 33.6132 46.4867 33.4284 46.3211 33.3264C46.0662 33.3392 45.8368 33.3902 45.6329 33.4794C45.6712 33.696 45.703 33.9254 45.7285 34.1675ZM45.1168 34.741C44.8747 34.6645 44.6453 34.6072 44.4287 34.5689C44.2758 34.7728 44.1865 34.9831 44.1611 35.1997C44.2503 35.4291 44.4159 35.633 44.6581 35.8114C44.8874 35.7222 45.0977 35.6266 45.2889 35.5247C45.2124 35.2189 45.1551 34.9576 45.1168 34.741ZM43.7979 35.1997C43.7087 35.0723 43.6641 34.8811 43.6641 34.6263V36.3084H43.989C43.8616 35.8624 43.7979 35.4928 43.7979 35.1997ZM46.6652 35.238C46.4867 35.4546 46.2892 35.633 46.0726 35.7732C46.1236 35.9389 46.1682 36.1109 46.2064 36.2893C46.5122 36.2766 46.748 36.2001 46.9137 36.0599C47.0411 35.8433 47.1176 35.6394 47.143 35.4482C46.9519 35.359 46.7926 35.2889 46.6652 35.238ZM45.6138 37.073L45.5565 36.5951C45.2761 36.5697 45.0276 36.4868 44.811 36.3467C44.709 36.3721 44.5943 36.3658 44.4669 36.3275M43.8934 33.8617C44.0209 33.8107 44.1611 33.8043 44.314 33.8426C44.5179 33.5622 44.7281 33.3838 44.9448 33.3073C44.9448 33.0142 44.9129 32.8677 44.8492 32.8677H43.7023M47.5253 33.7279L47.2768 34.0719C47.417 34.416 47.4807 34.6836 47.468 34.8748L47.5253 34.8939" fill="#0052B0"/>
<path d="M45.6138 37.073L45.5565 36.5951C45.2761 36.5697 45.0276 36.4868 44.811 36.3467C44.709 36.3721 44.5943 36.3658 44.4669 36.3275M43.8934 33.8617C44.0209 33.8107 44.1611 33.8043 44.314 33.8426C44.5179 33.5622 44.7281 33.3838 44.9448 33.3073C44.9448 33.0142 44.9129 32.8677 44.8492 32.8677H43.7023M47.5253 33.7279L47.2768 34.0719C47.417 34.416 47.4807 34.6836 47.468 34.8748L47.5253 34.8939M45.7285 34.1675C45.9834 34.2185 46.2382 34.3013 46.4931 34.416C46.6333 34.2121 46.748 34.0337 46.8372 33.8808C46.6588 33.6132 46.4867 33.4284 46.3211 33.3264C46.0662 33.3392 45.8368 33.3902 45.6329 33.4794C45.6712 33.696 45.703 33.9254 45.7285 34.1675ZM45.1168 34.741C44.8747 34.6645 44.6453 34.6072 44.4287 34.5689C44.2758 34.7728 44.1865 34.9831 44.1611 35.1997C44.2503 35.4291 44.4159 35.633 44.6581 35.8114C44.8874 35.7222 45.0977 35.6266 45.2889 35.5247C45.2124 35.2189 45.1551 34.9576 45.1168 34.741ZM43.7979 35.1997C43.7087 35.0723 43.6641 34.8811 43.6641 34.6263V36.3084H43.989C43.8616 35.8624 43.7979 35.4928 43.7979 35.1997ZM46.6652 35.238C46.4867 35.4546 46.2892 35.633 46.0726 35.7732C46.1236 35.9389 46.1682 36.1109 46.2064 36.2893C46.5122 36.2766 46.748 36.2001 46.9137 36.0599C47.0411 35.8433 47.1176 35.6394 47.143 35.4482C46.9519 35.359 46.7926 35.2889 46.6652 35.238Z" stroke="#EEEEEE" stroke-width="0.133807" stroke-linejoin="round"/>
<path d="M45.7275 34.1675C45.4217 34.4224 45.2178 34.6135 45.1158 34.741M46.4921 34.416C46.5941 34.7219 46.6514 34.9958 46.6642 35.238M46.8362 33.8808C47.0019 33.919 47.1484 33.9827 47.2758 34.0719M46.3201 33.3264C46.3456 33.148 46.3392 32.9951 46.301 32.8677M45.6319 33.4794C45.4535 33.3647 45.2241 33.3073 44.9438 33.3073M44.4277 34.5689C44.364 34.3905 44.3257 34.1484 44.313 33.8426M44.1601 35.1997C44.0454 35.2252 43.9243 35.2252 43.7969 35.1997M44.6571 35.8114C44.6698 36.0153 44.7208 36.1937 44.81 36.3466M45.2879 35.5247C45.5045 35.6394 45.7657 35.7222 46.0716 35.7732M46.2054 36.2893C46.0652 36.455 45.8486 36.5569 45.5555 36.5951M46.9127 36.0599L47.142 36.3084M47.142 35.4482C47.2695 35.3208 47.3778 35.1296 47.467 34.8748" stroke="#EEEEEE" stroke-width="0.133807" stroke-linejoin="round"/>
</g>
<mask id="mask1_1515_4533" style="mask-type:luminance" maskUnits="userSpaceOnUse" x="43" y="32" width="5" height="5">
<path d="M45.6146 36.6907C46.6704 36.6907 47.5262 35.8349 47.5262 34.7792C47.5262 33.7235 46.6704 32.8677 45.6146 32.8677C44.5589 32.8677 43.7031 33.7235 43.7031 34.7792C43.7031 35.8349 44.5589 36.6907 45.6146 36.6907Z" fill="white"/>
</mask>
<g mask="url(#mask1_1515_4533)">
<path d="M45.7285 34.1675C45.9834 34.2185 46.2382 34.3013 46.4931 34.416C46.6333 34.2121 46.748 34.0337 46.8372 33.8808C46.6588 33.6132 46.4867 33.4284 46.3211 33.3264C46.0662 33.3392 45.8368 33.3902 45.6329 33.4794C45.6712 33.696 45.703 33.9254 45.7285 34.1675ZM45.1168 34.741C44.8747 34.6645 44.6453 34.6072 44.4287 34.5689C44.2758 34.7728 44.1865 34.9831 44.1611 35.1997C44.2503 35.4291 44.4159 35.633 44.6581 35.8114C44.8874 35.7222 45.0977 35.6266 45.2889 35.5247C45.2124 35.2189 45.1551 34.9576 45.1168 34.741ZM43.7979 35.1997C43.7087 35.0723 43.6641 34.8811 43.6641 34.6263V36.3084H43.989C43.8616 35.8624 43.7979 35.4928 43.7979 35.1997ZM46.6652 35.238C46.4867 35.4546 46.2892 35.633 46.0726 35.7732C46.1236 35.9389 46.1682 36.1109 46.2064 36.2893C46.5122 36.2766 46.748 36.2001 46.9137 36.0599C47.0411 35.8433 47.1176 35.6394 47.143 35.4482C46.9519 35.359 46.7926 35.2889 46.6652 35.238ZM45.6138 37.073L45.5565 36.5951C45.2761 36.5697 45.0276 36.4868 44.811 36.3467C44.709 36.3721 44.5943 36.3658 44.4669 36.3275M43.8934 33.8617C44.0209 33.8107 44.1611 33.8043 44.314 33.8426C44.5179 33.5622 44.7281 33.3838 44.9448 33.3073C44.9448 33.0142 44.9129 32.8677 44.8492 32.8677H43.7023M47.5253 33.7279L47.2768 34.0719C47.417 34.416 47.4807 34.6836 47.468 34.8748L47.5253 34.8939" fill="#0052B0"/>
<path d="M45.6138 37.073L45.5565 36.5951C45.2761 36.5697 45.0276 36.4868 44.811 36.3467C44.709 36.3721 44.5943 36.3658 44.4669 36.3275M43.8934 33.8617C44.0209 33.8107 44.1611 33.8043 44.314 33.8426C44.5179 33.5622 44.7281 33.3838 44.9448 33.3073C44.9448 33.0142 44.9129 32.8677 44.8492 32.8677H43.7023M47.5253 33.7279L47.2768 34.0719C47.417 34.416 47.4807 34.6836 47.468 34.8748L47.5253 34.8939M45.7285 34.1675C45.9834 34.2185 46.2382 34.3013 46.4931 34.416C46.6333 34.2121 46.748 34.0337 46.8372 33.8808C46.6588 33.6132 46.4867 33.4284 46.3211 33.3264C46.0662 33.3392 45.8368 33.3902 45.6329 33.4794C45.6712 33.696 45.703 33.9254 45.7285 34.1675ZM45.1168 34.741C44.8747 34.6645 44.6453 34.6072 44.4287 34.5689C44.2758 34.7728 44.1865 34.9831 44.1611 35.1997C44.2503 35.4291 44.4159 35.633 44.6581 35.8114C44.8874 35.7222 45.0977 35.6266 45.2889 35.5247C45.2124 35.2189 45.1551 34.9576 45.1168 34.741ZM43.7979 35.1997C43.7087 35.0723 43.6641 34.8811 43.6641 34.6263V36.3084H43.989C43.8616 35.8624 43.7979 35.4928 43.7979 35.1997ZM46.6652 35.238C46.4867 35.4546 46.2892 35.633 46.0726 35.7732C46.1236 35.9389 46.1682 36.1109 46.2064 36.2893C46.5122 36.2766 46.748 36.2001 46.9137 36.0599C47.0411 35.8433 47.1176 35.6394 47.143 35.4482C46.9519 35.359 46.7926 35.2889 46.6652 35.238Z" stroke="#DDDDDD" stroke-width="0.076461" stroke-linejoin="round"/>
<path d="M45.7275 34.1675C45.4217 34.4224 45.2178 34.6135 45.1158 34.741M46.4921 34.416C46.5941 34.7219 46.6514 34.9958 46.6642 35.238M46.8362 33.8808C47.0019 33.919 47.1484 33.9827 47.2758 34.0719M46.3201 33.3264C46.3456 33.148 46.3392 32.9951 46.301 32.8677M45.6319 33.4794C45.4535 33.3647 45.2241 33.3073 44.9438 33.3073M44.4277 34.5689C44.364 34.3905 44.3257 34.1484 44.313 33.8426M44.1601 35.1997C44.0454 35.2252 43.9243 35.2252 43.7969 35.1997M44.6571 35.8114C44.6698 36.0153 44.7208 36.1937 44.81 36.3466M45.2879 35.5247C45.5045 35.6394 45.7657 35.7222 46.0716 35.7732M46.2054 36.2893C46.0652 36.455 45.8486 36.5569 45.5555 36.5951M46.9127 36.0599L47.142 36.3084M47.142 35.4482C47.2695 35.3208 47.3778 35.1296 47.467 34.8748" stroke="#DDDDDD" stroke-width="0.076461" stroke-linejoin="round"/>
</g>
<mask id="mask2_1515_4533" style="mask-type:luminance" maskUnits="userSpaceOnUse" x="43" y="32" width="5" height="5">
<path d="M45.6146 36.6907C46.6704 36.6907 47.5262 35.8349 47.5262 34.7792C47.5262 33.7235 46.6704 32.8677 45.6146 32.8677C44.5589 32.8677 43.7031 33.7235 43.7031 34.7792C43.7031 35.8349 44.5589 36.6907 45.6146 36.6907Z" fill="white"/>
</mask>
<g mask="url(#mask2_1515_4533)">
<path d="M45.7285 34.1675C45.9834 34.2185 46.2382 34.3013 46.4931 34.416C46.6333 34.2121 46.748 34.0337 46.8372 33.8808C46.6588 33.6132 46.4867 33.4284 46.3211 33.3264C46.0662 33.3392 45.8368 33.3902 45.6329 33.4794C45.6712 33.696 45.703 33.9254 45.7285 34.1675ZM45.1168 34.741C44.8747 34.6645 44.6453 34.6072 44.4287 34.5689C44.2758 34.7728 44.1865 34.9831 44.1611 35.1997C44.2503 35.4291 44.4159 35.633 44.6581 35.8114C44.8874 35.7222 45.0977 35.6266 45.2889 35.5247C45.2124 35.2189 45.1551 34.9576 45.1168 34.741ZM43.7979 35.1997C43.7087 35.0723 43.6641 34.8811 43.6641 34.6263V36.3084H43.989C43.8616 35.8624 43.7979 35.4928 43.7979 35.1997ZM46.6652 35.238C46.4867 35.4546 46.2892 35.633 46.0726 35.7732C46.1236 35.9389 46.1682 36.1109 46.2064 36.2893C46.5122 36.2766 46.748 36.2001 46.9137 36.0599C47.0411 35.8433 47.1176 35.6394 47.143 35.4482C46.9519 35.359 46.7926 35.2889 46.6652 35.238ZM45.6138 37.073L45.5565 36.5951C45.2761 36.5697 45.0276 36.4868 44.811 36.3467C44.709 36.3721 44.5943 36.3658 44.4669 36.3275M43.8934 33.8617C44.0209 33.8107 44.1611 33.8043 44.314 33.8426C44.5179 33.5622 44.7281 33.3838 44.9448 33.3073C44.9448 33.0142 44.9129 32.8677 44.8492 32.8677H43.7023M47.5253 33.7279L47.2768 34.0719C47.417 34.416 47.4807 34.6836 47.468 34.8748L47.5253 34.8939" fill="#0052B0"/>
<path d="M45.6138 37.073L45.5565 36.5951C45.2761 36.5697 45.0276 36.4868 44.811 36.3467C44.709 36.3721 44.5943 36.3658 44.4669 36.3275M43.8934 33.8617C44.0209 33.8107 44.1611 33.8043 44.314 33.8426C44.5179 33.5622 44.7281 33.3838 44.9448 33.3073C44.9448 33.0142 44.9129 32.8677 44.8492 32.8677H43.7023M47.5253 33.7279L47.2768 34.0719C47.417 34.416 47.4807 34.6836 47.468 34.8748L47.5253 34.8939M45.7285 34.1675C45.9834 34.2185 46.2382 34.3013 46.4931 34.416C46.6333 34.2121 46.748 34.0337 46.8372 33.8808C46.6588 33.6132 46.4867 33.4284 46.3211 33.3264C46.0662 33.3392 45.8368 33.3902 45.6329 33.4794C45.6712 33.696 45.703 33.9254 45.7285 34.1675ZM45.1168 34.741C44.8747 34.6645 44.6453 34.6072 44.4287 34.5689C44.2758 34.7728 44.1865 34.9831 44.1611 35.1997C44.2503 35.4291 44.4159 35.633 44.6581 35.8114C44.8874 35.7222 45.0977 35.6266 45.2889 35.5247C45.2124 35.2189 45.1551 34.9576 45.1168 34.741ZM43.7979 35.1997C43.7087 35.0723 43.6641 34.8811 43.6641 34.6263V36.3084H43.989C43.8616 35.8624 43.7979 35.4928 43.7979 35.1997ZM46.6652 35.238C46.4867 35.4546 46.2892 35.633 46.0726 35.7732C46.1236 35.9389 46.1682 36.1109 46.2064 36.2893C46.5122 36.2766 46.748 36.2001 46.9137 36.0599C47.0411 35.8433 47.1176 35.6394 47.143 35.4482C46.9519 35.359 46.7926 35.2889 46.6652 35.238Z" stroke="#999999" stroke-width="0.0382305" stroke-linejoin="round"/>
<path d="M45.7275 34.1675C45.4217 34.4224 45.2178 34.6135 45.1158 34.741M46.4921 34.416C46.5941 34.7219 46.6514 34.9958 46.6642 35.238M46.8362 33.8808C47.0019 33.919 47.1484 33.9827 47.2758 34.0719M46.3201 33.3264C46.3456 33.148 46.3392 32.9951 46.301 32.8677M45.6319 33.4794C45.4535 33.3647 45.2241 33.3073 44.9438 33.3073M44.4277 34.5689C44.364 34.3905 44.3257 34.1484 44.313 33.8426M44.1601 35.1997C44.0454 35.2252 43.9243 35.2252 43.7969 35.1997M44.6571 35.8114C44.6698 36.0153 44.7208 36.1937 44.81 36.3466M45.2879 35.5247C45.5045 35.6394 45.7657 35.7222 46.0716 35.7732M46.2054 36.2893C46.0652 36.455 45.8486 36.5569 45.5555 36.5951M46.9127 36.0599L47.142 36.3084M47.142 35.4482C47.2695 35.3208 47.3778 35.1296 47.467 34.8748" stroke="#999999" stroke-width="0.0382305" stroke-linejoin="round"/>
</g>
<mask id="mask3_1515_4533" style="mask-type:luminance" maskUnits="userSpaceOnUse" x="43" y="32" width="5" height="5">
<path d="M45.6146 36.6907C46.6704 36.6907 47.5262 35.8349 47.5262 34.7792C47.5262 33.7235 46.6704 32.8677 45.6146 32.8677C44.5589 32.8677 43.7031 33.7235 43.7031 34.7792C43.7031 35.8349 44.5589 36.6907 45.6146 36.6907Z" fill="white"/>
</mask>
<g mask="url(#mask3_1515_4533)">
<path d="M45.7285 34.1675C45.9834 34.2185 46.2382 34.3013 46.4931 34.416C46.6333 34.2121 46.748 34.0337 46.8372 33.8808C46.6588 33.6132 46.4867 33.4284 46.3211 33.3264C46.0662 33.3392 45.8368 33.3902 45.6329 33.4794C45.6712 33.696 45.703 33.9254 45.7285 34.1675ZM45.1168 34.741C44.8747 34.6645 44.6453 34.6072 44.4287 34.5689C44.2758 34.7728 44.1865 34.9831 44.1611 35.1997C44.2503 35.4291 44.4159 35.633 44.6581 35.8114C44.8874 35.7222 45.0977 35.6266 45.2889 35.5247C45.2124 35.2189 45.1551 34.9576 45.1168 34.741ZM43.7979 35.1997C43.7087 35.0723 43.6641 34.8811 43.6641 34.6263V36.3084H43.989C43.8616 35.8624 43.7979 35.4928 43.7979 35.1997ZM46.6652 35.238C46.4867 35.4546 46.2892 35.633 46.0726 35.7732C46.1236 35.9389 46.1682 36.1109 46.2064 36.2893C46.5122 36.2766 46.748 36.2001 46.9137 36.0599C47.0411 35.8433 47.1176 35.6394 47.143 35.4482C46.9519 35.359 46.7926 35.2889 46.6652 35.238ZM45.6138 37.073L45.5565 36.5951C45.2761 36.5697 45.0276 36.4868 44.811 36.3467C44.709 36.3721 44.5943 36.3658 44.4669 36.3275M43.8934 33.8617C44.0209 33.8107 44.1611 33.8043 44.314 33.8426C44.5179 33.5622 44.7281 33.3838 44.9448 33.3073C44.9448 33.0142 44.9129 32.8677 44.8492 32.8677H43.7023M47.5253 33.7279L47.2768 34.0719C47.417 34.416 47.4807 34.6836 47.468 34.8748L47.5253 34.8939" fill="#0052B0"/>
<path d="M45.6138 37.073L45.5565 36.5951C45.2761 36.5697 45.0276 36.4868 44.811 36.3467C44.709 36.3721 44.5943 36.3658 44.4669 36.3275M43.8934 33.8617C44.0209 33.8107 44.1611 33.8043 44.314 33.8426C44.5179 33.5622 44.7281 33.3838 44.9448 33.3073C44.9448 33.0142 44.9129 32.8677 44.8492 32.8677H43.7023M47.5253 33.7279L47.2768 34.0719C47.417 34.416 47.4807 34.6836 47.468 34.8748L47.5253 34.8939M45.7285 34.1675C45.9834 34.2185 46.2382 34.3013 46.4931 34.416C46.6333 34.2121 46.748 34.0337 46.8372 33.8808C46.6588 33.6132 46.4867 33.4284 46.3211 33.3264C46.0662 33.3392 45.8368 33.3902 45.6329 33.4794C45.6712 33.696 45.703 33.9254 45.7285 34.1675ZM45.1168 34.741C44.8747 34.6645 44.6453 34.6072 44.4287 34.5689C44.2758 34.7728 44.1865 34.9831 44.1611 35.1997C44.2503 35.4291 44.4159 35.633 44.6581 35.8114C44.8874 35.7222 45.0977 35.6266 45.2889 35.5247C45.2124 35.2189 45.1551 34.9576 45.1168 34.741ZM43.7979 35.1997C43.7087 35.0723 43.6641 34.8811 43.6641 34.6263V36.3084H43.989C43.8616 35.8624 43.7979 35.4928 43.7979 35.1997ZM46.6652 35.238C46.4867 35.4546 46.2892 35.633 46.0726 35.7732C46.1236 35.9389 46.1682 36.1109 46.2064 36.2893C46.5122 36.2766 46.748 36.2001 46.9137 36.0599C47.0411 35.8433 47.1176 35.6394 47.143 35.4482C46.9519 35.359 46.7926 35.2889 46.6652 35.238Z" stroke="#0052B0" stroke-width="0.0191152" stroke-linejoin="round"/>
<path d="M45.7275 34.1675C45.4217 34.4224 45.2178 34.6135 45.1158 34.741M46.4921 34.416C46.5941 34.7219 46.6514 34.9958 46.6642 35.238M46.8362 33.8808C47.0019 33.919 47.1484 33.9827 47.2758 34.0719M46.3201 33.3264C46.3456 33.148 46.3392 32.9951 46.301 32.8677M45.6319 33.4794C45.4535 33.3647 45.2241 33.3073 44.9438 33.3073M44.4277 34.5689C44.364 34.3905 44.3257 34.1484 44.313 33.8426M44.1601 35.1997C44.0454 35.2252 43.9243 35.2252 43.7969 35.1997M44.6571 35.8114C44.6698 36.0153 44.7208 36.1937 44.81 36.3466M45.2879 35.5247C45.5045 35.6394 45.7657 35.7222 46.0716 35.7732M46.2054 36.2893C46.0652 36.455 45.8486 36.5569 45.5555 36.5951M46.9127 36.0599L47.142 36.3084M47.142 35.4482C47.2695 35.3208 47.3778 35.1296 47.467 34.8748" stroke="#0052B0" stroke-width="0.0191152" stroke-linejoin="round"/>
</g>
<path d="M45.6186 36.6917C46.6743 36.6917 47.5301 35.8359 47.5301 34.7802C47.5301 33.7245 46.6743 32.8687 45.6186 32.8687C44.5628 32.8687 43.707 33.7245 43.707 34.7802C43.707 35.8359 44.5628 36.6917 45.6186 36.6917Z" fill="url(#paint1_radial_1515_4533)"/>
</g>
<defs>
<radialGradient id="paint0_radial_1515_4533" cx="0" cy="0" r="1" gradientUnits="userSpaceOnUse" gradientTransform="translate(45.2323 34.0156) scale(3.05844)">
<stop stop-color="white"/>
<stop offset="0.4" stop-color="white"/>
<stop offset="0.8" stop-color="#EEEEEE"/>
</radialGradient>
<radialGradient id="paint1_radial_1515_4533" cx="0" cy="0" r="1" gradientUnits="userSpaceOnUse" gradientTransform="translate(45.6186 34.7802) scale(1.91152)">
<stop stop-color="white" stop-opacity="0"/>
<stop offset="0.8" stop-color="white" stop-opacity="0"/>
<stop offset="0.99" stop-opacity="0.3"/>
<stop offset="1"/>
</radialGradient>
<clipPath id="clip0_1515_4533">
<rect width="4.0142" height="4.0142" fill="white" transform="translate(43.6094 32.7729)"/>
</clipPath>
</defs>
</svg>
